<svg xmlns="http://www.w3.org/2000/svg" xmlns:xlink="http://www.w3.org/1999/xlink"><symbol id="icon-arrow-left" viewBox="0 0 16 8"><g fill="currentColor">
<path d="M0.996056 3.64645C0.800794 3.84171 0.800794 4.15829 0.996056 4.35355L4.17804 7.53553C4.3733 7.7308 4.68988 7.7308 4.88514 7.53553C5.08041 7.34027 5.08041 7.02369 4.88514 6.82843L2.05672 4L4.88514 1.17157C5.08041 0.976311 5.08041 0.659728 4.88514 0.464466C4.68988 0.269204 4.3733 0.269204 4.17804 0.464466L0.996056 3.64645ZM15.5996 3.5L1.34961 3.5V4.5L15.5996 4.5V3.5Z" fill="currentColor"/>
</g></symbol><symbol id="icon-arrow-right" viewBox="0 0 16 8"><g fill="currentColor">
<path d="M14.9532 4.35355C15.1484 4.15829 15.1484 3.84171 14.9532 3.64645L11.7712 0.464467C11.5759 0.269205 11.2593 0.269205 11.0641 0.464467C10.8688 0.659729 10.8688 0.976312 11.0641 1.17157L13.8925 4L11.0641 6.82843C10.8688 7.02369 10.8688 7.34027 11.0641 7.53553C11.2593 7.7308 11.5759 7.7308 11.7712 7.53553L14.9532 4.35355ZM0.349609 4.5L14.5996 4.5L14.5996 3.5L0.349609 3.5L0.349609 4.5Z" fill="currentColor"/>
</g></symbol><symbol id="icon-bar" viewBox="0 0 37 35"><g fill="none">
<path d="M9.76601 11.067C7.41279 12.6455 4.71566 12.2819 2.93346 10.7483C1.09985 9.1717 0.496127 6.6054 1.44377 4.3877C2.39982 2.14943 4.5437 0.944784 6.70066 1.00646C9.42957 1.08403 11.8062 3.16342 12.094 6.15308C12.2117 6.15308 12.3351 6.15308 12.4575 6.15308C16.2939 6.15308 20.1303 6.14934 23.9666 6.16055C24.2433 6.16055 24.3722 6.07457 24.4881 5.82785C25.0554 4.61479 25.6572 3.41856 26.2236 2.2055C26.6067 1.38403 27.2264 0.997119 28.1301 1.00086C30.5553 1.01114 32.9814 1.00366 35.4066 1.00553C35.5112 1.00553 35.6449 0.981232 35.7131 1.0345C35.8364 1.13076 35.9991 1.27562 36 1.40178C36.0009 1.52982 35.8486 1.69056 35.7224 1.77841C35.6327 1.84103 35.4748 1.81112 35.3477 1.81112C32.9337 1.81205 30.5197 1.82046 28.1067 1.80551C27.546 1.80177 27.1908 2.01953 26.9553 2.52699C26.4451 3.6251 25.9058 4.71012 25.3797 5.80075C25.3311 5.90262 25.2909 6.00822 25.2283 6.15401H25.6385C28.8338 6.15401 32.0291 6.15401 35.2234 6.15401C35.3168 6.15401 35.4178 6.13065 35.5019 6.15868C35.6673 6.21382 35.9149 6.26242 35.9598 6.37924C36.0149 6.52129 35.9514 6.77362 35.8458 6.90446C35.0495 7.89416 34.2299 8.8661 33.4178 9.84365C29.9001 14.0753 26.3806 18.3061 22.8704 22.5443C22.7498 22.6891 22.6648 22.9116 22.6629 23.0994C22.648 25.0115 22.6526 26.9246 22.6545 28.8376C22.6545 29.6067 22.9115 29.9703 23.6349 30.2161C25.2339 30.7572 26.8357 31.289 28.4319 31.8357C29.1815 32.0917 29.6151 32.6385 29.7646 33.4076C29.8674 33.9356 29.7039 34.1291 29.174 34.1291C23.7863 34.13 18.3995 34.13 13.0117 34.1291C12.4762 34.1291 12.337 33.9739 12.4183 33.4487C12.5454 32.6216 13.0229 32.0787 13.8089 31.8114C15.3743 31.2805 16.9415 30.7581 18.5088 30.2329C19.2667 29.9787 19.5135 29.6423 19.5144 28.8423C19.5163 26.918 19.5191 24.9938 19.5069 23.0695C19.506 22.9004 19.4378 22.6985 19.3312 22.5695C16.2163 18.8061 13.0921 15.051 9.96881 11.2941C9.90993 11.2231 9.84545 11.1567 9.76601 11.0698V11.067ZM10.2352 10.3511C10.4333 10.595 10.5744 10.7735 10.7193 10.9483C13.7734 14.623 16.8303 18.2958 19.8789 21.9751C20.0443 22.1742 20.2088 22.2649 20.4695 22.2518C20.8882 22.2293 21.3087 22.2322 21.7274 22.2518C21.9723 22.263 22.1321 22.1826 22.2891 21.9929C24.8834 18.8603 27.4862 15.7342 30.0852 12.6062C30.3646 12.2698 30.6412 11.9296 30.9197 11.5922C30.7291 11.5819 30.5814 11.638 30.431 11.6847C26.9965 12.766 23.5648 12.6828 20.1602 11.5801C17.9957 10.8791 15.7958 10.4193 13.5211 10.3567C12.4547 10.3277 11.3865 10.352 10.2333 10.352L10.2352 10.3511ZM23.9162 6.95867H7.40812C7.88007 7.52875 8.3109 8.05677 8.75014 8.57919C9.03425 8.91656 9.26976 9.37824 9.63517 9.53898C10.0025 9.70066 10.5043 9.56515 10.9464 9.54833C13.2379 9.46141 15.5192 9.56141 17.7574 10.0922C19.035 10.396 20.2901 10.7969 21.5517 11.166C21.7863 11.2343 21.9031 11.1866 22.0097 10.9604C22.6022 9.70814 23.2106 8.46237 23.8124 7.21473C23.8461 7.14371 23.8713 7.06894 23.9152 6.95867H23.9162ZM34.7505 6.95867C34.6608 6.94932 34.6187 6.94184 34.5767 6.94184C31.4057 6.94184 28.2347 6.94465 25.0638 6.93437C24.8311 6.93437 24.7675 7.06053 24.69 7.22128C24.075 8.50162 23.4573 9.7801 22.8405 11.0595C22.7919 11.1614 22.7452 11.2642 22.6769 11.41C23.1975 11.4707 23.6685 11.5436 24.1433 11.5782C26.2058 11.7277 28.2422 11.6081 30.2151 10.9193C31.401 10.5053 32.458 9.91374 33.2141 8.85675C33.6197 8.28948 34.101 7.77547 34.5468 7.23716C34.6103 7.16053 34.6645 7.07642 34.7505 6.95867ZM28.9039 33.2983C28.7338 32.8805 28.4422 32.6684 28.0628 32.5413C26.4955 32.016 24.9302 31.4871 23.3638 30.9581C22.3368 30.6114 21.8685 29.9581 21.8676 28.8647C21.8657 27.0573 21.8676 25.2498 21.8676 23.4424C21.8676 23.3181 21.8676 23.1938 21.8676 23.0592H20.3246V23.4686C20.3246 25.2414 20.3246 27.0133 20.3246 28.7862C20.3246 29.9684 19.8508 30.6226 18.7294 30.9974C17.1845 31.5132 15.6397 32.031 14.0958 32.5487C13.7192 32.6749 13.4173 32.8833 13.2893 33.2983H28.9048H28.9039ZM2.85963 9.51375C3.73063 8.64367 4.58949 7.78575 5.40443 6.97268H1.84376C1.88395 7.9035 2.29702 8.90255 2.85963 9.51375ZM2.90261 3.52136C2.26898 4.26807 1.91198 5.13254 1.826 6.1241H5.50069C4.63155 5.2531 3.77736 4.39704 2.90261 3.52136ZM10.2109 3.57089C9.35013 4.42882 8.49034 5.28674 7.6483 6.12691H11.2342C11.2492 5.30169 10.7473 4.09705 10.2109 3.57089ZM6.12123 7.6437C5.26798 8.49508 4.41006 9.35113 3.55213 10.2072C4.15679 10.781 5.29041 11.252 6.12123 11.2502V7.64463V7.6437ZM3.59232 2.85315C4.46426 3.72416 5.31751 4.57741 6.11282 5.37179V1.83448C5.1521 1.90551 4.15305 2.32513 3.59232 2.85315ZM6.96607 5.43066C7.82306 4.58769 8.68286 3.74098 9.55387 2.88306C8.81183 2.27746 7.95857 1.91392 6.96607 1.82981V5.43066ZM6.9614 11.2707C7.81091 11.1819 8.55295 10.9221 9.25294 10.4324C8.49314 9.51935 7.75578 8.63246 6.9614 7.67547V11.2698V11.2707Z" fill="#9D15A0" stroke="#9D15A0" stroke-width="0.4"/>
</g></symbol><symbol id="icon-calendar" viewBox="0 0 35 35"><g fill="currentColor">
<path d="M4.12354 2.76177C4.12354 2.52971 4.12149 2.32845 4.12354 2.12514C4.14203 0.628026 5.45902 -0.320761 6.87873 0.14131C7.64715 0.391856 8.21216 1.16608 8.23887 2.01013C8.24708 2.24836 8.23887 2.48658 8.23887 2.74123H11.6721C11.6721 2.50917 11.6659 2.28943 11.6721 2.06969C11.6988 1.19073 12.1056 0.539719 12.9048 0.188544C13.6958 -0.156469 14.4478 -0.0229816 15.1032 0.547934C15.5532 0.940181 15.7586 1.45359 15.7874 2.04094C15.7977 2.26889 15.7874 2.4989 15.7874 2.74329H19.2103C19.2103 2.53587 19.2103 2.33461 19.2103 2.13335C19.2227 0.632133 20.5622 -0.326922 21.9881 0.145418C22.7298 0.389802 23.2804 1.13117 23.3236 1.95469C23.3359 2.20934 23.3236 2.46604 23.3236 2.74123H26.7609C26.7609 2.52355 26.7568 2.31407 26.7609 2.10255C26.7815 1.21537 27.1862 0.549987 27.9937 0.194705C28.8011 -0.16263 29.5716 -0.0168208 30.2331 0.578738C30.6605 0.964825 30.8577 1.46592 30.8783 2.03683C30.8865 2.26684 30.8783 2.49685 30.8783 2.76177C31.3385 2.76177 31.772 2.76177 32.2076 2.76177C32.7418 2.75972 33.239 2.88704 33.6931 3.17455C34.4943 3.68181 34.9135 4.41496 34.9936 5.35143C35.0018 5.45411 34.9998 5.55679 34.9998 5.65947C34.9998 14.4717 34.9998 23.286 34.9998 32.0982C34.9998 32.8539 34.7923 33.5234 34.2766 34.0923C33.7732 34.6447 33.1486 34.9302 32.4131 34.9918C32.3021 35.0021 32.1912 34.9979 32.0802 34.9979C22.3559 34.9979 12.6316 34.9979 2.90723 35C2.14087 35 1.46492 34.7864 0.891688 34.2627C0.347224 33.7658 0.0719103 33.1435 0.00821832 32.4206C-0.00205458 32.3097 0.00205458 32.1988 0.00205458 32.0879C0.00205458 23.2839 0.00205458 14.4799 0 5.67385C0 4.80721 0.262986 4.06173 0.910179 3.47233C1.40944 3.01848 2.00116 2.7782 2.67917 2.76588C3.14762 2.75766 3.61606 2.76588 4.12149 2.76588L4.12354 2.76177ZM1.37451 10.9928C1.37451 11.0996 1.37451 11.1838 1.37451 11.268C1.37451 18.2237 1.38068 25.1815 1.3663 32.1372C1.3663 32.9895 2.06691 33.6343 2.86614 33.6343C12.6254 33.6199 22.3846 33.6199 32.1418 33.6343C32.9637 33.6343 33.6437 32.9648 33.6417 32.1372C33.6253 25.1815 33.6335 18.2237 33.6335 11.268V10.9949H1.37451V10.9928ZM1.37451 9.59427H33.6253C33.6253 8.15877 33.652 6.73969 33.6109 5.32062C33.5944 4.79489 33.2554 4.34514 32.7336 4.23424C32.1439 4.10897 31.5214 4.13156 30.8844 4.08843C30.8844 4.41291 30.8844 4.65935 30.8844 4.90578C30.8803 5.33089 30.7406 5.71287 30.4879 6.04556C29.8962 6.81979 29.0066 7.03953 28.2073 6.78693C27.3054 6.49942 26.7691 5.72108 26.7671 4.7723C26.7671 4.56282 26.7671 4.35335 26.7671 4.14593H23.3359C23.3359 4.30406 23.338 4.44782 23.3359 4.59157C23.3318 4.78873 23.3503 4.98998 23.3133 5.18097C23.1038 6.28994 22.1402 7.00256 20.9875 6.86291C20.0363 6.74791 19.198 5.90386 19.2144 4.77846C19.2165 4.56898 19.2144 4.35746 19.2144 4.14799H15.7936C15.7936 4.35951 15.8038 4.55461 15.7915 4.74765C15.7771 4.96739 15.7627 5.19124 15.7073 5.40277C15.434 6.43986 14.2773 7.09908 13.2377 6.82184C12.2864 6.56924 11.6782 5.78475 11.6741 4.79899C11.6741 4.58131 11.6741 4.36362 11.6741 4.14388H8.24297C8.24297 4.40469 8.24297 4.64908 8.24297 4.89552C8.23886 5.32884 8.09299 5.71903 7.83411 6.05583C7.2917 6.76434 6.36303 7.05801 5.57202 6.79514C4.67828 6.49736 4.12765 5.73135 4.12354 4.78256C4.12354 4.57309 4.12354 4.36157 4.12354 4.12745C3.65715 4.12745 3.2298 4.1254 2.8045 4.12745C1.95596 4.13361 1.37862 4.71685 1.37657 5.56706C1.37657 6.14824 1.37657 6.73148 1.37657 7.31266C1.37657 8.0643 1.37657 8.81594 1.37657 9.59222L1.37451 9.59427ZM5.49189 3.41072C5.49189 3.8461 5.48778 4.28147 5.49189 4.71685C5.49806 5.15838 5.79802 5.49313 6.17812 5.49313C6.56233 5.49313 6.86024 5.16249 6.8623 4.72095C6.86641 3.85842 6.86641 2.99589 6.8623 2.13541C6.8623 1.70209 6.57877 1.39198 6.19045 1.38582C5.78981 1.37966 5.49395 1.69182 5.48984 2.13335C5.48573 2.56051 5.48984 2.98767 5.48984 3.41278L5.49189 3.41072ZM29.512 3.41894C29.512 2.97535 29.5182 2.53176 29.512 2.08817C29.5038 1.6836 29.1997 1.38172 28.8196 1.38377C28.4416 1.38582 28.1436 1.69182 28.1416 2.10049C28.1375 2.97124 28.1375 3.84199 28.1416 4.71274C28.1436 5.15633 28.4416 5.48902 28.8216 5.49313C29.2141 5.49929 29.5099 5.16249 29.514 4.70042C29.5182 4.27326 29.514 3.8461 29.514 3.42099L29.512 3.41894ZM14.4149 3.41278C14.4149 2.96919 14.4211 2.5256 14.4149 2.08201C14.4088 1.69387 14.1067 1.38993 13.741 1.38377C13.3609 1.37761 13.0425 1.6836 13.0404 2.07996C13.0343 2.96714 13.026 3.85637 13.0486 4.74355C13.0527 4.93043 13.1555 5.14401 13.2767 5.28982C13.4616 5.50956 13.7328 5.55268 13.9999 5.42741C14.2711 5.30008 14.4067 5.06597 14.4129 4.77024C14.4232 4.31844 14.4149 3.86458 14.4149 3.41278ZM21.9655 3.41894C21.9655 2.98357 21.9696 2.54819 21.9655 2.11282C21.9614 1.69387 21.6594 1.38172 21.2711 1.38377C20.893 1.38582 20.5931 1.69387 20.5889 2.10049C20.5848 2.97124 20.5848 3.84199 20.5889 4.71274C20.591 5.15633 20.891 5.49107 21.2731 5.49313C21.6655 5.49518 21.9635 5.15838 21.9676 4.70042C21.9696 4.27326 21.9676 3.8461 21.9676 3.41894H21.9655Z" fill="currentColor"/>
<path d="M18.5301 15.4225C18.5301 14.8742 18.5281 14.328 18.5301 13.7796C18.5322 13.3319 18.8219 13.0424 19.2677 13.0403C20.3813 13.0362 21.4928 13.0362 22.6064 13.0403C23.0317 13.0403 23.3235 13.3176 23.3276 13.7427C23.3358 14.8722 23.3358 16.0017 23.3276 17.1312C23.3255 17.5625 23.0441 17.8397 22.6167 17.8438C21.4949 17.85 20.3731 17.85 19.2534 17.8438C18.8116 17.8418 18.5343 17.5542 18.5301 17.1168C18.526 16.5521 18.5301 15.9873 18.5301 15.4225ZM21.9613 14.4347H19.9273V16.4535H21.9613V14.4347Z" fill="currentColor"/>
<path d="M16.4755 15.4431C16.4755 15.9996 16.4775 16.5561 16.4755 17.1106C16.4714 17.5481 16.194 17.8397 15.7564 17.8417C14.6346 17.8479 13.5128 17.8479 12.393 17.8417C11.9595 17.8397 11.6801 17.5665 11.678 17.1353C11.6698 16.0058 11.6698 14.8763 11.678 13.7467C11.6801 13.3196 11.9698 13.0403 12.393 13.0382C13.5148 13.0341 14.6366 13.0341 15.7564 13.0382C16.1858 13.0382 16.4714 13.3381 16.4755 13.7714C16.4796 14.3279 16.4755 14.8845 16.4755 15.439V15.4431ZM13.0484 16.4617H15.0804V14.4347H13.0484V16.4617Z" fill="currentColor"/>
<path d="M18.5301 29.1615C18.5301 28.6049 18.5281 28.0484 18.5301 27.4939C18.5322 27.0565 18.8116 26.7669 19.2492 26.7628C20.3711 26.7566 21.4929 26.7566 22.6126 26.7628C23.042 26.7649 23.3235 27.0421 23.3276 27.4713C23.3358 28.6008 23.3358 29.7303 23.3276 30.8598C23.3235 31.287 23.0338 31.5642 22.6105 31.5663C21.4887 31.5704 20.3669 31.5704 19.2472 31.5663C18.8178 31.5663 18.5322 31.2665 18.5301 30.8311C18.526 30.2745 18.5301 29.718 18.5301 29.1635V29.1615ZM21.9449 30.178V28.149H19.9252V30.178H21.9449Z" fill="currentColor"/>
<path d="M16.4759 29.1634C16.4759 29.7118 16.4779 30.258 16.4759 30.8064C16.4738 31.2746 16.1924 31.5642 15.7321 31.5662C14.6288 31.5703 13.5235 31.5703 12.4202 31.5662C11.964 31.5662 11.6805 31.289 11.6785 30.8331C11.6723 29.72 11.6723 28.609 11.6785 27.4959C11.6805 27.0379 11.962 26.7648 12.4202 26.7627C13.5235 26.7586 14.6288 26.7586 15.7321 26.7627C16.2006 26.7648 16.4738 27.0502 16.4759 27.5205C16.4779 28.0688 16.4759 28.6151 16.4759 29.1634ZM13.055 28.1489V30.1697H15.0829V28.1489H13.055Z" fill="currentColor"/>
<path d="M16.4754 22.3022C16.4754 22.8587 16.4795 23.4132 16.4754 23.9697C16.4713 24.4154 16.2021 24.6926 15.7563 24.6967C14.6365 24.7029 13.5147 24.7029 12.395 24.6967C11.9574 24.6967 11.682 24.4297 11.68 23.9964C11.6718 22.8669 11.6718 21.7395 11.68 20.6099C11.6841 20.1746 11.9574 19.9117 12.397 19.9097C13.5168 19.9055 14.6386 19.9035 15.7583 19.9097C16.2062 19.9117 16.4754 20.1889 16.4774 20.6366C16.4815 21.1932 16.4774 21.7477 16.4774 22.3042L16.4754 22.3022ZM15.0762 23.3126V21.2938H13.0525V23.3126H15.0762Z" fill="currentColor"/>
<path d="M18.5302 22.2919C18.5302 21.7457 18.5282 21.1973 18.5302 20.6511C18.5323 20.1869 18.7994 19.9118 19.2596 19.9097C20.3711 19.9056 21.4847 19.9056 22.5962 19.9097C23.0606 19.9097 23.3277 20.1767 23.3297 20.647C23.3359 21.7498 23.3359 22.8526 23.3297 23.9554C23.3277 24.438 23.0606 24.6968 22.5757 24.6988C21.4806 24.7029 20.3855 24.7029 19.2904 24.6988C18.7953 24.6988 18.5323 24.4298 18.5302 23.9349C18.5282 23.3886 18.5302 22.8403 18.5302 22.294V22.2919ZM19.9314 21.2918V23.3105H21.9552V21.2918H19.9314Z" fill="currentColor"/>
<path d="M25.414 22.2498C25.414 21.7035 25.4119 21.1552 25.414 20.609C25.4161 20.1448 25.6831 19.8696 26.1434 19.8676C27.2549 19.8635 28.3685 19.8635 29.48 19.8676C29.9443 19.8676 30.2114 20.1346 30.2135 20.6048C30.2197 21.7077 30.2197 22.8105 30.2135 23.9133C30.2114 24.3959 29.9443 24.6546 29.4595 24.6567C28.3644 24.6608 27.2693 24.6608 26.1742 24.6567C25.679 24.6567 25.4161 24.3877 25.414 23.8927C25.4119 23.3465 25.414 22.7981 25.414 22.2519V22.2498ZM26.8152 21.2497V23.2684H28.839V21.2497H26.8152Z" fill="currentColor"/>
<path d="M7.22571 13.0403C7.76401 13.0403 8.30436 13.0383 8.84266 13.0403C9.32138 13.0424 9.60285 13.3094 9.60491 13.7797C9.61107 14.8907 9.61107 16.0038 9.60491 17.1148C9.60285 17.5707 9.32138 17.8438 8.86115 17.8459C7.75784 17.85 6.65248 17.85 5.54917 17.8459C5.091 17.8438 4.81568 17.5645 4.81363 17.1086C4.80952 15.9976 4.80952 14.8845 4.81363 13.7735C4.81363 13.3237 5.10332 13.0444 5.55739 13.0424C6.11418 13.0383 6.66891 13.0424 7.22571 13.0424V13.0403ZM6.20047 16.4576H8.22834V14.4368H6.20047V16.4576Z" fill="currentColor"/>
<path d="M30.1939 15.4555C30.1939 16.0038 30.1959 16.55 30.1939 17.0984C30.1898 17.5687 29.9165 17.8459 29.4419 17.8459C28.3468 17.85 27.2517 17.85 26.1566 17.8459C25.6779 17.8459 25.4026 17.5728 25.4005 17.1004C25.3964 15.9976 25.3964 14.8948 25.4005 13.7899C25.4005 13.3135 25.6779 13.0424 26.1525 13.0404C27.2476 13.0383 28.3427 13.0383 29.4378 13.0404C29.9062 13.0404 30.1898 13.3217 30.1939 13.7858C30.198 14.3424 30.1939 14.8969 30.1939 15.4534V15.4555ZM28.7988 16.47V14.4368H26.7853V16.47H28.7988Z" fill="currentColor"/>
<path d="M30.194 29.1697C30.194 29.718 30.1961 30.2643 30.194 30.8126C30.192 31.2829 29.9126 31.5663 29.4462 31.5684C28.3429 31.5704 27.2395 31.5725 26.1342 31.5684C25.6904 31.5684 25.4048 31.2952 25.4007 30.8537C25.3925 29.7242 25.3925 28.5967 25.4007 27.4672C25.4027 27.0401 25.6863 26.7669 26.1198 26.7649C27.2416 26.7587 28.3613 26.7587 29.4831 26.7649C29.9105 26.7669 30.1879 27.0524 30.192 27.4775C30.1981 28.0422 30.192 28.607 30.192 29.1718L30.194 29.1697ZM28.8113 28.147H26.7814V30.1678H28.8113V28.147Z" fill="currentColor"/>
<path d="M7.19735 31.5662C6.65905 31.5662 6.1187 31.5662 5.5804 31.5662C5.09552 31.5642 4.8161 31.289 4.81404 30.8064C4.81199 29.7118 4.81199 28.6172 4.81404 27.5226C4.81404 27.0359 5.0873 26.7648 5.57834 26.7627C6.66522 26.7586 7.75209 26.7586 8.83896 26.7627C9.33001 26.7627 9.60532 27.0338 9.60738 27.5226C9.61149 28.6172 9.61149 29.7118 9.60738 30.8064C9.60738 31.2972 9.33001 31.5642 8.84102 31.5662C8.29244 31.5683 7.74593 31.5662 7.19735 31.5662ZM8.21848 30.1738V28.153H6.20088V30.1738H8.21848Z" fill="currentColor"/>
<path d="M4.81162 22.2919C4.81162 21.7539 4.80957 21.2138 4.81162 20.6757C4.81368 20.1685 5.06434 19.9118 5.5636 19.9097C6.65869 19.9056 7.75378 19.9056 8.84888 19.9097C9.34814 19.9097 9.60291 20.1685 9.60496 20.6737C9.60907 21.76 9.60907 22.8464 9.60496 23.9328C9.60496 24.4483 9.34608 24.6988 8.82422 24.7009C7.74556 24.7029 6.66897 24.7029 5.59031 24.7009C5.05612 24.7009 4.81162 24.4483 4.80957 23.9102C4.80957 23.3722 4.80957 22.832 4.80957 22.294L4.81162 22.2919ZM6.20052 23.329C6.8436 23.329 7.45998 23.327 8.0743 23.329C8.21812 23.329 8.24277 23.2571 8.24072 23.136C8.23661 22.7355 8.24072 22.333 8.24072 21.9305C8.24072 21.721 8.24072 21.5095 8.24072 21.2898H6.20052V23.3249V23.329Z" fill="currentColor"/>
</g></symbol><symbol id="icon-clock" viewBox="0 0 35 35"><g fill="currentColor">
<g id="Group 420">
<path id="Vector" d="M0 16.4769C0.0903582 15.8027 0.147427 15.1226 0.27583 14.4568C1.33992 8.91497 4.35741 4.77494 9.29144 2.05931C12.0652 0.53266 15.0756 -0.162893 18.2322 0.0320999C24.7998 0.437542 29.7207 3.55624 32.9344 9.29306C34.4812 12.0551 35.1624 15.0751 34.9674 18.2318C34.5608 24.8128 31.4328 29.734 25.6831 32.9538C23.5514 34.1475 21.2306 34.7777 18.7874 34.9441C18.6982 34.9501 18.6114 34.981 18.5234 35H16.4725C16.3846 34.981 16.2978 34.9501 16.2086 34.9441C13.7677 34.7777 11.4553 34.1356 9.31522 32.9573C4.3693 30.2369 1.34348 26.0981 0.27583 20.5468C0.147427 19.8809 0.0903582 19.2008 0 18.5267C0 17.843 0 17.1594 0 16.4757V16.4769ZM33.4777 17.4994C33.473 8.69144 26.3121 1.53021 17.5022 1.5207C8.70411 1.51119 1.53847 8.66885 1.51588 17.4887C1.49448 26.2895 8.7053 33.5031 17.5081 33.4841C26.3252 33.4662 33.4825 26.3014 33.4777 17.4994Z" fill="currentColor"/>
<path id="Vector_2" d="M16.742 13.8789C16.742 12.7053 16.736 11.533 16.7444 10.3595C16.7491 9.74716 17.2437 9.37382 17.7645 9.57714C18.114 9.71387 18.2543 9.99803 18.2543 10.3607C18.2543 11.0895 18.2543 11.8184 18.2543 12.5472C18.2543 13.9942 18.2591 15.44 18.2495 16.887C18.2484 17.1105 18.3161 17.2651 18.4731 17.422C21.0388 19.9783 23.5985 22.5406 26.1595 25.1016C26.6552 25.5975 26.7147 26.0112 26.3449 26.3679C25.9835 26.7163 25.5864 26.6545 25.1025 26.1705C22.4524 23.5215 19.8058 20.8689 17.1498 18.2246C16.8644 17.9404 16.7265 17.6349 16.7337 17.227C16.7515 16.1106 16.7396 14.9941 16.7396 13.8789H16.742Z" fill="currentColor"/>
<path id="Vector_3" d="M18.2544 4.7773C18.2521 5.33256 18.0012 5.66072 17.5553 5.68925C17.4995 5.69282 17.4424 5.68925 17.3865 5.68212C16.9312 5.62386 16.7112 5.26122 16.7421 4.62155C16.7647 4.15309 17.0417 3.84396 17.4567 3.82374C17.9596 3.79877 18.2568 4.15428 18.2544 4.7773Z" fill="currentColor"/>
<path id="Vector_4" d="M4.7342 18.2592C4.19443 18.2568 3.86985 18.019 3.82586 17.5921C3.79257 17.2664 3.9079 16.9929 4.20275 16.8573C4.58796 16.6802 4.99695 16.6635 5.37265 16.8966C5.65324 17.0702 5.73171 17.3508 5.67226 17.667C5.59855 18.0606 5.27516 18.2627 4.73539 18.2603L4.7342 18.2592Z" fill="currentColor"/>
<path id="Vector_5" d="M30.2564 16.7455C30.8235 16.7479 31.1648 17.0166 31.1766 17.4755C31.185 17.7728 31.0673 18.0237 30.7998 18.1461C30.4134 18.3233 30.0067 18.3399 29.6299 18.1116C29.3612 17.9487 29.2756 17.6836 29.3195 17.3769C29.3802 16.9595 29.7036 16.7431 30.2576 16.7455H30.2564Z" fill="currentColor"/>
<path id="Vector_6" d="M18.2536 30.2638C18.2512 30.8298 17.9801 31.1699 17.52 31.1806C17.2228 31.1877 16.9731 31.0688 16.8519 30.8001C16.6771 30.4137 16.6592 30.0058 16.8899 29.6301C17.054 29.3626 17.3191 29.2782 17.6258 29.3246C18.0408 29.3864 18.256 29.7098 18.2536 30.265V30.2638Z" fill="currentColor"/>
<path id="Vector_7" d="M9.38927 8.80306C9.29415 8.91483 9.16337 9.18354 8.95174 9.28579C8.76389 9.37615 8.46191 9.34286 8.2586 9.25369C8.05648 9.16451 7.89122 8.95525 7.75212 8.76739C7.53692 8.47847 7.5928 8.09205 7.84842 7.84118C8.10523 7.5903 8.4845 7.54631 8.77816 7.76033C9.08253 7.98267 9.37143 8.22641 9.38927 8.80306Z" fill="currentColor"/>
<path id="Vector_8" d="M26.1836 9.38338C26.0825 9.29777 25.8138 9.16579 25.7116 8.95534C25.6212 8.76749 25.6545 8.4643 25.7449 8.26217C25.834 8.06004 26.0445 7.89596 26.2311 7.75566C26.4939 7.55948 26.784 7.57613 27.0503 7.77112C27.3107 7.96136 27.426 8.2158 27.3487 8.54158C27.2548 8.94227 26.7174 9.39527 26.1836 9.38576V9.38338Z" fill="currentColor"/>
<path id="Vector_9" d="M9.38325 26.3551C9.3892 26.7927 8.7983 27.3907 8.36434 27.3872C7.98389 27.3836 7.62245 27.0245 7.61532 26.644C7.607 26.2101 8.19908 25.6168 8.64017 25.6191C9.03608 25.6203 9.37968 25.9604 9.38444 26.3563L9.38325 26.3551Z" fill="currentColor"/>
</g>
</g></symbol><symbol id="icon-close" viewBox="0 0 24 24"><g fill="none">
<path fill-rule="evenodd" clip-rule="evenodd" d="M18.7071 5.29289C19.0976 5.68342 19.0976 6.31658 18.7071 6.70711L6.70711 18.7071C6.31658 19.0976 5.68342 19.0976 5.29289 18.7071C4.90237 18.3166 4.90237 17.6834 5.29289 17.2929L17.2929 5.29289C17.6834 4.90237 18.3166 4.90237 18.7071 5.29289Z" fill="currentColor"/>
<path fill-rule="evenodd" clip-rule="evenodd" d="M5.29289 5.29289C5.68342 4.90237 6.31658 4.90237 6.70711 5.29289L18.7071 17.2929C19.0976 17.6834 19.0976 18.3166 18.7071 18.7071C18.3166 19.0976 17.6834 19.0976 17.2929 18.7071L5.29289 6.70711C4.90237 6.31658 4.90237 5.68342 5.29289 5.29289Z" fill="currentColor"/>
</g></symbol><symbol id="icon-dzen" viewBox="0 0 26 26"><g fill="currentColor">
<g id="Group 237">
<rect id="Rectangle 137" width="26" height="26" fill="currentColor"/>
<path id="Soft Star" d="M12.7598 3.23039C12.7936 2.9232 13.2064 2.9232 13.2402 3.23039L13.5233 5.80746C13.889 9.13516 16.3186 11.7588 19.4001 12.1536L21.7866 12.4594C22.0711 12.4959 22.0711 12.9417 21.7866 12.9781L19.4001 13.2839C16.3186 13.6788 13.889 16.3024 13.5233 19.6301L13.2402 22.2071C13.2064 22.5143 12.7936 22.5143 12.7598 22.2071L12.4767 19.6301C12.111 16.3024 9.68142 13.6788 6.59983 13.2839L4.21336 12.9781C3.92888 12.9417 3.92888 12.4959 4.21336 12.4594L6.59983 12.1536C9.68142 11.7588 12.111 9.13516 12.4767 5.80746L12.7598 3.23039Z" fill="white"/>
</g>
</g></symbol><symbol id="icon-home" viewBox="0 0 35 35"><g fill="currentColor">
<path d="M31.7277 16.9653V30.8768C32.2336 30.8768 32.7247 30.8748 33.2157 30.8768C34.0189 30.8797 34.4324 31.2653 34.4502 32.0503C34.4632 32.6423 34.4622 33.2354 34.4502 33.8275C34.4343 34.6211 34.0328 35 33.2286 35C22.7379 35 12.2473 35 1.75658 35C0.975297 35 0.567756 34.6192 0.549864 33.8498C0.535948 33.2451 0.535948 32.6404 0.549864 32.0367C0.567756 31.277 0.989213 30.8826 1.76056 30.8777C2.23171 30.8748 2.70287 30.8738 3.17403 30.87C3.19689 30.87 3.21975 30.8564 3.26547 30.8409V16.9808C3.18894 17.0157 3.11538 17.0447 3.0458 17.0806C2.44443 17.3907 1.8202 17.287 1.36196 16.7889C1.03891 16.4381 0.723815 16.0806 0.410704 15.721C-0.180726 15.0408 -0.134008 14.3295 0.554835 13.75C1.85002 12.6599 3.14818 11.5736 4.45629 10.4989C4.67795 10.3167 4.76045 10.1307 4.75846 9.85159C4.74753 7.77204 4.7515 5.69249 4.7525 3.61294C4.7525 2.75922 5.11332 2.4094 5.99798 2.40746C7.05162 2.40456 8.10626 2.40359 9.1599 2.40746C10.0127 2.41134 10.3726 2.76988 10.3736 3.60713C10.3736 4.22053 10.3736 4.83296 10.3736 5.53551C10.5435 5.39984 10.6549 5.31457 10.7612 5.22542C12.6637 3.63717 14.5653 2.04892 16.4678 0.460671C17.1984 -0.148852 17.7888 -0.155635 18.5194 0.452919C23.8045 4.86203 29.0886 9.27211 34.3697 13.6841C35.156 14.3411 35.2027 15.0204 34.5318 15.7869C34.2584 16.0999 33.9811 16.4091 33.7018 16.7172C33.171 17.3054 32.5815 17.4072 31.8748 17.037C31.834 17.0157 31.7923 16.9973 31.7247 16.9653H31.7277ZM4.48511 30.8758C5.74451 30.8758 6.95719 30.8787 8.16987 30.868C8.24641 30.868 8.37762 30.7663 8.39054 30.6955C8.54163 29.8738 9.07044 29.2643 9.55153 28.617C9.80003 28.2826 10.0167 27.8941 10.1221 27.4987C10.3775 26.5394 10.0227 25.7205 9.36665 25.0034C8.6122 24.1788 8.25337 23.2175 8.32991 22.108C8.33985 21.9578 8.3309 21.8066 8.3309 21.6564C7.86372 22.2039 7.47805 22.7737 7.0884 23.3406C6.82201 23.7282 6.50094 23.8328 6.18684 23.6429C5.85683 23.4433 5.81906 23.1002 6.09042 22.6971C6.85183 21.5663 7.61522 20.4354 8.38259 19.3074C8.66488 18.8917 9.17381 18.8791 9.45611 19.2929C10.2473 20.449 11.0296 21.6099 11.8089 22.7737C12.0286 23.1022 11.963 23.452 11.6737 23.6361C11.3785 23.8241 11.0445 23.7466 10.8109 23.4123C10.4471 22.8938 10.0982 22.3647 9.74039 21.8424C9.69268 21.7727 9.62906 21.7136 9.56843 21.6428C9.38752 22.7204 9.65391 23.639 10.4113 24.4113C10.4879 24.4898 10.5495 24.5819 10.6161 24.6691C11.6697 26.0606 11.6678 27.8253 10.6091 29.2178C10.4173 29.4697 10.1966 29.7033 10.0237 29.9668C9.84874 30.2343 9.71554 30.5279 9.56147 30.8147C9.6559 30.8535 9.67876 30.8709 9.70163 30.8709C12.0455 30.8748 14.3893 30.8777 16.7342 30.8729C16.8117 30.8729 16.9489 30.8031 16.9578 30.7498C17.1089 29.8166 17.7331 29.148 18.2858 28.4358C18.7401 27.8514 18.8355 27.1828 18.7351 26.4735C18.6456 25.8416 18.254 25.3697 17.8564 24.9046C17.1934 24.1294 16.8525 23.2495 16.9022 22.233C16.9121 22.0382 16.9032 21.8415 16.9032 21.6467C16.437 22.2107 16.0483 22.7843 15.6557 23.3551C15.3923 23.7379 15.0643 23.8367 14.7511 23.6371C14.445 23.4413 14.4042 23.0896 14.6557 22.7155C15.4181 21.5847 16.1815 20.4548 16.9479 19.3268C17.2441 18.8908 17.7471 18.8801 18.0403 19.3103C18.8166 20.447 19.587 21.5866 20.3553 22.7281C20.5949 23.0838 20.5551 23.4258 20.2659 23.6255C19.9577 23.8377 19.6168 23.7466 19.3563 23.3706C19.0035 22.8599 18.6586 22.3434 18.3067 21.8308C18.26 21.762 18.1964 21.7039 18.1367 21.638C17.9488 22.733 18.2431 23.6555 19.0035 24.4365C19.0969 24.5325 19.1725 24.6449 19.253 24.7525C19.906 25.6226 20.071 26.5956 19.907 27.6441C19.7798 28.4571 19.2967 29.0792 18.8057 29.7081C18.5423 30.0453 18.3395 30.4271 18.1089 30.7886C18.1387 30.8186 18.1685 30.8496 18.1983 30.8797C18.8156 30.8797 19.4319 30.8797 20.0492 30.8797C21.7728 30.8797 23.4974 30.8826 25.221 30.8729C25.3432 30.8729 25.5589 30.7954 25.5718 30.7266C25.7358 29.8389 26.3084 29.1829 26.8501 28.5065C27.3272 27.9096 27.4594 27.2322 27.3521 26.4899C27.2626 25.8688 26.8978 25.4007 26.5052 24.9472C25.8203 24.1555 25.4635 23.2572 25.5231 22.2126C25.5341 22.0275 25.5251 21.8415 25.5251 21.6554C25.049 22.2194 24.6574 22.8018 24.2578 23.3784C24.0093 23.7379 23.6783 23.8319 23.3761 23.6419C23.0679 23.4501 23.0103 23.108 23.2479 22.7553C24.0291 21.5924 24.8124 20.4315 25.6036 19.2764C25.871 18.8859 26.3561 18.8733 26.6245 19.2629C27.4336 20.4354 28.2298 21.6176 29.021 22.8027C29.2258 23.1099 29.1483 23.4568 28.8709 23.6352C28.5827 23.8202 28.2507 23.7582 28.03 23.4462C27.6632 22.9297 27.3153 22.4006 26.9565 21.8783C26.8998 21.7959 26.8332 21.7213 26.7448 21.6108C26.6414 22.9878 26.7567 23.3609 27.5767 24.3774C27.692 24.5199 27.8083 24.6614 27.9137 24.8106C28.8163 26.082 28.8272 27.7555 27.9336 29.0346C27.7248 29.3341 27.4684 29.6015 27.2646 29.9038C27.0728 30.1897 26.9217 30.5017 26.7229 30.8535H30.515V30.5463C30.515 25.7699 30.512 20.9926 30.522 16.2162C30.522 15.9614 30.4096 15.8209 30.2327 15.6736C26.0857 12.216 21.9408 8.75658 17.8007 5.29131C17.5821 5.10816 17.4449 5.08685 17.2133 5.28065C13.0743 8.74786 8.92929 12.2073 4.77934 15.661C4.56066 15.8431 4.47915 16.0302 4.47915 16.3083C4.4871 21.012 4.48511 25.7166 4.48511 30.4203V30.8777V30.8758ZM33.832 14.7859C33.6093 14.5941 33.4274 14.4322 33.2405 14.2762C28.1354 10.0144 23.0302 5.75257 17.924 1.49269C17.431 1.08085 17.5632 1.08958 17.096 1.47913C12.46 5.34558 7.82595 9.21397 3.19291 13.0824C2.52594 13.6396 1.86095 14.1987 1.16714 14.7811C1.51305 15.1716 1.84604 15.5272 2.15319 15.9032C2.32515 16.1135 2.45437 16.0844 2.63727 15.9236C3.03288 15.5757 3.44241 15.2433 3.84696 14.9051C8.03866 11.4069 12.2304 7.90771 16.424 4.41143C17.2371 3.7331 17.7779 3.73795 18.591 4.4153C21.9358 7.20613 25.2786 9.99792 28.6224 12.7897C29.8659 13.8275 31.1074 14.8664 32.3519 15.9023C32.4772 16.0059 32.5984 16.1804 32.7823 15.972C33.1213 15.5883 33.4612 15.2055 33.834 14.7859H33.832ZM33.2306 32.0784H1.77845V33.812H33.2306V32.0784ZM5.97114 9.22463C6.823 8.51336 7.57745 7.8108 8.40942 7.21194C9.02372 6.76909 9.26725 6.27585 9.18972 5.54035C9.12212 4.89982 9.1758 4.24766 9.1758 3.59356H5.97114V9.22463Z" fill="currentColor"/>
</g></symbol><symbol id="icon-menu-arrow" viewBox="0 0 8 5">
  <path d="M4 4.2416C3.90433 4.2416 3.81178 4.22541 3.72233 4.19303C3.63241 4.16065 3.55755 4.11748 3.49776 4.06351L0.197309 1.08468C0.0657695 0.965961 0 0.814861 0 0.631382C0 0.447903 0.0657695 0.296803 0.197309 0.178082C0.328849 0.0593605 0.496263 0 0.699552 0C0.90284 0 1.07025 0.0593605 1.20179 0.178082L4 2.70361L6.79821 0.178082C6.92975 0.0593605 7.09716 0 7.30045 0C7.50374 0 7.67115 0.0593605 7.80269 0.178082C7.93423 0.296803 8 0.447903 8 0.631382C8 0.814861 7.93423 0.965961 7.80269 1.08468L4.50224 4.06351C4.43049 4.12827 4.35276 4.17403 4.26906 4.2008C4.18535 4.228 4.09566 4.2416 4 4.2416Z" fill="currentColor"/>
</symbol><symbol id="icon-money" viewBox="0 0 35 35"><g fill="none">
<g id="Group 366">
<g id="Vector">
<mask id="path-1-inside-1_215_11016" fill="white">
<path d="M13.6027 16.5228C13.6027 16.3938 13.6027 16.2609 13.6027 16.1271C13.6018 12.6138 13.6114 9.10156 13.5941 5.58833C13.5873 4.22694 14.2509 3.26225 15.2452 2.47869C16.4874 1.49923 17.9215 0.931247 19.4347 0.588684C23.4449 -0.31891 27.4117 -0.245082 31.283 1.28956C32.4374 1.74729 33.4877 2.39108 34.2747 3.40301C34.7463 4.00939 34.9903 4.69353 34.9893 5.47808C34.9835 13.0194 34.9652 20.5607 34.9999 28.102C35.0067 29.548 34.4406 30.6003 33.3729 31.4459C32.0719 32.4765 30.5645 33.0554 28.9789 33.4019C25.0748 34.2563 21.2161 34.1746 17.4412 32.7C17.3265 32.6557 17.1345 32.6399 17.0545 32.7069C15.7718 33.7858 14.2566 34.3252 12.6605 34.6372C9.75557 35.2062 6.86802 35.1324 4.02773 34.2268C2.98805 33.895 2.01107 33.4265 1.17779 32.6892C0.40141 32.0021 -0.010409 31.1713 0.00019994 30.0825C0.0310622 26.9631 0.0165955 23.8436 0.00405772 20.7241C0.000199936 19.8411 0.342578 19.1284 0.93957 18.5279C1.92813 17.5337 3.16069 16.9884 4.47041 16.6202C7.39557 15.7983 10.3381 15.7963 13.2883 16.4814C13.3587 16.4982 13.4272 16.5198 13.4986 16.5346C13.5208 16.5395 13.5458 16.5297 13.6018 16.5218L13.6027 16.5228ZM24.0487 9.66561C25.8879 9.66167 27.4888 9.49531 29.057 9.0868C30.4506 8.72356 31.8067 8.24516 32.9158 7.26669C33.2707 6.95366 33.589 6.55203 33.8021 6.12777C34.2226 5.29006 33.9304 4.35687 33.0874 3.56839C32.4037 2.92756 31.6012 2.47967 30.7361 2.16565C26.6671 0.686137 22.5644 0.665466 18.4491 1.94909C17.3274 2.29854 16.2714 2.80845 15.4169 3.6619C14.3319 4.74472 14.3367 5.95255 15.4169 7.04028C16.0438 7.67127 16.8018 8.09553 17.6062 8.43416C19.7395 9.33191 21.9818 9.6351 24.0487 9.6666V9.66561ZM33.9564 7.688C32.7528 8.84661 31.3495 9.49236 29.8431 9.92549C26.5977 10.8587 23.3157 10.9168 20.024 10.2484C18.0604 9.84969 16.2019 9.16752 14.6887 7.74411C14.6791 7.73427 14.6482 7.74805 14.6067 7.75395C14.6067 8.76786 14.6434 9.78669 14.5961 10.8016C14.5508 11.7663 14.9424 12.4799 15.6358 13.0696C16.4045 13.7232 17.2908 14.1642 18.233 14.4733C22.06 15.7294 25.9158 15.7589 29.7784 14.6662C30.9772 14.3276 32.1143 13.8266 33.0653 12.9711C33.4973 12.5823 33.913 12.1295 33.9391 11.534C33.994 10.2759 33.9554 9.01395 33.9554 7.68603L33.9564 7.688ZM9.19137 17.011C7.56435 17.0278 6.03667 17.1862 4.55238 17.6509C3.52332 17.9737 2.53476 18.3882 1.73427 19.155C0.766934 20.0823 0.753432 21.1149 1.75549 22.0028C2.22035 22.4143 2.76816 22.7549 3.32657 23.0246C4.76938 23.7205 6.32021 23.9932 7.9019 24.0956C10.0825 24.2363 12.2284 24.0552 14.3 23.2953C15.142 22.9862 15.9386 22.5816 16.5819 21.924C17.4355 21.0499 17.4711 20.0862 16.5819 19.2593C16.0765 18.7898 15.468 18.396 14.8459 18.1017C13.0328 17.2463 11.0836 17.0376 9.19137 17.01V17.011ZM14.6193 16.7659C15.4419 17.2748 16.2299 17.7168 16.9667 18.2336C17.53 18.6293 17.9524 19.1924 18.1154 19.8815C18.2003 20.2417 18.3796 20.3697 18.6912 20.4652C20.2536 20.9436 21.8449 21.231 23.4767 21.2763C25.9737 21.3452 28.4234 21.0863 30.7718 20.1581C31.7314 19.7791 32.6342 19.2967 33.3421 18.5063C33.7346 18.0673 33.9863 17.5672 33.9824 16.952C33.9767 15.8593 33.9825 14.7676 33.9805 13.675C33.9805 13.6346 33.9564 13.5933 33.9352 13.5263C33.0865 14.3443 32.1172 14.9035 31.0592 15.2962C27.4107 16.6537 23.6764 16.7639 19.9035 16.0001C17.9871 15.6122 16.1768 14.9379 14.6926 13.5647C14.682 13.5549 14.6521 13.5687 14.6212 13.5726V16.7649L14.6193 16.7659ZM18.2263 27.2298C18.2263 27.5419 18.2427 27.849 18.2234 28.1532C18.1472 29.361 18.4703 30.6062 17.8704 31.7698C19.4675 32.3929 21.0917 32.7689 22.7698 32.8673C25.4838 33.0258 28.1524 32.7866 30.7168 31.7934C31.6668 31.4252 32.5599 30.9488 33.2755 30.1869C33.7433 29.6888 34.0056 29.1119 33.9892 28.4002C33.967 27.4188 33.9844 26.4364 33.9824 25.454C33.9824 25.3556 33.9661 25.2561 33.9564 25.1548C33.5687 25.453 33.2283 25.7474 32.8569 25.9934C32.4847 26.2386 32.096 26.4679 31.6909 26.6481C28.2662 28.1679 24.6919 28.3815 21.0473 27.85C20.1128 27.7132 19.1956 27.4464 18.2263 27.2298ZM18.2446 21.4397C18.2388 21.4821 18.2282 21.5303 18.2282 21.5775C18.2273 23.0019 18.234 24.4263 18.2205 25.8497C18.2176 26.1096 18.3671 26.146 18.5407 26.2021C20.0018 26.6796 21.4977 26.9759 23.0302 27.0526C25.6487 27.1845 28.2199 26.9316 30.6918 25.9787C31.6311 25.6164 32.5146 25.1479 33.2331 24.4096C33.7288 23.9007 34.0056 23.3051 33.9892 22.5659C33.968 21.5962 33.9844 20.6256 33.9834 19.656C33.9834 19.5655 33.9709 19.4739 33.9699 19.4582C33.2398 19.9139 32.5454 20.4554 31.769 20.8127C28.2652 22.4231 24.5878 22.5914 20.8486 22.0264C19.9748 21.8945 19.1174 21.6396 18.2456 21.4397H18.2446ZM17.2136 27.8086C16.5115 28.2024 15.8441 28.6434 15.1256 28.9643C13.6568 29.6209 12.0915 29.8867 10.4992 29.992C8.26164 30.1406 6.05306 29.9752 3.90428 29.2744C2.87136 28.9377 1.90498 28.4583 1.01383 27.6689C1.01383 28.5449 1.03987 29.3374 1.00612 30.1278C0.976219 30.8405 1.25302 31.3859 1.74585 31.8485C2.38527 32.45 3.14236 32.8516 3.95732 33.1272C7.23933 34.2366 10.5455 34.2524 13.8564 33.2749C14.8787 32.9727 15.8605 32.5386 16.5954 31.7196C16.8732 31.4095 17.149 30.9813 17.1857 30.5846C17.2715 29.6494 17.2136 28.7005 17.2136 27.8077V27.8086ZM1.01383 22.7755C1.01383 23.6605 1.0283 24.507 1.00901 25.3526C0.995508 25.9629 1.22987 26.4453 1.64362 26.8577C2.19624 27.408 2.86171 27.7791 3.57637 28.0439C6.94228 29.2891 10.3506 29.3246 13.7812 28.3579C14.7244 28.0921 15.6175 27.6984 16.3832 27.0536C16.9417 26.5841 17.2715 26.0121 17.23 25.2384C17.1992 24.6636 17.2242 24.0847 17.2242 23.5079C17.2242 23.2707 17.2242 23.0334 17.2242 22.7214C16.1373 23.6871 14.9414 24.26 13.6442 24.5602C12.5004 24.825 11.3305 25.0563 10.1635 25.1154C6.91721 25.2788 3.7789 24.89 1.01383 22.7765V22.7755Z"/>
</mask>
<path d="M13.6027 16.5228C13.6027 16.3938 13.6027 16.2609 13.6027 16.1271C13.6018 12.6138 13.6114 9.10156 13.5941 5.58833C13.5873 4.22694 14.2509 3.26225 15.2452 2.47869C16.4874 1.49923 17.9215 0.931247 19.4347 0.588684C23.4449 -0.31891 27.4117 -0.245082 31.283 1.28956C32.4374 1.74729 33.4877 2.39108 34.2747 3.40301C34.7463 4.00939 34.9903 4.69353 34.9893 5.47808C34.9835 13.0194 34.9652 20.5607 34.9999 28.102C35.0067 29.548 34.4406 30.6003 33.3729 31.4459C32.0719 32.4765 30.5645 33.0554 28.9789 33.4019C25.0748 34.2563 21.2161 34.1746 17.4412 32.7C17.3265 32.6557 17.1345 32.6399 17.0545 32.7069C15.7718 33.7858 14.2566 34.3252 12.6605 34.6372C9.75557 35.2062 6.86802 35.1324 4.02773 34.2268C2.98805 33.895 2.01107 33.4265 1.17779 32.6892C0.40141 32.0021 -0.010409 31.1713 0.00019994 30.0825C0.0310622 26.9631 0.0165955 23.8436 0.00405772 20.7241C0.000199936 19.8411 0.342578 19.1284 0.93957 18.5279C1.92813 17.5337 3.16069 16.9884 4.47041 16.6202C7.39557 15.7983 10.3381 15.7963 13.2883 16.4814C13.3587 16.4982 13.4272 16.5198 13.4986 16.5346C13.5208 16.5395 13.5458 16.5297 13.6018 16.5218L13.6027 16.5228ZM24.0487 9.66561C25.8879 9.66167 27.4888 9.49531 29.057 9.0868C30.4506 8.72356 31.8067 8.24516 32.9158 7.26669C33.2707 6.95366 33.589 6.55203 33.8021 6.12777C34.2226 5.29006 33.9304 4.35687 33.0874 3.56839C32.4037 2.92756 31.6012 2.47967 30.7361 2.16565C26.6671 0.686137 22.5644 0.665466 18.4491 1.94909C17.3274 2.29854 16.2714 2.80845 15.4169 3.6619C14.3319 4.74472 14.3367 5.95255 15.4169 7.04028C16.0438 7.67127 16.8018 8.09553 17.6062 8.43416C19.7395 9.33191 21.9818 9.6351 24.0487 9.6666V9.66561ZM33.9564 7.688C32.7528 8.84661 31.3495 9.49236 29.8431 9.92549C26.5977 10.8587 23.3157 10.9168 20.024 10.2484C18.0604 9.84969 16.2019 9.16752 14.6887 7.74411C14.6791 7.73427 14.6482 7.74805 14.6067 7.75395C14.6067 8.76786 14.6434 9.78669 14.5961 10.8016C14.5508 11.7663 14.9424 12.4799 15.6358 13.0696C16.4045 13.7232 17.2908 14.1642 18.233 14.4733C22.06 15.7294 25.9158 15.7589 29.7784 14.6662C30.9772 14.3276 32.1143 13.8266 33.0653 12.9711C33.4973 12.5823 33.913 12.1295 33.9391 11.534C33.994 10.2759 33.9554 9.01395 33.9554 7.68603L33.9564 7.688ZM9.19137 17.011C7.56435 17.0278 6.03667 17.1862 4.55238 17.6509C3.52332 17.9737 2.53476 18.3882 1.73427 19.155C0.766934 20.0823 0.753432 21.1149 1.75549 22.0028C2.22035 22.4143 2.76816 22.7549 3.32657 23.0246C4.76938 23.7205 6.32021 23.9932 7.9019 24.0956C10.0825 24.2363 12.2284 24.0552 14.3 23.2953C15.142 22.9862 15.9386 22.5816 16.5819 21.924C17.4355 21.0499 17.4711 20.0862 16.5819 19.2593C16.0765 18.7898 15.468 18.396 14.8459 18.1017C13.0328 17.2463 11.0836 17.0376 9.19137 17.01V17.011ZM14.6193 16.7659C15.4419 17.2748 16.2299 17.7168 16.9667 18.2336C17.53 18.6293 17.9524 19.1924 18.1154 19.8815C18.2003 20.2417 18.3796 20.3697 18.6912 20.4652C20.2536 20.9436 21.8449 21.231 23.4767 21.2763C25.9737 21.3452 28.4234 21.0863 30.7718 20.1581C31.7314 19.7791 32.6342 19.2967 33.3421 18.5063C33.7346 18.0673 33.9863 17.5672 33.9824 16.952C33.9767 15.8593 33.9825 14.7676 33.9805 13.675C33.9805 13.6346 33.9564 13.5933 33.9352 13.5263C33.0865 14.3443 32.1172 14.9035 31.0592 15.2962C27.4107 16.6537 23.6764 16.7639 19.9035 16.0001C17.9871 15.6122 16.1768 14.9379 14.6926 13.5647C14.682 13.5549 14.6521 13.5687 14.6212 13.5726V16.7649L14.6193 16.7659ZM18.2263 27.2298C18.2263 27.5419 18.2427 27.849 18.2234 28.1532C18.1472 29.361 18.4703 30.6062 17.8704 31.7698C19.4675 32.3929 21.0917 32.7689 22.7698 32.8673C25.4838 33.0258 28.1524 32.7866 30.7168 31.7934C31.6668 31.4252 32.5599 30.9488 33.2755 30.1869C33.7433 29.6888 34.0056 29.1119 33.9892 28.4002C33.967 27.4188 33.9844 26.4364 33.9824 25.454C33.9824 25.3556 33.9661 25.2561 33.9564 25.1548C33.5687 25.453 33.2283 25.7474 32.8569 25.9934C32.4847 26.2386 32.096 26.4679 31.6909 26.6481C28.2662 28.1679 24.6919 28.3815 21.0473 27.85C20.1128 27.7132 19.1956 27.4464 18.2263 27.2298ZM18.2446 21.4397C18.2388 21.4821 18.2282 21.5303 18.2282 21.5775C18.2273 23.0019 18.234 24.4263 18.2205 25.8497C18.2176 26.1096 18.3671 26.146 18.5407 26.2021C20.0018 26.6796 21.4977 26.9759 23.0302 27.0526C25.6487 27.1845 28.2199 26.9316 30.6918 25.9787C31.6311 25.6164 32.5146 25.1479 33.2331 24.4096C33.7288 23.9007 34.0056 23.3051 33.9892 22.5659C33.968 21.5962 33.9844 20.6256 33.9834 19.656C33.9834 19.5655 33.9709 19.4739 33.9699 19.4582C33.2398 19.9139 32.5454 20.4554 31.769 20.8127C28.2652 22.4231 24.5878 22.5914 20.8486 22.0264C19.9748 21.8945 19.1174 21.6396 18.2456 21.4397H18.2446ZM17.2136 27.8086C16.5115 28.2024 15.8441 28.6434 15.1256 28.9643C13.6568 29.6209 12.0915 29.8867 10.4992 29.992C8.26164 30.1406 6.05306 29.9752 3.90428 29.2744C2.87136 28.9377 1.90498 28.4583 1.01383 27.6689C1.01383 28.5449 1.03987 29.3374 1.00612 30.1278C0.976219 30.8405 1.25302 31.3859 1.74585 31.8485C2.38527 32.45 3.14236 32.8516 3.95732 33.1272C7.23933 34.2366 10.5455 34.2524 13.8564 33.2749C14.8787 32.9727 15.8605 32.5386 16.5954 31.7196C16.8732 31.4095 17.149 30.9813 17.1857 30.5846C17.2715 29.6494 17.2136 28.7005 17.2136 27.8077V27.8086ZM1.01383 22.7755C1.01383 23.6605 1.0283 24.507 1.00901 25.3526C0.995508 25.9629 1.22987 26.4453 1.64362 26.8577C2.19624 27.408 2.86171 27.7791 3.57637 28.0439C6.94228 29.2891 10.3506 29.3246 13.7812 28.3579C14.7244 28.0921 15.6175 27.6984 16.3832 27.0536C16.9417 26.5841 17.2715 26.0121 17.23 25.2384C17.1992 24.6636 17.2242 24.0847 17.2242 23.5079C17.2242 23.2707 17.2242 23.0334 17.2242 22.7214C16.1373 23.6871 14.9414 24.26 13.6442 24.5602C12.5004 24.825 11.3305 25.0563 10.1635 25.1154C6.91721 25.2788 3.7789 24.89 1.01383 22.7765V22.7755Z" fill="currentColor" stroke="#9D15A0" stroke-width="0.3" mask="url(#path-1-inside-1_215_11016)"/>
</g>
</g>
</g></symbol><symbol id="icon-restaurant" viewBox="0 0 34 37"><g fill="none">
<path d="M4.35581 25.9749C4.46734 23.5205 4.5835 21.0652 4.68759 18.6108C4.73313 17.5216 4.3428 16.5839 3.58818 15.8125C1.87911 14.0654 1.08452 11.9362 1.02876 9.53574C0.974861 7.21796 1.01203 4.89924 1.01854 2.58053C1.02133 1.66699 1.65979 1.00715 2.51757 1.00343C3.38465 0.999716 4.02961 1.67349 4.03147 2.60191C4.03519 4.64182 4.0324 6.68266 4.03333 8.7235C4.03333 8.85082 4.02404 8.98278 4.05285 9.1036C4.12534 9.40006 4.31957 9.56176 4.63276 9.5376C4.93015 9.5153 5.08907 9.33315 5.13089 9.04784C5.14576 8.94561 5.13739 8.83966 5.13739 8.73558C5.13739 6.62597 5.13368 4.51543 5.14018 2.40581C5.14204 1.69765 5.61601 1.13912 6.2777 1.02945C6.94776 0.918863 7.58343 1.2683 7.80182 1.89932C7.87524 2.11307 7.90126 2.35284 7.90219 2.58053C7.90963 4.63252 7.90684 6.68451 7.90684 8.73651C7.90684 8.85267 7.8994 8.9707 7.91799 9.08315C7.9626 9.35638 8.12895 9.51809 8.40776 9.5376C8.7005 9.55805 8.90217 9.42143 8.9728 9.13427C9.00532 9.00137 9.00439 8.85825 9.00439 8.72071C9.00625 6.6808 8.99882 4.63996 9.00904 2.60005C9.01369 1.5471 9.81478 0.861244 10.8027 1.03503C11.5257 1.16235 12.0257 1.78594 12.0266 2.58425C12.0303 4.78679 12.0173 6.98934 12.0322 9.19189C12.0424 10.6668 11.7199 12.0626 11.1214 13.4009C10.7302 14.2763 10.207 15.0616 9.5239 15.741C8.67169 16.5885 8.29345 17.6108 8.35107 18.8208C8.56946 23.3941 8.7702 27.9684 8.9728 32.5426C8.99231 32.9924 9.03599 33.4515 8.9728 33.8929C8.78972 35.1801 7.63547 36.0862 6.36599 35.9905C5.03331 35.8892 4.00266 34.8399 4.03426 33.5156C4.07794 31.6616 4.18574 29.8094 4.26753 27.9572C4.29634 27.2974 4.32793 26.6375 4.3586 25.9768H4.35674L4.35581 25.9749ZM5.45337 25.8086C5.45337 25.8086 5.45058 25.8086 5.44965 25.8086C5.36973 27.592 5.28888 29.3754 5.20895 31.1588C5.1755 31.9116 5.13739 32.6643 5.11416 33.4171C5.09557 34.0305 5.35672 34.4998 5.91154 34.7693C6.45427 35.0332 6.97656 34.9505 7.43845 34.5695C7.83621 34.2405 7.95052 33.7972 7.92821 33.2916C7.70796 28.4507 7.49979 23.6097 7.27581 18.7697C7.2089 17.332 7.65592 16.0783 8.66611 15.0784C10.1177 13.6416 10.7962 11.8647 10.8854 9.89912C10.996 7.46888 10.9328 5.03121 10.943 2.59726C10.943 2.55079 10.9532 2.4876 10.9281 2.46157C10.8027 2.33147 10.6846 2.14095 10.5313 2.10285C10.3036 2.04616 10.1447 2.22366 10.0964 2.45414C10.0731 2.56566 10.0843 2.68462 10.0843 2.80079C10.0843 4.86486 10.0917 6.928 10.0806 8.99208C10.0741 10.1166 9.03413 10.8824 7.97654 10.5645C7.27396 10.3536 6.81672 9.71975 6.81486 8.92981C6.81021 6.80812 6.813 4.68642 6.81486 2.56473C6.81486 2.34819 6.82229 2.10564 6.53513 2.09727C6.21915 2.08891 6.2303 2.34912 6.23123 2.57495C6.23123 3.20133 6.23123 3.82678 6.23123 4.45316C6.23123 5.93732 6.23774 7.42148 6.22844 8.90565C6.22194 9.87309 5.57047 10.5887 4.68109 10.6352C3.71178 10.6863 2.96552 9.95023 2.9618 8.91215C2.95436 6.88339 2.95994 4.85464 2.95808 2.82495C2.95808 2.69763 2.99247 2.53964 2.93113 2.45042C2.83169 2.30544 2.66627 2.11307 2.52872 2.11214C2.38839 2.11214 2.22483 2.30173 2.11702 2.44299C2.05941 2.51826 2.09286 2.66696 2.09193 2.7822C2.091 4.61394 2.07985 6.44567 2.09658 8.27741C2.10308 8.95862 2.1384 9.64448 2.22204 10.3201C2.45066 12.1565 3.07611 13.8024 4.4376 15.1453C5.38274 16.0774 5.82418 17.2716 5.76935 18.6154C5.67084 21.0131 5.56024 23.4099 5.4543 25.8076L5.45337 25.8086Z" fill="#9D15A0" stroke="#9D15A0" stroke-width="0.2"/>
<path d="M25.3846 25.9228C25.4915 23.5957 25.5816 21.2686 25.7127 18.9425C25.7787 17.7678 25.5036 16.7111 24.6709 15.8831C23.3103 14.5309 22.5408 12.898 22.2193 11.0384C21.8178 8.71784 22.0436 6.46789 23.0817 4.3304C23.5482 3.36946 24.1746 2.5284 25.0389 1.88437C26.6783 0.662282 28.6448 0.707819 30.2237 2.01448C31.5545 3.11575 32.3054 4.57668 32.7013 6.22069C33.3723 9.00315 33.153 11.6982 31.719 14.2214C31.4254 14.7381 31.0341 15.2149 30.6205 15.6461C29.7367 16.568 29.3167 17.6191 29.3854 18.9127C29.5629 22.2454 29.6912 25.5808 29.839 28.9153C29.9068 30.4431 29.996 31.971 30.036 33.4997C30.0648 34.6149 29.3185 35.5796 28.2647 35.8909C26.5853 36.3863 24.9701 35.0963 25.051 33.3204C25.1541 31.063 25.2619 28.8056 25.3651 26.5482C25.3744 26.3401 25.366 26.131 25.366 25.9228C25.3725 25.9228 25.379 25.9228 25.3855 25.9228H25.3846ZM26.4822 25.7899C26.4822 25.7899 26.4794 25.7899 26.4775 25.7899C26.3651 28.3363 26.2452 30.8827 26.1448 33.43C26.1114 34.2757 26.7433 34.9179 27.5518 34.9142C28.3613 34.9105 28.9821 34.2646 28.9524 33.4207C28.9003 31.9505 28.8297 30.4803 28.7637 29.0101C28.6104 25.5836 28.4552 22.1571 28.2981 18.7315C28.2303 17.2409 28.7674 15.9909 29.8083 14.9463C30.3798 14.3729 30.8371 13.7233 31.1586 12.9826C32.0722 10.8767 32.1976 8.70483 31.6605 6.48834C31.3352 5.14823 30.7664 3.93079 29.7237 2.98564C28.4366 1.81932 26.8223 1.76448 25.5064 2.89085C25.0649 3.26816 24.6746 3.73748 24.3642 4.2291C23.5166 5.57479 23.1663 7.08126 23.1356 8.65929C23.0873 11.1202 23.6635 13.3478 25.4775 15.161C26.4441 16.1275 26.8586 17.3579 26.7935 18.7408C26.6829 21.0902 26.5853 23.4405 26.4822 25.7908V25.7899Z" fill="#9D15A0" stroke="#9D15A0" stroke-width="0.2"/>
<path d="M19.6936 17.8804C19.6936 23.1201 19.6946 28.3597 19.6927 33.5993C19.6927 34.6932 19.0756 35.5686 18.1026 35.8837C16.5822 36.3753 15.0441 35.2508 15.0683 33.643C15.0841 32.5771 15.1389 31.512 15.1882 30.4461C15.2681 28.6859 15.3545 26.9267 15.4475 25.1674C15.4586 24.9537 15.4019 24.8347 15.2049 24.7334C14.8034 24.528 14.3927 24.3254 14.033 24.0587C12.8295 23.1647 12.3407 21.9426 12.5228 20.4668C12.9438 17.0635 13.4745 13.6779 14.3304 10.3527C14.9057 8.11766 15.5999 5.92348 16.7485 3.90215C17.2615 3.00069 17.8628 2.16799 18.6732 1.50258C18.8944 1.32136 19.1193 1.19776 19.4 1.33344C19.6723 1.46541 19.6946 1.71819 19.6946 1.98584C19.6927 7.28311 19.6927 12.5813 19.6927 17.8786L19.6936 17.8804ZM18.6202 3.20607C18.571 3.1847 18.5208 3.16332 18.4715 3.14195C18.0385 3.90122 17.5608 4.63912 17.1816 5.42442C16.1947 7.46805 15.5971 9.6455 15.0859 11.8462C14.4112 14.7485 13.9549 17.688 13.5971 20.6443C13.4587 21.7902 13.8852 22.687 14.8583 23.3059C15.2384 23.5476 15.6389 23.7622 16.0469 23.9546C16.4326 24.1368 16.5859 24.3933 16.559 24.8301C16.4558 26.4954 16.3805 28.1627 16.3025 29.8299C16.243 31.092 16.1826 32.354 16.1445 33.617C16.1175 34.5213 16.9679 35.1374 17.7996 34.84C18.3433 34.6458 18.6221 34.1765 18.6221 33.4525C18.6221 23.4834 18.6221 13.5134 18.6221 3.54435C18.6221 3.4319 18.6221 3.31945 18.6221 3.207L18.6202 3.20607Z" fill="#9D15A0" stroke="#9D15A0" stroke-width="0.2"/>
</g></symbol><symbol id="icon-search" viewBox="0 0 18 18"><g fill="none">
  <path d="M17 16.9999L12.0962 12.0961M12.0962 12.0961C13.2725 10.9198 14 9.2948 14 7.49988C14 3.91003 11.0899 0.999878 7.5 0.999878C3.91015 0.999878 1 3.91003 1 7.49988C1 11.0897 3.91015 13.9999 7.5 13.9999C9.29493 13.9999 10.9199 13.2723 12.0962 12.0961Z" stroke="currentColor" stroke-width="1.8" stroke-linecap="round" stroke-linejoin="round"/>
</g></symbol><symbol id="icon-star" viewBox="0 0 46 46"><g fill="none">
<rect width="46" height="46" fill="#9D15A0"/>
<path d="M23 32.4107L29.7898 36.5173C31.0332 37.27 32.5548 36.1574 32.2276 34.7503L30.4279 27.0279L36.4323 21.825C37.5285 20.8761 36.9395 19.0764 35.4998 18.9618L27.5974 18.291L24.5052 10.9939C23.9489 9.66869 22.0511 9.66869 21.4948 10.9939L18.4026 18.2747L10.5002 18.9455C9.06047 19.06 8.47147 20.8597 9.56766 21.8087L15.5721 27.0115L13.7724 34.734C13.4452 36.141 14.9668 37.2536 16.2102 36.501L23 32.4107Z" fill="white"/>
</g></symbol><symbol id="icon-telegram" viewBox="0 0 26 26"><g fill="currentColor">
<g id="Group 203">
<rect id="Rectangle 137" width="26" height="26" fill="currentColor"/>
<path id="Vector" d="M19.8525 6.09375L4.7938 11.9007C3.7661 12.3134 3.77204 12.8867 4.60524 13.1424L8.47142 14.3484L17.4166 8.7046C17.8396 8.44726 18.226 8.5857 17.9084 8.86768L10.661 15.4084L10.3943 19.3944C10.785 19.3944 10.9574 19.2151 11.1766 19.0037L13.0544 17.1776L16.9605 20.0628C17.6808 20.4594 18.198 20.2556 18.3772 19.396L20.9414 7.31169C21.2038 6.25937 20.5396 5.78289 19.8525 6.09375Z" fill="white"/>
</g>
</g></symbol><symbol id="icon-vk" viewBox="0 0 26 26"><g fill="currentColor">
<rect width="26" height="26" fill="currentColor"/>
<path fill-rule="evenodd" clip-rule="evenodd" d="M21.5871 8.71099C21.7116 8.30149 21.5871 8 20.9909 8H19.0222C18.5212 8 18.2902 8.26024 18.165 8.54749C18.165 8.54749 17.1637 10.9444 15.7455 12.5014C15.2865 12.9529 15.078 13.0961 14.8275 13.0961C14.7023 13.0961 14.514 12.9529 14.514 12.5427V8.71099C14.514 8.219 14.376 8 13.959 8H10.8631C10.5504 8 10.3621 8.228 10.3621 8.44474C10.3621 8.91048 11.0716 9.01848 11.1444 10.3295V13.1779C11.1444 13.8026 11.0296 13.9159 10.7791 13.9159C10.1116 13.9159 8.48791 11.5077 7.52418 8.75223C7.33743 8.216 7.14843 8 6.64519 8H4.67499C4.1125 8 4 8.26024 4 8.54749C4 9.05898 4.66749 11.5999 7.10868 14.9606C8.73615 17.2556 11.0274 18.4998 13.1146 18.4998C14.3663 18.4998 14.5208 18.2238 14.5208 17.7475V16.0128C14.5208 15.4601 14.6393 15.3498 15.036 15.3498C15.3285 15.3498 15.8288 15.4938 16.9972 16.6001C18.3322 17.9118 18.5519 18.4998 19.3034 18.4998H21.2721C21.8346 18.4998 22.1166 18.2238 21.9546 17.6778C21.7761 17.1348 21.1386 16.3466 20.2934 15.4113C19.8344 14.8789 19.1459 14.3051 18.9367 14.0179C18.6449 13.6496 18.7282 13.4854 18.9367 13.1576C18.9367 13.1576 21.3366 9.83821 21.5864 8.71099H21.5871Z" fill="white"/>
</g></symbol><symbol id="logo" viewBox="0 0 592 264"><g fill="currentColor">
  <path d="M504.56,38.11C448.82,13.53,374.75,0,295.98,0C217.22,0,143.14,13.53,87.41,38.11
    C31.04,62.97,0,96.39,0,132.2c0,35.82,31.04,69.23,87.41,94.09c55.73,24.58,129.81,38.12,208.57,38.12
    c78.77,0,152.84-13.54,208.58-38.12c56.36-24.86,87.41-58.27,87.41-94.09C591.97,96.39,560.92,62.97,504.56,38.11z M488.55,223.27
    c-51.46,23.8-119.85,36.9-192.57,36.9c-72.71,0-141.1-13.1-192.56-36.9c-52.04-24.06-80.7-56.4-80.7-91.07s28.66-67.01,80.7-91.07
    C154.88,17.34,223.27,4.24,295.98,4.24c72.72,0,141.11,13.1,192.57,36.89c52.03,24.06,80.69,56.4,80.69,91.07
    S540.58,199.21,488.55,223.27z"/>

  <path d="M157.561,96.713c0.169-0.689,0.297-1.392,0.517-2.064c0.388-1.183,1.016-2.168,2.313-2.555
    c1.242-0.37,2.322-0.084,3.178,0.842c0.894,0.968,0.433,2.025-0.003,3.021c-0.415,0.947-1.03,1.829-1.292,2.811
    c-0.15,0.562,0.042,1.448,0.431,1.844c0.286,0.291,1.275,0.24,1.717-0.035c1.454-0.901,2.934-1.835,4.167-3.005
    c4.915-4.666,8.887-10.126,12.842-15.594c0.303-0.42,0.595-0.848,1.035-1.478c-1.496-0.121-2.825-0.329-4.151-0.311
    c-1.914,0.027-3.872,0.002-5.729,0.39c-2.915,0.61-4.065,2.318-3.996,5.275c0.012,0.514,0.187,1.141-0.593,1.19
    c-0.874,0.055-0.755-0.658-0.767-1.197c-0.092-4.072,2.126-6.699,6.202-6.936c2.994-0.174,6.012-0.005,9.015,0.123
    c0.761,0.033,1.152-0.156,1.553-0.751c8.717-12.948,16.638-26.35,23.181-40.542c0.128-0.277,0.512-0.578,0.808-0.613
    c1.628-0.196,3.264-0.336,4.9-0.45c1.097-0.076,1.647,0.474,1.598,1.59c-0.12,2.728-0.166,5.461-0.374,8.182
    c-0.399,5.241-0.866,10.477-1.348,15.712c-0.501,5.433-1.072,10.86-1.578,16.293c-0.584,6.272-1.134,12.547-1.686,18.822
    c-0.035,0.394,0.048,0.799,0.073,1.199c0.156,2.583,1.161,2.966,3.409,1.773c1.363-0.723,2.37-2.188,3.402-3.432
    c0.573-0.692,0.836-1.633,1.305-2.423c0.192-0.324,0.558-0.544,0.845-0.811c0.273,0.527,0.599,1.036,0.79,1.591
    c0.065,0.188-0.176,0.519-0.336,0.741c-1.858,2.579-4.098,4.727-7.032,6.047c-2.538,1.142-5.185,0.442-6.848-1.803
    c-1.821-2.458-2.365-5.333-2.433-8.287c-0.061-2.646,0.099-5.298,0.158-7.947c0.01-0.434,0.001-0.868,0.001-1.386
    c-3.1-0.335-6.159-0.674-9.221-0.994c-2.513-0.263-5.034-0.465-7.541-0.775c-0.857-0.106-1.299,0.212-1.756,0.871
    c-3.71,5.35-7.56,10.605-12.283,15.113c-1.898,1.811-4.019,3.484-6.286,4.79c-3.441,1.982-6.46,0.689-7.885-3.006
    c-0.082-0.213-0.199-0.412-0.299-0.618C157.561,97.517,157.561,97.115,157.561,96.713z M206.344,43.595
    c-6.114,12.32-12.75,24.207-20.411,35.725c5.784,0.585,11.333,1.146,16.774,1.696C203.924,68.486,205.126,56.125,206.344,43.595z
    "/>
  <path d="M325.491,138.506c-0.26-1.713-0.68-3.419-0.751-5.139c-0.221-5.359,2.284-9.376,6.493-12.45
    c4.131-3.017,8.884-4.497,13.805-5.607c1.693-0.382,3.315-0.504,4.96,0.055c1.036,0.352,1.71,0.892,1.527,2.196
    c-0.815,5.796-1.566,11.6-2.34,17.402c-0.053,0.393-0.115,0.785-0.172,1.178c0.129,0.111,0.259,0.221,0.388,0.332
    c0.22-0.371,0.381-0.797,0.669-1.105c5.085-5.435,10.442-10.577,16.475-14.964c3.12-2.268,6.359-4.373,10.217-5.166
    c1.947-0.4,3.911-0.344,5.769,0.54c1.197,0.57,1.926,1.451,1.789,2.839c-0.173,1.746-0.205,3.535-0.642,5.216
    c-0.486,1.871-2.166,2.639-3.681,2.084c-2.023-0.741-2.123-2.328-0.911-4.307c0.362-0.592,1.045-0.982,1.554-1.492
    c0.393-0.394,0.829-0.782,1.093-1.257c0.545-0.979,0.294-1.591-0.802-1.899c-1.631-0.457-3.245-0.327-4.821,0.335
    c-4.443,1.867-8.341,4.605-12.085,7.578c-5.457,4.334-10.384,9.23-15.07,14.375c-0.211,0.232-0.41,0.476-0.567,0.659
    c1.851,0,3.739-0.276,5.515,0.054c4.565,0.849,7.554,3.718,8.621,8.191c1.244,5.214,2.093,10.521,3.186,15.773
    c0.856,4.116,1.801,8.215,3.696,12.016c0.018,0.036,0.044,0.067,0.063,0.103c1.853,3.476,5.274,3.768,7.631,0.595
    c0.252-0.339,0.13-1.037,0.034-1.54c-0.448-2.331,0.984-4.159,3.273-4.118c2.284,0.042,3.421,2.148,2.331,4.166
    c-0.379,0.702-0.614,1.556-0.649,2.352c-0.047,1.088,0.722,1.689,1.733,1.301c1.131-0.434,2.395-0.938,3.174-1.799
    c2.445-2.698,5.012-5.373,6.943-8.429c3.933-6.226,7.522-12.672,11.144-19.089c0.558-0.988,0.533-2.305,0.848-3.803
    c2.044-0.078,4.228-0.208,6.413-0.224c1.026-0.007,1.201,0.86,1.147,1.651c-0.183,2.721-0.368,5.445-0.661,8.155
    c-0.678,6.258-1.449,12.507-2.108,18.767c-0.106,1.011,0.056,2.089,0.29,3.09c0.372,1.588,1.25,2.087,2.848,1.804
    c1.667-0.296,2.919-1.283,3.994-2.513c0.706-0.808,1.346-1.675,2.069-2.582c0.599,0.504,0.891,1.057,0.421,1.668
    c-1.836,2.385-3.862,4.525-7.07,4.979c-2.905,0.411-5.382-0.867-6.884-3.542c-1.419-2.527-1.87-5.305-1.837-8.119
    c0.056-4.777,0.315-9.552,0.487-14.328c0.008-0.22,0.001-0.441,0.001-1.025c-1.494,2.77-2.771,5.237-4.138,7.653
    c-2.908,5.142-6.062,10.124-10.11,14.465c-1.117,1.198-2.347,2.325-3.667,3.29c-2.902,2.119-6.338,2.847-9.026-0.852
    c-1.57,0.816-3.026,1.975-4.661,2.346c-4.56,1.035-8.72-0.945-11.209-4.952c-1.938-3.12-2.761-6.614-3.544-10.147
    c-1.306-5.896-2.671-11.781-4.156-17.634c-0.365-1.439-1.163-2.817-1.98-4.081c-1.193-1.845-2.311-2.15-4.401-1.642
    c-1.391,5.245-2.654,10.454-4.165,15.591c-1.768,6.011-4.031,11.836-7.742,16.969c-1.836,2.539-4.016,4.716-7.115,5.679
    c-0.832,0.259-1.722,0.413-2.592,0.45c-1.47,0.062-2.498-0.812-3.047-2.428c-0.805-2.371-0.533-4.787-0.083-7.147
    c1.567-8.223,5.902-14.977,11.423-21.074c0.162-0.179,0.31-0.38,0.501-0.52c2.714-1.969,3.667-4.814,4.297-7.967
    c1.506-7.538,3.198-15.039,4.811-22.555c0.04-0.187,0.027-0.385,0.05-0.774c-0.857,0.209-1.62,0.367-2.366,0.581
    c-4.023,1.153-7.938,2.547-11.248,5.233c-3.551,2.881-5.131,6.572-4.555,11.143c0.095,0.755,0.247,1.51,0.258,2.267
    c0.006,0.394-0.24,0.791-0.372,1.187C325.963,138.532,325.727,138.519,325.491,138.506z M337.494,150.258
    c-0.285,0.203-0.398,0.256-0.474,0.341c-0.776,0.865-1.576,1.71-2.313,2.607c-4.552,5.538-8.155,11.587-9.57,18.707
    c-0.343,1.727-0.25,3.568-0.139,5.343c0.035,0.555,0.701,1.336,1.24,1.51c0.449,0.145,1.34-0.295,1.678-0.745
    c0.881-1.173,1.715-2.428,2.305-3.766C333.586,166.616,335.407,158.502,337.494,150.258z"/>
  <path d="M323.724,69.13c0.605-2.019,0.89-2.266,2.688-2.26c1.162,0.003,2.323,0.129,3.485,0.151
    c0.95,0.018,1.16,0.53,1.02,1.341c-0.448,2.605-0.845,5.221-1.354,7.814c-1.033,5.265-2.126,10.518-3.189,15.777
    c-0.021,0.102,0.018,0.216,0.032,0.355c1.554-1.486,3.082-2.947,4.62-4.419c1.08,0.726,1.109,0.964,0.188,1.902
    c-1.07,1.089-2.089,2.233-3.215,3.261c-1.702,1.554-2.499,3.444-2.929,5.712c-1.655,8.734-3.342,17.467-5.297,26.137
    c-1.487,6.598-4.412,12.539-9.532,17.183c-0.679,0.616-1.434,1.167-2.216,1.644c-1.518,0.926-2.857,0.62-3.807-0.894
    c-1.399-2.231-1.622-4.748-1.563-7.297c0.182-7.973,2.933-15.114,7.204-21.724c1.565-2.423,3.208-4.813,5.014-7.057
    c1.476-1.834,2.392-3.71,2.668-6.113c0.442-3.853,1.303-7.657,1.982-11.483c0.042-0.234,0.039-0.476,0.076-0.978
    c-0.37,0.415-0.596,0.654-0.806,0.906c-3.379,4.062-7.074,7.788-11.535,10.673c-0.968,0.626-2.022,1.155-3.097,1.57
    c-2.857,1.104-5.27,0.07-6.53-2.707c-0.131-0.29-0.244-0.588-0.381-0.92c-1.067,0.914-2.041,1.906-3.164,2.682
    c-4.239,2.932-9.976,1.083-11.531-3.832c-0.665-2.101-0.785-4.375-1.159-6.609c-0.221,0.248-0.571,0.641-0.923,1.032
    c-3.294,3.648-6.783,7.076-11.107,9.512c-1.358,0.765-2.776,1.486-4.429,1.233c-2.624-0.4-4.245-2.384-4.673-5.489
    c-0.689-5.005,0.723-9.545,3.123-13.809c3.698-6.569,8.789-11.721,15.809-14.744c1.014-0.437,2.132-0.685,3.228-0.867
    c1.8-0.299,3.333,0.235,4.317,1.698c0.534-0.566,0.998-1.511,1.591-1.6c1.676-0.252,3.508-0.605,5.015,0.474
    c0.475,0.34,0.768,1.376,0.66,2.012c-0.416,2.442-0.966,4.866-1.58,7.267c-1.219,4.769-2.555,9.507-3.76,14.279
    c-0.61,2.418-0.402,4.864,0.287,7.247c0.551,1.905,1.579,2.345,3.372,1.499c1.88-0.886,3.147-2.448,4.328-4.085
    c0.104-0.144,0.139-0.372,0.131-0.558c-0.278-6.434,2.292-11.876,6.023-16.849c3.472-4.627,7.733-8.349,13.16-10.575
    c0.626-0.257,1.288-0.443,1.948-0.6C320.205,66.48,322.329,66.49,323.724,69.13z M303.43,92.206c0,0.602-0.038,1.207,0.006,1.806
    c0.226,3.065,2.788,4.411,5.384,2.787c0.875-0.548,1.758-1.189,2.402-1.98c2.934-3.603,5.793-7.268,8.653-10.93
    c0.407-0.521,0.862-1.118,0.972-1.737c0.668-3.762,1.27-7.537,1.831-11.317c0.175-1.181-0.417-2.043-1.617-2.081
    c-1.362-0.043-2.825,0.047-4.087,0.509c-3.612,1.322-6.316,3.912-8.61,6.91C304.751,80.894,303.732,86.452,303.43,92.206z
      M266.491,92.651c0.132,0.681,0.218,1.691,0.531,2.625c0.652,1.951,2.769,2.812,4.581,1.826c0.972-0.529,1.948-1.195,2.666-2.021
    c2.547-2.933,5.013-5.939,7.44-8.973c0.53-0.663,0.877-1.524,1.127-2.349c0.627-2.065,1.209-4.149,1.699-6.25
    c0.516-2.215,0.971-4.449,1.321-6.695c0.203-1.299-0.269-1.984-1.565-2.08c-1.238-0.092-2.575,0.021-3.749,0.407
    c-3.17,1.043-5.594,3.216-7.806,5.638C268.192,79.755,267.116,85.95,266.491,92.651z M316.724,106.663
    c-0.241,0.194-0.349,0.248-0.41,0.335c-3.295,4.643-6.579,9.303-8.691,14.636c-2.313,5.841-3.614,11.874-2.994,18.207
    c0.163,1.663,0.818,2.798,1.771,2.84c1.327,0.058,2.012-0.98,2.462-1.979c0.932-2.074,1.965-4.162,2.472-6.356
    c1.578-6.82,2.967-13.685,4.349-20.549C316.145,111.5,316.367,109.155,316.724,106.663z"/>
  <path d="M132.714,152.489c-2.159-1.629-3.993-3.529-5.164-5.962
    c-2.922-6.07-2.069-11.816,1.596-17.283c4.414-6.584,10.514-10.651,18.285-12.228c0.377-0.077,0.713-0.386,1.053-0.609
    c0.614-0.403,1.195-1.131,1.83-1.178c1.859-0.138,3.74-0.052,5.605,0.059c0.358,0.021,0.684,0.56,1.126,0.949
    c2.925,0.719,6.2,1.217,9.249,2.335c7.9,2.897,12.362,8.882,13.706,17.015c2.415,14.615-2.476,26.799-13.24,36.643
    c-5.641,5.159-12.518,7.68-20.185,8.271c-4.793,0.37-9.092-0.877-13.335-2.837c-1.955-0.903-4.035-1.533-6.029-2.356
    c-0.698-0.288-1.083-0.095-1.546,0.416c-2.517,2.78-5.249,5.313-8.601,7.077c-2.27,1.195-4.671,1.891-7.27,1.752
    c-2.896-0.155-4.726-3.09-3.304-5.607c2.279-4.034,5.807-6.193,10.502-6.293c1.313-0.028,2.857,0.401,3.875-0.152
    c1.029-0.56,1.601-2.04,2.263-3.182c3.152-5.44,6.267-10.901,9.391-16.356C132.596,152.832,132.636,152.682,132.714,152.489z
      M127.621,173.655c3.677,1.402,7.368,2.803,11.054,4.217c2.436,0.935,4.979,1.507,7.537,1.006
    c3.009-0.589,6.065-1.241,8.896-2.375c10.028-4.016,16.666-11.114,18.09-22.072c0.997-7.668,0.474-15.385-1.261-22.964
    c-0.779-3.402-2.09-6.582-4.558-9.131c-3.015-3.113-6.905-4.169-11.149-4.516c-3.898,12.408-9.547,24.037-15.516,35.587
    c0.313,0.118,0.49,0.219,0.678,0.25c3.732,0.62,7.441,0.345,11.09-0.514c1.076-0.254,1.658-0.053,2.138,0.962
    c-4.44,1.713-9.012,2.16-13.691,1.568c-0.898-0.114-1.391-0.014-1.904,0.85c-2.288,3.856-4.617,7.692-7.072,11.443
    C130.624,169.996,129.013,171.844,127.621,173.655z M147.973,118.68c-0.145-0.114-0.29-0.228-0.435-0.343
    c-7.597,1.841-12.661,6.51-15.215,13.925c-1.987,5.77-1.115,11.113,2.388,16.023c0.141,0.028,0.282,0.057,0.422,0.085
    C139.414,138.473,143.693,128.576,147.973,118.68z M120.115,173.852c-1.483,0-2.565-0.017-3.645,0.003
    c-3.667,0.067-7.477,3.13-8.323,6.675c-0.385,1.614,0.588,2.743,2.216,2.462c0.73-0.126,1.501-0.373,2.11-0.78
    C115.59,180.126,117.664,177.081,120.115,173.852z"/>
  <path d="M283.104,175.725c2.035,0.252,3.193,1.418,3.785,2.94c1.051,2.703,1.859,5.501,2.762,8.239
    c2.595-2.218,5.435-4.646,8.274-7.072c0.88,0.764,0.827,1.307,0.106,1.901c-2.539,2.094-5.045,4.227-7.595,6.308
    c-0.552,0.451-0.788,0.892-0.716,1.62c0.531,5.344,0.385,10.678-0.704,15.937c-2.223,10.736-7.649,19.366-17.077,25.235
    c-1.314,0.818-2.766,1.444-4.214,2.005c-1.386,0.537-2.558,0.219-3.197-1.085c-0.649-1.325-1.237-2.848-1.244-4.288
    c-0.025-5.443,1.789-10.436,4.146-15.276c2.843-5.838,7.2-10.488,11.619-15.1c1-1.044,1.957-2.15,3.072-3.059
    c0.923-0.752,1.212-1.586,1.107-2.704c-0.333-3.547-0.578-7.103-0.98-10.641c-0.099-0.873-0.57-1.751-1.04-2.523
    c-0.483-0.792-1.089-1.098-2.03-0.29c-3.055,2.621-7.014,2.764-10.04,0.438c-1.817-1.397-2.645-3.397-2.996-5.576
    c-0.247-1.528-0.282-3.089-0.426-4.807c-0.401,0.45-0.753,0.85-1.111,1.246c-3.102,3.439-6.37,6.708-10.399,9.058
    c-1.319,0.769-2.827,1.47-4.314,1.641c-2.884,0.331-5.008-2.04-5.48-5.498c-0.665-4.875,0.665-9.317,2.965-13.489
    c3.7-6.713,8.856-11.958,15.988-15.056c0.765-0.332,1.581-0.585,2.399-0.747c2.046-0.405,3.936-0.212,5.371,1.958
    c0.159-2.088,1.503-2.171,2.924-2.127c0.722,0.023,1.453-0.014,2.164,0.085c1.485,0.207,2.213,0.992,1.961,2.471
    c-0.423,2.481-0.989,4.942-1.611,7.382c-1.216,4.769-2.555,9.506-3.756,14.278c-0.609,2.417-0.398,4.864,0.293,7.245
    c0.538,1.854,1.55,2.337,3.269,1.521c0.915-0.435,2.09-0.758,1.984-2.214c-0.016-0.218,0.366-0.496,0.606-0.697
    c2.484-2.077,5.034-4.078,7.453-6.227c3.793-3.37,7.254-7.047,9.882-11.435c1.398-2.335,2.355-4.812,2.526-7.552
    c0.025-0.395,0.006-0.806-0.073-1.192c-0.311-1.511-0.9-2.02-2.343-1.554c-2.42,0.782-4.874,1.585-7.119,2.754
    c-2.69,1.401-5.176,3.195-7.749,4.821c-0.135,0.085-0.251,0.256-0.389,0.271c-0.433,0.047-0.871,0.039-1.308,0.052
    c0.141-0.356,0.176-0.863,0.438-1.046c2.886-2.013,5.678-4.217,8.762-5.872c2.354-1.263,5.034-2.137,7.671-2.606
    c4.117-0.732,6.77,1.279,6.724,5.764c-0.02,1.895-0.336,3.844-0.869,5.666c-1.78,6.078-5.701,10.63-10.839,14.12
    c-2.37,1.61-5.015,2.813-7.536,4.199C283.924,175.301,283.644,175.442,283.104,175.725z M250.642,170.833
    c0.125,0.652,0.211,1.619,0.504,2.519c0.679,2.085,2.822,2.935,4.732,1.851c0.93-0.528,1.868-1.167,2.559-1.967
    c2.541-2.939,5.008-5.943,7.433-8.978c0.53-0.663,0.875-1.525,1.124-2.35c0.613-2.028,1.177-4.075,1.656-6.138
    c0.523-2.254,0.996-4.524,1.358-6.809c0.203-1.281-0.285-1.96-1.589-2.065c-1.2-0.096-2.499,0.003-3.637,0.376
    c-3.212,1.052-5.673,3.238-7.911,5.693C252.333,157.946,251.265,164.143,250.642,170.833z M282.737,195.366
    c-1.973,2.109-3.965,4.2-5.916,6.33c-5.345,5.834-9.211,12.488-11.032,20.237c-0.587,2.495-1.132,5.018-0.636,7.613
    c0.347,1.815,1.582,2.416,3.002,1.271c1.199-0.967,2.339-2.108,3.197-3.379c4.769-7.063,7.979-14.857,10.393-22.988
    C282.607,201.543,283.019,198.537,282.737,195.366z"/>
  <path d="M386.178,99.368c0.542-0.8,1.233-1.537,1.602-2.409c1.747-4.123,3.424-8.276,5.086-12.434
    c0.579-1.447,0.974-2.969,1.573-4.407c1.348-3.24,1.951-6.582,1.644-10.085c-0.042-0.477-0.003-0.964,0.024-1.445
    c0.05-0.885,0.444-1.429,1.417-1.391c1.322,0.051,2.659-0.011,3.965,0.159c1.655,0.215,2.246,1.007,2.23,2.716
    c-0.054,5.663-0.222,11.327-0.156,16.989c0.046,3.886,0.31,7.777,0.668,11.648c0.216,2.326,0.903,2.554,3.014,1.405
    c2.024-1.102,3.186-2.99,4.379-4.903c0.83,0.144,1.245,0.466,0.839,1.372c-1.436,3.206-5.397,6.824-10.367,5.442
    c-2.528-0.703-4.02-2.522-4.634-4.926c-0.652-2.548-1.058-5.168-1.422-7.778c-0.246-1.764-0.235-3.563-0.351-5.549
    c-0.931,2.439-1.65,4.769-2.693,6.943c-1.398,2.913-2.811,5.869-4.643,8.513c-3.101,4.475-7.045,4.024-9.523-0.844
    c-1.243-2.442-1.833-5.038-1.824-7.762c0.006-2.048,0.127-4.095,0.155-6.143c0.029-2.044,0.006-4.09,0.006-6.071
    c-0.279,0.593-0.622,1.319-0.961,2.047c-2.767,5.93-5.74,11.744-9.972,16.797c-0.973,1.161-2.077,2.247-3.262,3.19
    c-3.759,2.994-6.724,2.625-9.633-1.113c-1.091,0.552-2.147,1.22-3.294,1.643c-5.353,1.975-12.975,0.144-15.108-7.299
    c-2.574-8.984-0.74-16.977,5.947-23.656c1.765-1.763,3.944-2.825,6.505-3.055c2.501-0.225,4.512,1.301,4.78,3.795
    c0.258,2.399-0.635,4.487-1.871,6.445c-2.101,3.329-4.967,5.863-8.382,7.776c-0.727,0.407-0.997,0.864-0.897,1.707
    c0.431,3.647,1.315,7.162,2.952,10.46c0.335,0.675,0.784,1.312,1.274,1.887c0.543,0.638,1.21,1,2.126,0.613
    c1.394-0.59,2.813-1.123,4.234-1.645c0.833-0.306,1.101-0.797,1.056-1.722c-0.106-2.204,1.357-3.573,3.503-3.454
    c2.365,0.131,3.384,2.075,2.086,4.04c-0.577,0.873-0.974,1.744-0.592,2.802c0.301,0.833,0.852,1.196,1.756,1.017
    c1.589-0.315,2.706-1.35,3.743-2.47c3.359-3.628,5.757-7.906,7.953-12.274c2.281-4.537,4.356-9.181,6.42-13.822
    c0.441-0.991,0.508-2.168,0.633-3.273c0.119-1.06,0.561-1.578,1.675-1.549c1.482,0.038,2.966-0.006,4.448-0.022
    c1.073-0.012,1.509,0.339,1.445,1.573c-0.407,7.817-0.76,15.638-1.022,23.461c-0.062,1.868,0.261,3.754,0.477,5.623
    c0.054,0.468,0.382,0.905,0.584,1.356C385.906,99.312,386.042,99.34,386.178,99.368z M340.59,84.126
    c2.67-1.811,4.941-3.609,6.817-5.887c1.498-1.819,2.692-3.789,3.18-6.121c0.285-1.364-0.043-2.627-1.161-3.456
    c-1.069-0.793-2.361-0.603-3.391,0.086c-0.941,0.629-1.868,1.433-2.483,2.368C341.02,74.964,340.706,79.362,340.59,84.126z"/>
  <path d="M447.857,170.422c1.429-1.505,2.858-3.011,4.273-4.502c1.226,0.85,1.23,1,0.331,1.938
    c-1.529,1.595-3.096,3.159-4.52,4.844c-0.583,0.691-1.025,1.622-1.209,2.51c-1.9,9.174-3.642,18.382-5.619,27.539
    c-1.376,6.375-4.106,12.134-8.836,16.779c-0.854,0.838-1.819,1.584-2.811,2.256c-1.601,1.085-3.031,0.754-4.059-0.924
    c-1.356-2.215-1.512-4.707-1.43-7.207c0.303-9.171,3.709-17.21,9.069-24.514c1.495-2.037,3.115-3.988,4.515-6.087
    c0.587-0.88,0.898-2.019,1.08-3.083c0.905-5.286,1.726-10.586,2.604-16.053c-0.563,1.217-1.052,2.317-1.577,3.398
    c-1.717,3.536-3.46,7.059-6.069,10.057c-3.4,3.905-7.053,3.43-9.331-1.23c-1.051-2.148-1.793-4.417-1.681-6.821
    c0.351-7.576,0.8-15.147,1.196-22.721c0.056-1.059,0.528-1.59,1.618-1.554c1.601,0.054,3.203,0.067,4.803,0.126
    c0.865,0.032,1.126,0.527,1.067,1.368c-0.301,4.285-0.704,8.57-0.803,12.86c-0.118,5.129,0.012,10.264,0.099,15.396
    c0.012,0.684,0.404,1.361,0.62,2.041c0.15,0.017,0.3,0.034,0.451,0.051c0.485-0.609,1.099-1.155,1.434-1.838
    c1.852-3.769,3.759-7.519,5.414-11.375c2.16-5.034,4.15-10.143,6.123-15.255c1.457-3.777,1.537-3.888,5.717-3.369
    c2.082,0.258,2.127,0.267,1.729,2.345c-1.401,7.314-2.835,14.622-4.255,21.932c-0.067,0.346-0.122,0.694-0.182,1.041
    C447.697,170.387,447.777,170.405,447.857,170.422z M437.975,185.171c-0.127-0.031-0.254-0.061-0.381-0.092
    c-0.625,0.874-1.243,1.752-1.875,2.62c-5.484,7.525-9.165,15.769-9.851,25.158c-0.148,2.023,0.003,4.078,0.148,6.108
    c0.064,0.902,0.612,1.855,1.59,1.839c0.655-0.01,1.555-0.547,1.899-1.118c0.88-1.459,1.658-3.017,2.214-4.626
    c2.335-6.756,3.623-13.767,4.847-20.785C437.094,191.25,437.509,188.206,437.975,185.171z"/>
  <path d="M212.146,173.793c3.07-3.106,6.255-6.11,9.151-9.37c1.066-1.2,1.404-3.027,2.159-4.526
    c2.471-4.909,5.586-9.337,10.409-12.177c1.891-1.113,4.077-1.866,6.225-2.366c2.99-0.695,5.001,1.099,5.092,4.166
    c0.09,3.02-0.771,5.694-2.926,7.881c-0.223,0.227-0.474,0.435-0.74,0.609c-1.276,0.835-2.435,0.789-3.11-0.107
    c-0.773-1.025-0.51-2.903,0.605-3.667c0.686-0.47,1.489-0.769,2.238-1.149c1.711-0.868,2.489-2.359,2.227-4.253
    c-0.133-0.963-0.742-1.664-1.635-1.638c-1.407,0.04-2.912,0.115-4.187,0.638c-3.025,1.24-5.162,3.637-7.006,6.251
    c-4.129,5.852-5.591,12.324-4.284,19.388c0.101,0.546,0.295,1.082,0.5,1.601c1.316,3.333,4.089,4.291,7.009,2.21
    c1.442-1.028,2.658-2.421,3.808-3.79c0.639-0.761,1.054-1.003,1.76-0.234c-2.606,5.003-8.057,7.869-13.586,7.141
    c-3.017-0.397-5.449-2.897-5.766-6.203c-0.182-1.891-0.033-3.813-0.033-5.754c-0.534,0.563-1.129,1.241-1.776,1.864
    c-2.572,2.478-5.167,4.931-7.735,7.413c-0.335,0.324-0.517,0.805-0.85,1.13c-0.542,0.53-1.095,1.306-1.743,1.421
    c-1.713,0.303-3.48,0.307-5.505,0.45c2.25-7.548,4.4-14.76,6.55-21.971c-0.055-0.034-0.11-0.069-0.166-0.103
    c-1.3,1.621-2.537,3.298-3.915,4.849c-2.371,2.669-4.766,5.322-7.271,7.863c-1.991,2.02-4.111,3.923-6.266,5.77
    c-1.944,1.666-4.232,2.725-6.759,3.224c-3.016,0.595-4.802-0.5-5.541-3.481c-0.517-2.086-0.44-4.144,0.703-6.046
    c0.646-1.075,1.545-1.822,2.839-2.009c0.996-0.144,1.935-0.158,2.496,0.889c0.492,0.917,0.259,2.344-0.658,3.058
    c-0.748,0.583-1.649,0.969-2.479,1.447c-1.189,0.686-1.582,1.566-1.17,2.816c0.358,1.086,1.069,1.771,2.31,1.71
    c2.181-0.107,4.04-1.05,5.648-2.411c5.068-4.289,8.242-9.627,8.907-16.348c0.275-2.775,0.438-5.526-0.34-8.241
    c-1.18-4.113-3.606-5.314-7.555-3.582c-1.555,0.682-2.948,1.737-4.603,2.736c-0.117-0.066-0.481-0.273-1.006-0.57
    c2.853-2.707,5.934-4.571,9.789-4.827c1.191-0.079,2.423-0.048,3.594,0.164c4.433,0.806,6.407,3.422,6.259,7.94
    c-0.135,4.116-1.221,7.967-2.902,11.761c0.121-0.1,0.248-0.195,0.362-0.303c0.145-0.138,0.289-0.28,0.418-0.433
    c2.174-2.577,4.314-5.184,6.525-7.729c2.456-2.825,3.364-6.321,4.337-9.783c0.266-0.945,0.722-1.488,1.679-1.526
    c1.477-0.06,2.961-0.161,4.432-0.068c1.142,0.072,1.444,0.702,1.092,2.148c-0.634,2.604-1.242,5.221-2.047,7.774
    c-1.791,5.685-3.698,11.333-5.553,16.998c-0.121,0.368-0.2,0.75-0.299,1.125C211.954,173.641,212.05,173.717,212.146,173.793z"/>
  <path d="M481.97,147.136c-0.105-2.895-0.351-5.741-0.286-8.581
    c0.271-11.736,6.94-20.918,19.524-23.268c5.311-0.992,10.619-0.783,15.952-0.32c1.865,0.162,3.75,0.131,5.625,0.12
    c0.406-0.002,0.823-0.27,1.212-0.463c0.649-0.324,0.885-0.8,0.414-1.455c-0.483-0.671-0.414-1.409,0.211-1.801
    c0.587-0.368,1.441-0.649,2.063-0.498c0.378,0.092,0.732,1.066,0.76,1.659c0.064,1.348-0.842,2.178-1.922,2.821
    c-2.165,1.288-4.606,1.264-6.994,1.407c-8.554,0.511-16.734,2.396-24.149,6.833c-5.195,3.109-9.231,7.296-10.329,13.508
    c-0.448,2.536-0.289,5.186-0.335,7.786c-0.074,4.251,0.406,8.579-0.233,12.739c-1.253,8.159-4.996,15.174-11.484,20.504
    c-4.139,3.401-9.164,2.834-12.128,0.535c-2.41-1.869-3.296-4.549-3.759-7.42c-2.024-12.54,8.198-23.02,18.124-25.426
    C477.589,145.004,479.3,145.325,481.97,147.136z M462.966,173.316c0.085,0.667,0.156,1.834,0.394,2.965
    c0.435,2.065,1.73,2.954,3.679,2.24c1.54-0.564,3.1-1.372,4.325-2.444c5.787-5.065,9.266-11.47,10.485-19.065
    c0.428-2.669,0.52-5.352-0.625-7.913c-0.826-1.85-2.547-2.729-4.421-2.01c-1.244,0.477-2.459,1.186-3.491,2.031
    c-3.028,2.479-5.132,5.7-6.887,9.155C464.105,162.845,462.757,167.654,462.966,173.316z"/>
  <path d="M233.748,83.938c3.875-0.385,7.117,0.331,9.72,2.811c1.618,1.542,3.153,3.203,4.517,4.972
    c1.613,2.091,3.019,4.344,4.482,6.548c1.561,2.352,2.773,2.516,4.87,0.084c0.586-0.68,0.953-1.55,1.468-2.412
    c0.325,0.13,0.677,0.271,1.173,0.47c-1.268,2.509-2.395,5.199-5.323,5.737c-3.201,0.588-6.391,0.395-8.666-2.7
    c-2.042-2.778-4.242-5.448-6.511-8.045c-1.177-1.347-2.601-2.498-4.017-3.604c-0.66-0.516-1.568-0.715-2.565-1.144
    c-0.388,1.66-0.676,3.134-1.082,4.575c-0.844,3.001-1.74,5.987-2.635,8.973c-0.439,1.467-1.472,2.11-2.986,2.078
    c-1.316-0.027-2.633-0.006-4.023-0.006c0.821-4.47,1.614-8.801,2.412-13.131c1.263-6.853,2.552-13.701,3.765-20.563
    c0.145-0.821,0.53-1.159,1.21-1.191c1.598-0.074,3.202-0.117,4.801-0.066c0.963,0.031,1.434,0.667,1.307,1.64
    c-0.423,3.218-0.86,6.434-1.302,9.65c-0.098,0.71-0.24,1.413-0.397,2.327c1.75-2.127,3.311-4.14,4.994-6.045
    c2.586-2.926,5.326-5.689,9.013-7.262c1.541-0.658,3.128-0.688,4.722-0.29c2.455,0.613,3.976,2.675,3.921,5.376
    c-0.034,1.685-0.583,3.235-1.677,4.541c-1.233,1.472-3.302,1.539-4.676,0.189c-1.744-1.713-1.627-3.955,0.247-5.485
    c0.746-0.609,2.01-1.218,1.367-2.299c-0.254-0.427-1.959-0.44-2.686-0.05c-2.029,1.089-4.026,2.325-5.791,3.796
    C239.819,76.398,236.855,79.987,233.748,83.938z"/>
</g></symbol><symbol id="play-btn" viewBox="0 0 68 48">
  <path class="ytp-large-play-button-bg" d="M66.52,7.74c-0.78-2.93-2.49-5.41-5.42-6.19C55.79,.13,34,0,34,0S12.21,.13,6.9,1.55 C3.97,2.33,2.27,4.81,1.48,7.74C0.06,13.05,0,24,0,24s0.06,10.95,1.48,16.26c0.78,2.93,2.49,5.41,5.42,6.19 C12.21,47.87,34,48,34,48s21.79-0.13,27.1-1.55c2.93-0.78,4.64-3.26,5.42-6.19C67.94,34.95,68,24,68,24S67.94,13.05,66.52,7.74z" fill="#f00"/>
  <path d="M 45,24 27,14 27,34" fill="#fff"/>
</symbol></svg>