<?xml version="1.0" standalone="no"?>
<!DOCTYPE svg PUBLIC "-//W3C//DTD SVG 20010904//EN"
 "http://www.w3.org/TR/2001/REC-SVG-20010904/DTD/svg10.dtd">
<svg version="1.0" xmlns="http://www.w3.org/2000/svg"
 width="1184.000000pt" height="1184.000000pt" viewBox="0 0 1184.000000 1184.000000"
 preserveAspectRatio="xMidYMid meet">
<metadata>
Created by potrace 1.14, written by Peter Selinger 2001-2017
</metadata>
<g transform="translate(0.000000,1184.000000) scale(0.100000,-0.100000)"
fill="#000000" stroke="none">
<path d="M5459 8555 c-2 -1 -74 -6 -159 -10 -85 -4 -177 -9 -205 -10 -145 -9
-244 -16 -275 -19 -19 -2 -68 -7 -109 -11 -90 -8 -140 -13 -206 -20 -27 -3
-66 -7 -85 -9 -65 -7 -155 -17 -180 -22 -14 -2 -45 -7 -70 -10 -40 -4 -88 -11
-200 -29 -19 -3 -51 -8 -70 -11 -46 -6 -63 -9 -135 -22 -33 -6 -73 -14 -90
-17 -16 -2 -41 -7 -55 -10 -14 -3 -41 -8 -60 -11 -19 -3 -84 -16 -145 -29 -60
-13 -123 -27 -140 -30 -16 -3 -41 -8 -55 -11 -14 -3 -29 -7 -35 -8 -5 -1 -19
-5 -30 -9 -11 -3 -32 -8 -46 -11 -36 -6 -364 -92 -424 -111 -27 -9 -59 -18
-71 -20 -21 -5 -348 -111 -374 -122 -8 -3 -17 -7 -20 -7 -5 -1 -60 -22 -95
-36 -11 -5 -63 -25 -115 -45 -52 -21 -106 -42 -120 -48 -14 -5 -29 -11 -35
-13 -42 -10 -435 -199 -543 -260 -98 -56 -307 -183 -331 -201 -9 -7 -52 -37
-96 -69 -186 -131 -391 -315 -493 -443 -20 -25 -42 -50 -48 -56 -32 -29 -145
-204 -195 -301 -49 -99 -98 -228 -115 -304 -26 -125 -32 -189 -29 -320 2 -80
6 -158 10 -175 3 -16 11 -50 16 -75 11 -53 45 -161 66 -210 22 -52 77 -164 83
-170 3 -3 16 -25 30 -50 13 -25 28 -49 32 -55 5 -5 35 -46 68 -90 251 -339
655 -648 1195 -914 226 -112 257 -126 393 -181 53 -21 111 -44 127 -51 17 -7
32 -13 35 -14 6 -2 29 -11 85 -32 55 -22 482 -162 509 -168 11 -2 46 -11 76
-20 30 -9 62 -18 70 -20 31 -9 176 -47 190 -50 8 -2 60 -15 115 -29 55 -14
116 -28 135 -31 19 -3 62 -13 95 -22 33 -8 69 -16 80 -18 11 -1 34 -5 50 -8
17 -4 41 -9 55 -11 14 -3 36 -7 50 -10 14 -3 39 -8 55 -11 17 -3 44 -7 60 -10
17 -3 41 -8 55 -10 14 -2 41 -6 60 -10 19 -4 49 -9 65 -11 46 -7 85 -13 145
-23 30 -5 75 -12 100 -15 25 -4 63 -9 85 -13 22 -3 51 -7 65 -8 14 -1 50 -6
80 -10 30 -4 71 -9 90 -11 19 -2 60 -6 90 -9 30 -2 80 -8 110 -11 68 -8 90
-10 210 -19 52 -4 111 -8 130 -10 218 -21 1499 -29 1730 -12 58 4 132 10 165
12 109 7 248 18 350 30 28 3 77 8 110 11 33 3 71 8 85 9 14 2 52 6 85 10 33 3
71 7 85 10 28 4 50 7 271 39 58 9 146 23 195 32 49 9 103 18 119 21 17 2 39 6
50 8 11 2 34 7 50 10 17 3 55 11 85 17 30 6 62 12 70 13 9 0 21 4 28 9 6 4 12
5 12 3 0 -3 17 -1 38 5 20 5 51 11 68 14 22 4 444 109 509 127 6 2 37 11 70
21 33 10 67 19 75 21 28 6 445 146 477 160 17 8 36 15 42 15 6 0 19 4 29 9 9
6 49 22 87 37 180 69 590 262 715 336 19 12 85 50 145 86 61 36 112 68 115 71
3 4 19 15 35 25 37 23 249 181 290 216 16 14 64 59 108 100 43 41 82 77 86 80
16 12 149 169 186 220 21 30 42 57 45 60 8 8 75 119 104 175 60 112 124 301
142 420 16 105 13 292 -6 400 -67 390 -294 727 -735 1094 -11 9 -36 27 -55 41
-19 13 -37 27 -40 30 -7 9 -230 160 -236 160 -3 0 -32 18 -65 40 -33 22 -63
40 -65 40 -3 0 -36 17 -72 39 -142 82 -386 200 -587 282 -66 27 -135 56 -153
64 -18 8 -37 15 -42 15 -6 0 -29 9 -53 19 -23 10 -51 21 -62 24 -11 3 -51 17
-90 32 -38 14 -78 28 -89 30 -10 3 -46 14 -80 26 -33 11 -68 22 -76 24 -8 2
-27 8 -43 14 -15 6 -38 13 -50 16 -12 2 -69 18 -127 35 -58 17 -114 32 -125
34 -11 3 -20 5 -20 6 0 1 -7 3 -15 5 -8 1 -44 11 -80 20 -36 9 -72 19 -80 20
-8 2 -30 8 -48 14 -18 5 -35 10 -37 10 -3 0 -18 2 -33 5 -15 4 -36 8 -47 10
-11 3 -54 12 -95 21 -41 9 -84 18 -95 21 -37 8 -389 73 -425 78 -19 3 -46 8
-60 11 -14 3 -45 7 -70 10 -25 3 -52 7 -60 10 -8 2 -37 6 -65 10 -27 3 -63 8
-80 10 -35 5 -167 21 -245 31 -30 3 -68 8 -85 10 -16 2 -61 6 -100 9 -38 3
-77 8 -85 10 -8 2 -60 7 -115 11 -55 3 -122 7 -150 9 -27 2 -90 6 -140 10 -49
3 -128 8 -175 11 -93 6 -1106 15 -1111 9z m927 -89 c157 -6 246 -11 369 -21
33 -3 95 -7 138 -10 75 -6 102 -8 217 -21 141 -15 180 -19 330 -39 63 -8 126
-17 140 -19 22 -4 124 -20 205 -32 17 -3 37 -7 45 -9 8 -2 33 -6 55 -9 22 -4
51 -8 65 -11 41 -9 73 -15 105 -21 17 -3 48 -9 70 -14 22 -5 56 -12 75 -15 34
-6 117 -25 283 -65 69 -17 186 -49 332 -90 220 -62 631 -206 770 -270 39 -18
135 -59 138 -59 1 0 94 -46 207 -103 187 -95 486 -270 529 -309 10 -9 35 -28
57 -42 63 -39 252 -197 335 -280 42 -41 113 -120 158 -174 100 -120 91 -108
173 -238 66 -105 139 -285 173 -430 32 -134 36 -362 9 -494 -18 -88 -50 -200
-74 -256 -55 -132 -173 -332 -248 -421 -15 -17 -40 -46 -55 -65 -109 -129
-327 -326 -467 -422 -25 -17 -47 -33 -50 -37 -13 -15 -245 -159 -357 -221
-116 -64 -288 -150 -393 -197 -193 -85 -298 -127 -480 -192 -139 -50 -380
-128 -409 -134 -9 -1 -47 -12 -86 -24 -74 -22 -283 -77 -325 -86 -14 -2 -54
-11 -90 -20 -36 -8 -76 -17 -90 -20 -14 -3 -34 -7 -45 -10 -38 -8 -283 -57
-311 -61 -16 -2 -69 -11 -119 -20 -49 -8 -106 -17 -125 -20 -19 -3 -44 -6 -55
-9 -11 -2 -45 -7 -76 -10 -31 -4 -65 -8 -75 -10 -11 -2 -48 -7 -84 -11 -36 -4
-72 -8 -80 -10 -8 -1 -46 -6 -85 -9 -38 -4 -81 -9 -95 -11 -14 -2 -61 -6 -105
-10 -44 -3 -102 -8 -130 -10 -427 -38 -1176 -48 -1585 -21 -202 14 -315 22
-405 30 -169 16 -257 25 -310 33 -22 3 -53 7 -70 8 -49 4 -240 32 -240 35 0 1
-13 3 -30 4 -53 6 -130 17 -145 21 -8 2 -31 6 -50 9 -19 3 -46 8 -60 11 -13 2
-42 7 -64 11 -22 3 -44 7 -47 10 -4 2 -22 6 -41 8 -18 3 -45 7 -58 10 -14 3
-36 8 -50 10 -14 2 -77 16 -140 31 -148 34 -138 32 -190 44 -25 7 -55 14 -68
17 -67 14 -292 79 -477 137 -222 70 -533 189 -728 279 -126 58 -376 186 -409
209 -14 11 -29 19 -33 19 -7 0 -54 29 -230 145 -156 102 -333 244 -449 361
-103 105 -246 274 -246 292 0 6 -3 12 -7 14 -9 4 -59 79 -62 93 -1 6 -8 17
-16 25 -11 13 -81 156 -105 215 -7 18 -42 130 -46 148 -1 4 -2 8 -4 10 -1 1
-3 11 -5 22 -2 11 -6 36 -9 55 -26 146 -24 372 4 469 5 17 8 32 8 34 -4 9 31
127 59 197 156 388 473 730 976 1054 48 31 90 56 93 56 3 0 19 9 34 20 40 29
358 190 470 239 52 23 103 46 112 51 10 6 25 10 33 10 8 0 15 4 15 10 0 5 3 9
7 8 5 -1 67 21 140 50 127 49 408 149 447 157 10 3 35 10 55 17 20 7 38 13 41
13 35 7 77 19 85 23 6 4 15 7 20 8 6 1 69 18 140 37 162 43 380 95 428 101 20
2 41 7 46 10 5 3 24 8 42 11 19 2 45 7 59 10 45 11 66 15 101 19 19 3 35 6 37
7 3 2 12 4 65 13 27 4 59 10 70 12 12 3 36 6 52 8 37 5 251 36 285 42 14 2 65
9 113 14 48 6 105 12 125 15 20 2 62 7 92 10 30 2 80 7 110 10 30 3 80 7 110
10 30 2 87 7 125 10 109 9 245 16 430 21 94 3 171 7 172 8 4 4 564 -2 709 -8z"/>
<path d="M4187 7819 c-20 -3 -39 -8 -41 -10 -2 -2 -27 -53 -56 -112 -28 -59
-78 -156 -111 -214 -32 -59 -59 -110 -59 -115 0 -4 -4 -8 -10 -8 -5 0 -10 -5
-10 -10 0 -10 -123 -210 -192 -312 l-38 -57 -113 1 c-123 2 -162 -10 -193 -57
-22 -33 -24 -100 -4 -100 9 0 14 8 12 21 -9 69 42 103 161 108 125 4 125 5 51
-94 -166 -222 -293 -340 -330 -309 -15 12 -13 23 10 71 23 47 15 85 -18 94
-48 12 -81 -18 -93 -81 -10 -55 46 -125 102 -125 71 0 240 151 370 330 75 103
83 112 104 105 9 -3 44 -7 76 -10 63 -5 153 -14 195 -20 14 -2 32 -3 40 -4 12
-1 15 -23 16 -134 1 -117 3 -138 24 -181 29 -60 71 -89 121 -83 48 6 127 58
161 106 23 33 25 41 14 56 -11 16 -14 15 -29 -16 -22 -46 -70 -97 -104 -110
-44 -16 -55 8 -48 111 3 47 7 96 9 110 3 14 7 63 11 110 3 47 8 103 10 125 5
48 15 143 20 205 8 82 14 154 21 216 18 180 27 394 17 395 -27 5 -63 4 -96 -2z
m-61 -158 c-3 -5 -8 -42 -11 -82 -3 -41 -7 -90 -10 -109 -6 -41 -12 -106 -20
-210 -3 -41 -8 -91 -10 -110 -3 -19 -7 -62 -10 -95 -9 -114 -11 -116 -58 -110
-23 3 -73 7 -112 10 -38 3 -79 8 -90 10 -11 2 -35 4 -52 4 -31 1 -32 2 -21 26
6 14 14 25 18 25 4 0 13 14 20 30 7 17 16 30 21 30 5 0 9 4 9 10 0 5 32 61 70
125 39 64 70 118 70 120 0 2 14 28 31 57 17 29 54 98 82 153 27 55 54 106 60
113 11 14 21 17 13 3z"/>
<path d="M5605 7212 c-159 -54 -316 -217 -377 -389 -40 -114 -29 -236 24 -276
63 -47 154 -7 294 130 69 66 84 77 85 60 2 -67 31 -146 62 -174 64 -55 156
-48 226 18 19 18 25 19 31 8 39 -68 86 -78 171 -36 65 32 145 100 227 191 46
53 47 52 31 -25 -5 -30 -16 -91 -24 -137 -14 -88 -27 -113 -118 -242 -29 -41
-67 -100 -84 -130 -32 -59 -76 -170 -68 -170 3 0 1 -8 -4 -19 -14 -24 -22 -72
-26 -151 -7 -117 38 -215 87 -189 10 5 18 7 18 4 0 -3 14 7 31 22 102 89 159
185 198 333 18 70 74 334 86 408 14 86 36 176 50 202 8 16 38 52 66 81 40 39
49 53 38 59 -14 9 -31 -2 -77 -50 l-24 -25 7 35 c13 72 16 85 20 100 3 8 7 33
10 55 4 22 8 48 11 57 5 19 12 49 19 93 3 17 10 56 16 89 6 32 7 62 2 66 -8 9
-48 13 -95 11 -18 -1 -29 -8 -34 -23 -6 -20 -8 -20 -19 -5 -59 81 -262 -14
-404 -188 -68 -84 -131 -244 -126 -321 5 -64 -104 -150 -141 -112 -38 38 -34
120 15 303 75 281 79 309 55 336 -14 16 -27 19 -63 15 -27 -3 -48 -11 -54 -21
-8 -14 -11 -15 -25 -2 -28 24 -65 27 -117 9z m103 -36 c12 -7 9 -41 -10 -126
-5 -25 -11 -52 -13 -60 -23 -111 -46 -153 -152 -275 -87 -99 -124 -120 -166
-92 -42 27 -45 103 -11 242 27 113 86 202 176 269 58 43 142 63 176 42z m744
-10 c4 -5 5 -13 3 -16 -1 -3 -6 -25 -9 -50 -3 -25 -8 -55 -10 -67 -3 -11 -8
-43 -11 -70 -6 -44 -40 -106 -85 -154 -8 -9 -37 -45 -65 -80 -27 -35 -59 -72
-70 -81 -11 -10 -25 -22 -32 -28 -20 -17 -58 -11 -82 11 -22 20 -23 27 -17
114 8 121 36 209 90 283 41 56 120 129 135 125 3 -1 12 3 19 9 31 26 118 29
134 4z m-126 -788 c-8 -68 -13 -97 -35 -204 -12 -55 -23 -109 -25 -120 -34
-165 -47 -211 -89 -307 -13 -31 -52 -46 -70 -28 -8 8 -12 49 -11 119 1 172 48
308 167 490 33 50 63 92 65 92 2 0 1 -19 -2 -42z"/>
<path d="M4598 7212 c-27 -3 -31 -10 -43 -87 -3 -16 -8 -41 -10 -55 -8 -36
-14 -70 -20 -110 -2 -19 -20 -118 -40 -220 -19 -102 -36 -194 -37 -205 -3 -18
3 -20 50 -20 41 -1 57 4 71 20 17 19 81 231 81 268 0 50 94 -12 180 -119 8
-11 33 -41 55 -69 57 -72 67 -81 108 -94 45 -15 109 -8 141 16 28 21 56 64 56
87 0 26 -13 18 -42 -24 -27 -38 -50 -48 -74 -32 -6 4 -35 43 -64 87 -76 114
-165 200 -220 215 -25 7 -60 12 -77 12 -38 -2 -38 -1 -15 26 9 11 37 44 61 74
59 70 134 134 201 170 47 25 56 27 68 14 13 -13 11 -19 -17 -46 -18 -18 -31
-42 -31 -56 0 -28 41 -74 65 -74 47 0 85 53 85 117 0 97 -97 139 -197 86 -52
-29 -153 -116 -153 -133 0 -6 -4 -10 -8 -10 -4 0 -25 -23 -46 -50 -21 -28 -40
-49 -42 -47 -2 2 1 30 6 63 5 32 12 79 16 104 7 47 8 80 1 86 -5 6 -79 10
-109 6z"/>
<path d="M6875 7201 c-74 -36 -176 -184 -191 -278 -18 -112 6 -252 54 -313 62
-78 191 -106 279 -61 39 20 73 20 73 0 0 -16 62 -41 90 -36 88 18 194 140 291
337 35 71 66 129 69 129 3 1 5 -72 5 -161 0 -155 1 -166 25 -212 49 -95 108
-115 169 -58 40 38 114 169 147 261 21 59 29 64 30 19 1 -18 4 -53 9 -78 4
-25 9 -56 11 -70 11 -83 35 -124 84 -150 44 -23 113 -18 156 12 33 22 74 76
74 96 0 21 -27 13 -38 -13 -22 -48 -118 -100 -123 -66 -1 3 -3 20 -5 36 -3 17
-7 158 -9 314 -2 166 -7 287 -13 293 -9 9 -107 18 -128 11 -5 -2 -11 -36 -12
-76 -2 -63 -7 -112 -12 -112 -1 0 -4 -11 -6 -25 -3 -13 -9 -29 -14 -34 -6 -6
-10 -16 -10 -24 0 -13 -35 -106 -66 -177 -7 -16 -27 -65 -44 -107 -18 -43 -38
-78 -45 -78 -8 0 -17 18 -22 43 -10 45 -9 83 2 332 10 221 10 246 -4 255 -15
9 -112 6 -128 -3 -7 -4 -11 -20 -11 -35 1 -60 -204 -474 -268 -539 -7 -7 -21
-24 -32 -38 -27 -34 -85 -58 -100 -43 -14 14 -16 50 -3 64 14 15 21 48 13 62
-5 7 -22 16 -39 21 -38 11 -71 -12 -79 -54 -7 -38 -8 -39 -69 -63 -63 -25 -77
-18 -110 49 -27 58 -57 167 -52 197 2 12 29 40 63 65 125 92 183 203 147 279
-7 15 -22 32 -33 38 -26 14 -87 10 -125 -9z m125 -26 c10 -12 14 -48 8 -75 -8
-37 -60 -110 -110 -154 -85 -76 -88 -77 -82 -9 11 133 40 202 102 245 24 16
65 13 82 -7z"/>
<path d="M10489 6328 c-1 -7 -2 -24 -3 -38 l-1 -25 -225 0 c-219 -1 -227 -1
-304 -28 -130 -46 -214 -115 -265 -222 -51 -105 -56 -129 -55 -282 l1 -112
-30 16 c-92 47 -296 -42 -394 -172 -86 -114 -112 -226 -84 -358 23 -105 98
-163 199 -154 79 8 158 68 231 175 94 136 112 216 116 487 3 241 13 283 86
368 33 39 148 127 164 127 3 0 28 11 57 24 108 50 241 81 396 92 46 3 97 11
115 19 36 15 63 55 54 79 -7 19 -56 22 -58 4z m-880 -729 c16 -18 30 -62 36
-114 2 -20 -34 -172 -51 -215 -54 -135 -179 -265 -276 -285 -9 -2 -25 6 -35
17 -29 32 -25 220 7 304 6 16 11 30 10 32 0 1 12 24 26 50 15 26 33 58 40 72
19 37 104 125 139 143 42 22 81 21 104 -4z"/>
<path d="M2977 6240 c-21 -17 -45 -26 -84 -35 -137 -30 -301 -175 -353 -312
-45 -120 -19 -251 67 -339 l47 -47 -19 -31 c-10 -17 -36 -64 -59 -104 -22 -40
-46 -81 -51 -90 -6 -9 -30 -52 -55 -94 -24 -43 -51 -78 -59 -79 -9 -1 -43 -2
-76 -3 -87 -4 -165 -50 -201 -118 -20 -39 -17 -66 11 -93 60 -61 199 -13 333
114 l52 51 48 -19 c26 -10 74 -30 108 -43 96 -39 158 -51 242 -45 203 14 320
70 469 227 35 36 63 68 63 72 0 4 6 13 13 20 47 52 119 223 133 316 5 40 5
203 -1 232 -3 14 -8 38 -10 53 -3 15 -14 51 -25 79 -53 139 -158 221 -340 262
-41 10 -84 22 -95 29 -33 18 -133 16 -158 -3z m297 -76 c27 -14 62 -39 78 -57
31 -34 74 -116 82 -157 3 -14 7 -36 10 -50 23 -105 28 -155 27 -275 0 -115 -2
-139 -21 -219 -12 -54 -69 -176 -82 -176 -4 0 -8 -4 -8 -9 0 -14 -49 -64 -104
-105 -98 -74 -237 -125 -356 -131 -67 -3 -85 0 -165 31 -49 19 -98 39 -107 44
-10 6 -24 10 -32 10 -7 0 -19 6 -25 13 -8 11 -1 26 32 69 23 30 73 106 112
169 38 63 73 117 78 120 4 3 45 5 89 4 85 -3 206 22 197 40 -2 6 -15 9 -29 8
-97 -9 -208 -11 -219 -4 -10 6 1 35 45 122 32 63 59 119 60 124 1 6 17 42 37
82 19 39 32 74 29 77 -3 3 -1 6 4 6 5 0 34 68 64 151 l55 150 50 -6 c27 -3 72
-17 99 -31z m-323 4 c-12 -31 -177 -411 -207 -475 -13 -29 -26 -64 -30 -78 -5
-21 -9 -23 -21 -14 -29 25 -70 138 -67 189 6 113 58 234 131 301 44 40 152 98
185 99 14 0 16 -4 9 -22z m-557 -1087 c11 -1 -58 -87 -108 -133 -46 -43 -67
-52 -101 -44 -20 5 -23 11 -20 37 12 94 105 151 229 140z"/>
<path d="M6909 6256 c-2 -2 -17 -6 -34 -9 -49 -8 -146 -44 -198 -73 -118 -65
-185 -168 -182 -275 5 -129 34 -151 33 -24 -1 77 1 89 28 132 50 80 183 161
294 179 39 6 43 5 36 -11 -3 -10 -9 -34 -12 -54 -3 -20 -12 -63 -21 -96 -8
-33 -16 -71 -18 -85 -2 -14 -8 -46 -14 -73 -6 -26 -14 -64 -17 -84 -13 -81
-44 -159 -75 -188 -72 -69 -206 -258 -213 -300 -1 -5 -5 -15 -8 -21 -21 -32
-46 -160 -44 -218 3 -88 22 -110 88 -103 112 14 198 117 298 362 11 25 60 200
91 318 12 48 26 88 31 88 4 1 14 2 21 3 52 7 105 -104 143 -304 40 -211 95
-370 147 -418 41 -39 111 -60 169 -51 28 5 58 15 68 24 23 20 47 19 72 -5 28
-25 77 -26 127 -1 42 22 148 125 157 153 3 10 9 18 13 18 9 0 118 173 151 240
13 25 26 47 29 50 4 3 11 16 17 30 8 19 11 -24 10 -175 l-1 -200 29 -52 c44
-80 116 -104 194 -64 40 20 92 76 92 98 0 22 -14 15 -43 -22 -74 -92 -159 -78
-151 25 5 68 14 160 18 187 14 86 29 248 30 323 l1 65 -72 3 -71 3 -7 -33 c-8
-33 -53 -124 -100 -198 -14 -22 -25 -44 -25 -49 0 -5 -3 -11 -7 -13 -5 -1 -19
-23 -32 -48 -34 -63 -119 -189 -152 -225 -15 -16 -38 -41 -51 -55 -19 -21 -68
-50 -83 -50 -2 0 -9 9 -15 19 -7 14 -6 31 5 60 13 39 13 43 -5 61 -44 44 -103
16 -105 -49 -2 -70 -60 -107 -116 -74 -48 28 -89 145 -134 383 -45 235 -55
268 -94 312 -42 47 -119 77 -187 73 l-46 -3 24 26 c149 167 344 329 475 397
72 37 115 47 151 34 30 -11 28 -22 -13 -66 -44 -48 -49 -99 -11 -109 35 -8 66
4 76 31 16 42 19 129 6 147 -16 21 -58 38 -97 38 -32 0 -151 -37 -159 -49 -3
-5 -16 -14 -30 -21 -56 -29 -179 -130 -289 -236 -63 -62 -117 -112 -118 -110
-2 2 21 174 32 241 3 17 8 58 11 92 6 61 5 63 -21 73 -26 10 -88 14 -96 6z
m-163 -718 c-1 -7 -5 -22 -9 -33 -3 -11 -8 -31 -11 -45 -8 -45 -54 -203 -84
-285 -36 -99 -64 -155 -90 -178 -19 -17 -21 -17 -37 -1 -14 14 -16 30 -12 83
3 36 8 80 12 96 8 38 84 199 96 203 5 2 9 10 9 18 0 8 4 14 8 14 4 0 15 12 24
28 16 27 87 112 93 112 2 0 2 -6 1 -12z"/>
<path d="M5465 5662 c-11 -2 -25 -11 -32 -19 -10 -13 -14 -13 -35 1 -36 25
-88 19 -164 -18 -224 -113 -383 -379 -342 -571 12 -57 56 -95 104 -90 31 3 98
29 114 45 3 3 21 17 40 31 43 32 107 94 138 133 12 16 23 27 23 25 1 -2 3 -20
4 -39 5 -71 26 -125 62 -157 20 -18 41 -34 47 -34 64 -9 95 -4 133 17 23 13
46 24 51 24 10 0 31 -37 36 -66 3 -16 17 -172 18 -204 1 -30 -13 -52 -82 -123
-106 -110 -184 -209 -217 -277 -16 -30 -32 -58 -38 -62 -5 -4 -7 -8 -2 -8 4 0
1 -13 -7 -28 -21 -40 -47 -149 -49 -202 -3 -66 21 -129 50 -136 67 -17 256
120 341 247 94 140 134 283 138 493 2 81 4 149 6 150 7 5 125 103 146 121 21
19 30 45 15 45 -9 0 -61 -42 -127 -102 -44 -40 -45 -40 -51 -12 -8 38 -46 139
-61 162 -8 12 -25 27 -37 31 -20 7 -16 11 33 36 87 44 158 92 202 137 49 50
118 154 118 178 0 9 3 20 7 24 11 11 16 46 17 118 1 60 -2 70 -25 93 -15 16
-39 27 -60 29 -73 6 -200 -46 -312 -127 -94 -69 -73 -84 26 -19 75 49 213 112
248 112 25 0 37 -28 32 -75 -12 -111 -118 -254 -307 -412 -50 -42 -94 -84 -98
-94 -4 -10 -21 -25 -39 -34 -30 -16 -33 -16 -50 2 -36 35 -35 122 1 258 53
201 67 258 75 300 5 22 9 45 11 51 6 29 -52 56 -101 46z m-67 -69 c2 -10 -6
-59 -18 -109 -11 -49 -23 -100 -26 -113 -15 -71 -88 -174 -202 -288 -43 -42
-93 -46 -118 -8 -36 56 -8 249 53 354 31 53 105 130 154 159 71 43 151 46 157
5z m256 -1010 c-8 -124 -117 -404 -217 -555 -41 -61 -89 -101 -111 -92 -63 24
4 310 108 458 48 69 210 256 222 256 1 0 0 -30 -2 -67z"/>
<path d="M8924 5649 c-9 -10 -51 -104 -93 -211 -43 -106 -93 -222 -111 -258
-19 -36 -35 -71 -36 -78 -1 -7 -15 -29 -30 -49 l-27 -36 -10 24 c-8 21 -3 491
6 569 5 40 -10 50 -74 50 -64 0 -72 -6 -75 -60 -11 -166 -18 -321 -18 -405 0
-85 3 -107 23 -145 29 -56 53 -79 90 -86 61 -13 125 53 205 211 49 98 51 99
35 10 -5 -33 -12 -76 -14 -95 -3 -19 -7 -44 -10 -56 -2 -12 -7 -39 -11 -60 -6
-37 -29 -93 -43 -104 -14 -11 -109 -148 -132 -190 -13 -25 -27 -47 -30 -50
-10 -9 -56 -135 -69 -190 -7 -30 -14 -74 -15 -97 0 -23 -4 -45 -7 -49 -4 -3
-5 -11 -3 -17 2 -7 6 -31 9 -54 7 -55 30 -100 56 -108 27 -9 78 24 134 86 97
107 127 189 190 504 2 11 16 76 30 145 13 69 27 136 30 150 12 62 16 74 32 99
9 14 37 45 61 68 23 22 43 46 43 51 0 26 -22 19 -56 -18 -34 -36 -65 -55 -49
-30 4 6 9 27 11 47 3 20 9 57 15 82 6 25 12 60 15 76 2 17 15 82 28 145 26
131 24 138 -42 143 -30 2 -47 -1 -58 -14z m-170 -826 c-3 -16 -7 -41 -9 -58
-10 -79 -15 -112 -21 -135 -3 -14 -8 -36 -10 -50 -7 -42 -24 -123 -34 -160
-34 -125 -54 -186 -64 -192 -6 -4 -8 -8 -3 -8 13 0 -22 -59 -42 -70 -26 -14
-51 11 -53 53 0 18 -2 39 -2 47 -2 20 20 195 24 195 1 0 4 12 6 28 6 34 81
198 118 257 78 124 100 146 90 93z"/>
<path d="M4775 5646 c-130 -35 -226 -127 -307 -292 -31 -64 -59 -101 -130
-173 -50 -51 -92 -90 -95 -88 -2 3 21 83 52 178 88 271 107 342 98 364 -7 19
-116 21 -131 3 -5 -7 -15 -32 -21 -54 -14 -52 -48 -129 -64 -146 -7 -7 -32
-38 -57 -68 -25 -30 -57 -68 -72 -85 l-28 -30 20 53 c41 108 46 231 11 281
-62 87 -259 77 -346 -19 -30 -33 -10 -33 45 1 139 85 213 23 204 -172 -6 -132
-62 -258 -152 -341 -78 -72 -163 -94 -181 -46 -12 34 -3 52 36 73 50 27 68 93
27 96 -52 5 -71 -5 -93 -50 -28 -56 -15 -135 28 -168 34 -26 119 -8 191 42 64
45 277 261 331 336 18 26 49 43 34 19 -7 -11 -83 -259 -90 -296 -3 -12 -12
-41 -20 -64 -12 -34 -13 -45 -3 -51 7 -4 15 -6 18 -4 4 2 23 5 43 7 32 2 52
17 154 115 64 62 118 111 120 109 2 -2 5 -32 7 -67 3 -81 18 -111 68 -139 33
-19 50 -22 98 -17 86 7 144 42 208 121 36 45 -7 33 -53 -15 -103 -107 -183
-79 -202 70 -7 57 -7 56 0 111 11 79 17 102 48 164 60 121 146 199 232 209 44
6 49 4 59 -19 17 -37 0 -74 -47 -100 -49 -27 -60 -43 -51 -77 11 -47 69 -32
106 27 56 91 40 199 -30 209 -14 2 -43 -2 -65 -7z"/>
</g>
</svg>
