<svg width="6" height="6" viewBox="0 0 6 6" fill="none" xmlns="http://www.w3.org/2000/svg">
<path d="M5.92967 1.21009L2.08984 5.04992C2.06755 5.07223 2.04108 5.08993 2.01195 5.10201C1.98282 5.11408 1.95159 5.1203 1.92005 5.1203C1.88851 5.1203 1.85728 5.11408 1.82815 5.10201C1.79901 5.08993 1.77254 5.07223 1.75026 5.04992L0.0703303 3.36999C0.0252986 3.32496 0 3.26388 0 3.2002C0 3.13651 0.0252986 3.07544 0.0703303 3.0304C0.115362 2.98537 0.176438 2.96007 0.240123 2.96007C0.303807 2.96007 0.364883 2.98537 0.409915 3.0304L1.92005 4.54084L5.59008 0.870501C5.63512 0.825469 5.69619 0.800171 5.75988 0.800171C5.82356 0.800171 5.88464 0.825469 5.92967 0.870501C5.9747 0.915533 6 0.976609 6 1.04029C6 1.10398 5.9747 1.16505 5.92967 1.21009Z" fill="#B6B6B6"/>
</svg>
