<svg width="35" height="35" fill="currentColor" xmlns="http://www.w3.org/2000/svg"><path d="M31.728 16.965v13.912c.506 0 .997-.002 1.488 0 .803.003 1.216.388 1.234 1.173.013.592.012 1.185 0 1.778-.016.793-.417 1.172-1.221 1.172H1.757c-.782 0-1.19-.38-1.207-1.15a39.376 39.376 0 0 1 0-1.813c.018-.76.44-1.154 1.21-1.16.472-.002.943-.003 1.414-.007.023 0 .046-.014.091-.03V16.98c-.076.036-.15.065-.22.1-.6.31-1.225.207-1.683-.291a51.36 51.36 0 0 1-.951-1.068c-.592-.68-.545-1.392.144-1.971a427.61 427.61 0 0 1 3.901-3.251.744.744 0 0 0 .302-.647c-.01-2.08-.006-4.16-.005-6.24 0-.853.36-1.203 1.245-1.205 1.054-.002 2.108-.003 3.162 0 .853.004 1.213.363 1.214 1.2v1.929c.17-.136.28-.221.387-.31L16.468.46c.73-.61 1.32-.617 2.051-.008 5.286 4.409 10.57 8.82 15.85 13.231.787.657.834 1.336.163 2.103a67.6 67.6 0 0 1-.83.93c-.531.588-1.12.69-1.827.32-.041-.021-.083-.04-.15-.072h.003ZM4.485 30.875c1.26 0 2.472.004 3.685-.007.076 0 .208-.102.22-.172.152-.822.68-1.432 1.162-2.079.248-.334.465-.723.57-1.118.255-.96-.1-1.778-.755-2.496-.755-.824-1.114-1.785-1.037-2.895.01-.15 0-.301 0-.452-.466.548-.852 1.118-1.242 1.685-.266.387-.587.492-.901.302-.33-.2-.368-.543-.097-.946.762-1.13 1.525-2.262 2.293-3.39.282-.415.79-.428 1.073-.014a415.448 415.448 0 0 1 2.353 3.48c.22.33.154.679-.135.863-.295.188-.63.11-.863-.224-.364-.518-.713-1.047-1.07-1.57-.048-.07-.112-.128-.173-.2-.18 1.078.086 1.997.843 2.77.077.078.139.17.205.257 1.054 1.392 1.052 3.156-.007 4.549-.192.252-.412.485-.585.749-.175.267-.308.56-.463.848.095.038.118.056.14.056 2.345.004 4.688.007 7.033.002.078 0 .215-.07.224-.123.15-.933.775-1.602 1.328-2.314.454-.585.55-1.253.45-1.962-.09-.632-.482-1.104-.88-1.57-.663-.775-1.004-1.654-.954-2.671.01-.195.001-.392.001-.586-.466.564-.855 1.137-1.247 1.708-.264.383-.592.482-.905.282-.306-.196-.347-.547-.095-.922.762-1.13 1.525-2.26 2.292-3.388.296-.436.8-.447 1.092-.017a609.762 609.762 0 0 1 2.315 3.418c.24.356.2.698-.09.897-.307.213-.648.122-.909-.254-.353-.511-.697-1.028-1.05-1.54-.046-.069-.11-.127-.17-.193-.187 1.095.107 2.017.867 2.798.094.096.17.209.25.317.653.87.818 1.843.654 2.891-.127.813-.61 1.435-1.101 2.064-.264.337-.466.72-.697 1.08l.09.092h1.85c1.724 0 3.448.003 5.172-.007.122 0 .338-.078.35-.146.165-.888.737-1.544 1.28-2.22.476-.597.608-1.275.501-2.017-.09-.621-.454-1.09-.847-1.543-.685-.791-1.041-1.69-.982-2.734.011-.186.002-.372.002-.558-.476.564-.868 1.147-1.267 1.723-.249.36-.58.454-.882.264-.308-.192-.366-.534-.128-.887a465.009 465.009 0 0 1 2.356-3.479c.267-.39.752-.403 1.02-.013.81 1.172 1.606 2.355 2.397 3.54.205.307.127.654-.15.832-.288.185-.62.123-.841-.189-.367-.516-.715-1.045-1.074-1.568-.056-.082-.123-.157-.211-.267-.104 1.377.012 1.75.832 2.766.115.143.231.284.337.434a3.648 3.648 0 0 1 .02 4.224c-.21.3-.466.567-.67.869-.191.286-.342.598-.541.95h3.792v-.308c0-4.776-.003-9.553.007-14.33 0-.255-.112-.395-.29-.542A8482 8482 0 0 1 17.802 5.29c-.219-.183-.356-.204-.588-.01A5029.294 5029.294 0 0 1 4.78 15.66a.755.755 0 0 0-.3.647c.008 4.704.006 9.409.006 14.112v.458-.002Zm29.347-16.09c-.223-.19-.405-.353-.592-.509-5.105-4.262-10.21-8.523-15.316-12.783-.493-.412-.36-.403-.828-.014-4.636 3.867-9.27 7.735-13.903 11.603-.667.558-1.332 1.117-2.026 1.7.346.39.679.745.986 1.121.172.21.301.181.484.02.396-.347.805-.68 1.21-1.018 4.192-3.498 8.383-6.997 12.577-10.494.813-.678 1.354-.673 2.167.004 3.345 2.791 6.688 5.583 10.031 8.375 1.244 1.038 2.485 2.076 3.73 3.112.125.104.246.278.43.07l1.052-1.186h-.002Zm-.601 17.293H1.778v1.734h31.453v-1.734ZM5.97 9.225c.852-.712 1.606-1.414 2.438-2.013.615-.443.858-.936.78-1.672-.067-.64-.013-1.292-.013-1.946H5.97v5.63Z"/></svg>