<svg width="35" height="35" fill="currentColor" xmlns="http://www.w3.org/2000/svg"><path d="M0 16.477c.09-.674.147-1.354.276-2.02C1.34 8.915 4.357 4.775 9.29 2.059 12.065.533 15.076-.163 18.232.032 24.8.438 29.721 3.556 32.934 9.293c1.547 2.762 2.228 5.782 2.033 8.939-.406 6.58-3.534 11.502-9.284 14.722-2.132 1.194-4.452 1.824-6.896 1.99-.089.006-.176.037-.264.056h-2.05c-.088-.019-.175-.05-.264-.056-2.441-.166-4.754-.808-6.894-1.987-4.946-2.72-7.972-6.859-9.04-12.41C.148 19.88.09 19.2 0 18.527v-2.051Zm33.478 1.022C33.473 8.691 26.312 1.53 17.502 1.521 8.704 1.51 1.538 8.669 1.516 17.489c-.022 8.8 7.19 16.014 15.992 15.995 8.817-.018 15.975-7.183 15.97-15.985Z"/><path d="M16.742 13.879c0-1.174-.006-2.346.002-3.52.005-.612.5-.985 1.02-.782.35.137.49.421.49.784v2.186c0 1.447.005 2.893-.005 4.34a.685.685 0 0 0 .224.535c2.566 2.556 5.126 5.119 7.687 7.68.495.495.555.91.185 1.266-.361.348-.759.287-1.242-.197-2.65-2.65-5.297-5.302-7.953-7.946-.286-.285-.423-.59-.416-.998.017-1.116.006-2.233.006-3.348h.002ZM18.254 4.777c-.002.556-.253.884-.699.912a.892.892 0 0 1-.168-.007c-.456-.058-.676-.42-.645-1.06.023-.469.3-.778.715-.798.503-.025.8.33.797.953ZM4.734 18.26c-.54-.003-.864-.241-.908-.668-.033-.326.082-.6.377-.735.385-.177.794-.194 1.17.04.28.173.359.454.3.77-.074.394-.398.596-.938.593ZM30.256 16.745c.567.003.909.272.92.73.009.298-.109.549-.376.671-.387.177-.793.194-1.17-.034-.269-.163-.354-.428-.31-.735.06-.418.384-.634.938-.631h-.002ZM18.254 30.264c-.003.566-.274.906-.734.917-.297.007-.547-.112-.668-.38-.175-.387-.193-.795.038-1.17.164-.268.43-.353.736-.306.415.061.63.385.628.94v-.001ZM9.39 8.803c-.096.112-.227.38-.438.483-.188.09-.49.057-.693-.032-.203-.09-.368-.299-.507-.487-.215-.289-.16-.675.096-.926.257-.25.637-.295.93-.08.305.222.593.465.611 1.042ZM26.184 9.383c-.102-.085-.37-.217-.472-.428-.09-.188-.058-.49.033-.693.089-.202.3-.366.486-.506.263-.197.553-.18.82.015.26.19.375.445.298.77-.094.401-.632.854-1.165.845v-.003ZM9.383 26.355c.006.438-.585 1.036-1.019 1.032-.38-.003-.742-.363-.749-.743-.008-.434.584-1.027 1.025-1.025.396.001.74.341.744.737Z"/></svg>