<svg width="35" height="35" fill="currentColor" xmlns="http://www.w3.org/2000/svg"><path d="M4.124 2.762c0-.232-.003-.434 0-.637C4.142.628 5.459-.32 6.879.141c.768.25 1.333 1.025 1.36 1.87.008.237 0 .476 0 .73h3.433c0-.232-.006-.452 0-.671.027-.88.434-1.53 1.233-1.881.79-.345 1.543-.212 2.198.359.45.392.656.906.684 1.493.01.228 0 .458 0 .702h3.423v-.61c.013-1.5 1.352-2.46 2.778-1.988.742.245 1.292.986 1.336 1.81.012.254 0 .511 0 .786h3.437c0-.217-.004-.427 0-.638.02-.888.425-1.553 1.233-1.908.807-.358 1.578-.212 2.24.384.426.386.624.887.644 1.458.009.23 0 .46 0 .725h1.33a2.694 2.694 0 0 1 1.485.413c.801.507 1.22 1.24 1.3 2.176.009.103.007.206.007.308V32.1c0 .755-.208 1.424-.723 1.993-.504.553-1.128.838-1.864.9-.11.01-.222.006-.333.006-9.724 0-19.448 0-29.173.002-.766 0-1.442-.214-2.015-.737-.545-.497-.82-1.12-.884-1.842-.01-.111-.006-.222-.006-.333 0-8.804 0-17.608-.002-26.414 0-.867.263-1.612.91-2.202a2.628 2.628 0 0 1 1.77-.706c.468-.008.936 0 1.441 0l.003-.004Zm-2.75 8.23v.276c0 6.956.007 13.913-.008 20.87a1.5 1.5 0 0 0 1.5 1.496c9.76-.014 19.519-.014 29.276 0a1.5 1.5 0 0 0 1.5-1.497c-.017-6.956-.009-13.913-.009-20.869v-.273H1.375v-.002Zm0-1.398h32.251c0-1.435.027-2.854-.014-4.273-.017-.526-.356-.976-.877-1.087-.59-.125-1.213-.102-1.85-.146v.818a1.88 1.88 0 0 1-.396 1.14c-.592.774-1.481.994-2.28.74-.903-.287-1.439-1.065-1.44-2.014v-.626h-3.432c0 .158.002.302 0 .446-.004.197.014.398-.023.589-.21 1.109-1.173 1.822-2.325 1.682-.952-.115-1.79-.96-1.774-2.085.003-.209 0-.42 0-.63h-3.42c0 .212.01.407-.003.6-.014.22-.028.443-.084.655-.273 1.037-1.43 1.696-2.47 1.419-.95-.253-1.559-1.037-1.563-2.023v-.655H8.243v.752c-.004.433-.15.823-.409 1.16-.542.708-1.471 1.002-2.262.74-.894-.299-1.444-1.065-1.448-2.013v-.656c-.467 0-.894-.002-1.32 0-.848.007-1.425.59-1.427 1.44v4.026l-.002.001Zm4.118-6.183c0 .435-.004.87 0 1.306.006.441.306.776.686.776.384 0 .682-.33.684-.772.004-.863.004-1.725 0-2.586 0-.433-.283-.743-.672-.75-.4-.005-.696.307-.7.748-.004.428 0 .855 0 1.28l.002-.002Zm24.02.008c0-.444.006-.887 0-1.33-.008-.405-.312-.707-.692-.705-.378.002-.676.308-.678.716-.005.871-.005 1.742 0 2.613.002.443.3.776.68.78.392.006.688-.33.692-.793.004-.427 0-.854 0-1.279l-.002-.002Zm-15.097-.006c0-.444.006-.887 0-1.331a.697.697 0 0 0-.674-.698.693.693 0 0 0-.7.696c-.007.887-.015 1.776.008 2.664.004.186.107.4.228.546.185.22.456.263.723.137.271-.127.407-.361.413-.657.01-.452.002-.905.002-1.357Zm7.55.006c0-.435.005-.87 0-1.306-.004-.42-.306-.731-.694-.73-.378.003-.678.31-.682.717-.004.871-.004 1.742 0 2.613.002.443.302.778.684.78.393.002.69-.335.695-.793.002-.427 0-.854 0-1.281h-.003Z"/><path d="M18.53 15.422c0-.548-.002-1.094 0-1.642.002-.448.292-.738.738-.74 1.113-.004 2.225-.004 3.338 0 .426 0 .717.278.722.703.008 1.13.008 2.259 0 3.388-.002.431-.284.709-.711.713-1.122.006-2.244.006-3.364 0-.441-.002-.719-.29-.723-.727-.004-.565 0-1.13 0-1.695Zm3.431-.987h-2.034v2.018h2.034v-2.018ZM16.476 15.443c0 .557.002 1.113 0 1.668-.005.437-.282.729-.72.73a304.1 304.1 0 0 1-3.363 0c-.434-.001-.713-.274-.715-.706a233.39 233.39 0 0 1 0-3.388c.002-.427.292-.707.715-.709 1.122-.004 2.244-.004 3.363 0 .43 0 .715.3.72.733.004.557 0 1.113 0 1.668v.004Zm-3.428 1.019h2.032v-2.027h-2.032v2.027ZM18.53 29.162c0-.557-.002-1.114 0-1.668.002-.438.282-.727.72-.731a304.1 304.1 0 0 1 3.363 0c.429.002.71.28.715.708.008 1.13.008 2.26 0 3.389-.005.427-.294.704-.718.706a459.83 459.83 0 0 1-3.363 0c-.43 0-.715-.3-.717-.735-.004-.556 0-1.113 0-1.668v-.002Zm3.415 1.016v-2.029h-2.02v2.029h2.02ZM16.476 29.163c0 .549.002 1.095 0 1.643-.002.469-.284.758-.744.76-1.103.004-2.208.004-3.312 0-.456 0-.74-.277-.742-.733a299.381 299.381 0 0 1 0-3.337c.002-.458.284-.731.742-.733 1.104-.004 2.209-.004 3.312 0 .469.002.742.287.744.757.002.549 0 1.095 0 1.643Zm-3.421-1.014v2.02h2.028v-2.02h-2.028ZM16.475 22.302c0 .557.005 1.111 0 1.668-.004.445-.273.723-.719.727-1.12.006-2.241.006-3.361 0-.438 0-.713-.267-.715-.7a233.1 233.1 0 0 1 0-3.387c.004-.435.277-.698.717-.7 1.12-.005 2.242-.006 3.361 0 .448.002.717.279.72.727.003.556 0 1.11 0 1.667l-.003-.002Zm-1.399 1.01v-2.018h-2.024v2.019h2.024ZM18.53 22.292c0-.546-.002-1.095 0-1.64.002-.465.27-.74.73-.742 1.111-.004 2.225-.004 3.336 0 .465 0 .732.267.734.737.006 1.103.006 2.206 0 3.308-.002.483-.27.742-.754.744-1.095.004-2.19.004-3.286 0-.495 0-.758-.27-.76-.764-.002-.546 0-1.095 0-1.641v-.002Zm1.401-1v2.018h2.024v-2.018h-2.024ZM25.414 22.25c0-.547-.002-1.095 0-1.641.002-.464.27-.74.73-.741 1.11-.005 2.225-.005 3.336 0 .464 0 .731.267.733.737.007 1.103.007 2.206 0 3.308-.002.483-.269.742-.754.744-1.095.004-2.19.004-3.285 0-.495 0-.758-.27-.76-.764-.002-.547 0-1.095 0-1.641v-.002Zm1.401-1v2.018h2.024V21.25h-2.024ZM7.226 13.04c.538 0 1.078-.002 1.617 0 .478.002.76.27.762.74.006 1.11.006 2.224 0 3.335-.002.456-.284.729-.744.73-1.103.005-2.209.005-3.312 0-.458-.001-.733-.28-.735-.736a451.052 451.052 0 0 1 0-3.336c0-.45.29-.729.743-.73.557-.005 1.112 0 1.669 0v-.003ZM6.2 16.458h2.028v-2.021H6.2v2.02ZM30.194 15.456c0 .548.002 1.094 0 1.642-.004.47-.277.748-.752.748-1.095.004-2.19.004-3.285 0-.48 0-.754-.273-.756-.746a445.506 445.506 0 0 1 0-3.31c0-.476.277-.748.752-.75 1.095-.002 2.19-.002 3.285 0 .468 0 .752.282.756.746.004.556 0 1.11 0 1.667v.003Zm-1.395 1.014v-2.033h-2.014v2.033H28.8ZM30.194 29.17c0 .548.002 1.094 0 1.643-.002.47-.281.753-.748.755-1.103.002-2.207.005-3.312 0-.444 0-.73-.273-.733-.714a233.1 233.1 0 0 1 0-3.387c.002-.427.285-.7.719-.702 1.122-.006 2.241-.006 3.363 0 .427.002.705.287.709.712.006.565 0 1.13 0 1.695l.002-.002Zm-1.383-1.023h-2.03v2.02h2.03v-2.02ZM7.197 31.566H5.58c-.484-.002-.764-.277-.766-.76-.002-1.094-.002-2.189 0-3.283 0-.487.273-.758.764-.76 1.087-.004 2.174-.004 3.261 0 .491 0 .766.27.768.76.004 1.094.004 2.189 0 3.283 0 .491-.277.758-.766.76-.549.002-1.095 0-1.644 0Zm1.021-1.392v-2.021H6.201v2.02h2.017ZM4.812 22.292c0-.538-.002-1.078 0-1.616.002-.507.252-.764.752-.766 1.095-.004 2.19-.004 3.285 0 .5 0 .754.259.756.764.004 1.086.004 2.172 0 3.259 0 .515-.259.766-.78.768-1.08.002-2.156.002-3.235 0-.534 0-.778-.253-.78-.79v-1.617l.002-.002ZM6.2 23.329c.643 0 1.259-.002 1.873 0 .144 0 .169-.072.167-.193-.004-.4 0-.803 0-1.206v-.64H6.2v2.039Z"/></svg>