<svg width="26" height="26" fill="currentColor" xmlns="http://www.w3.org/2000/svg"><path d="M0 0h26v26H0z"/><path fill-rule="evenodd" clip-rule="evenodd" d="M21.587 8.711c.125-.41 0-.711-.596-.711h-1.969c-.5 0-.732.26-.857.547 0 0-1.001 2.397-2.42 3.954-.458.452-.667.595-.917.595-.126 0-.314-.143-.314-.553V8.71c0-.492-.138-.711-.555-.711h-3.096c-.313 0-.5.228-.5.445 0 .465.709.573.781 1.884v2.849c0 .625-.114.738-.365.738-.667 0-2.291-2.408-3.255-5.164C7.337 8.216 7.148 8 6.645 8h-1.97C4.112 8 4 8.26 4 8.547c0 .512.667 3.053 3.109 6.414 1.627 2.295 3.918 3.539 6.006 3.539 1.251 0 1.406-.276 1.406-.753v-1.734c0-.553.118-.663.515-.663.293 0 .793.144 1.961 1.25 1.335 1.312 1.555 1.9 2.306 1.9h1.97c.562 0 .844-.276.682-.822-.179-.543-.816-1.331-1.662-2.267-.459-.532-1.147-1.106-1.356-1.393-.292-.368-.209-.533 0-.86 0 0 2.4-3.32 2.65-4.447Z" fill="#fff"/></svg>