<svg width="34" height="37" fill="none" xmlns="http://www.w3.org/2000/svg"><path d="M4.356 25.975c.111-2.455.228-4.91.332-7.364.045-1.09-.345-2.027-1.1-2.799-1.709-1.747-2.503-3.876-2.56-6.276-.053-2.318-.016-4.637-.01-6.955.003-.914.642-1.574 1.5-1.578.867-.003 1.512.67 1.513 1.599.004 2.04.001 4.08.002 6.121 0 .128-.009.26.02.38.072.297.267.459.58.435.297-.023.456-.205.498-.49.015-.102.006-.208.006-.312 0-2.11-.003-4.22.003-6.33.002-.708.476-1.267 1.138-1.377.67-.11 1.305.24 1.524.87.073.214.1.454.1.682.008 2.052.005 4.104.005 6.156 0 .116-.008.234.011.346.045.273.21.435.49.455.293.02.494-.117.565-.404.032-.133.031-.276.031-.413C9.006 6.68 9 4.64 9.01 2.6c.005-1.053.806-1.739 1.794-1.565.723.127 1.223.75 1.224 1.55.003 2.202-.01 4.404.005 6.607.01 1.475-.312 2.87-.91 4.209a7.677 7.677 0 0 1-1.598 2.34c-.852.848-1.23 1.87-1.173 3.08.218 4.573.42 9.147.622 13.722.02.45.063.909 0 1.35a2.452 2.452 0 0 1-2.607 2.097c-1.333-.1-2.363-1.15-2.332-2.474.044-1.854.152-3.707.234-5.559.028-.66.06-1.32.09-1.98h-.001l-.001-.002Zm1.097-.166H5.45l-.241 5.35c-.033.753-.072 1.505-.095 2.258-.018.614.243 1.083.798 1.352.542.264 1.065.181 1.526-.2.398-.329.513-.772.49-1.277-.22-4.841-.428-9.682-.652-14.522-.067-1.438.38-2.692 1.39-3.692 1.452-1.436 2.13-3.213 2.22-5.179.11-2.43.047-4.868.057-7.302 0-.046.01-.11-.015-.135-.125-.13-.243-.321-.397-.36-.227-.056-.386.122-.435.352-.023.112-.012.23-.012.347 0 2.064.008 4.127-.003 6.191-.007 1.125-1.047 1.89-2.104 1.572-.703-.21-1.16-.844-1.162-1.634-.005-2.122-.002-4.244 0-6.365 0-.217.007-.46-.28-.468-.316-.008-.305.252-.304.478v1.878c0 1.484.007 2.968-.003 4.453-.006.967-.658 1.683-1.547 1.73-.97.05-1.715-.686-1.72-1.724-.007-2.029-.001-4.057-.003-6.087 0-.127.034-.285-.027-.375-.1-.145-.265-.337-.402-.338-.14 0-.304.19-.412.331-.058.075-.024.224-.025.34-.001 1.83-.012 3.663.005 5.494.006.682.041 1.367.125 2.043.229 1.836.854 3.482 2.216 4.825.945.932 1.386 2.127 1.331 3.47-.098 2.398-.209 4.795-.315 7.193ZM25.385 25.923c.106-2.327.197-4.654.328-6.98.066-1.175-.21-2.232-1.042-3.06-1.36-1.352-2.13-2.985-2.452-4.845-.401-2.32-.175-4.57.863-6.708.466-.96 1.093-1.802 1.957-2.446 1.64-1.222 3.606-1.176 5.185.13 1.33 1.102 2.081 2.563 2.477 4.207.671 2.782.452 5.477-.982 8-.294.517-.685.994-1.099 1.425-.883.922-1.303 1.973-1.235 3.267.178 3.332.306 6.668.454 10.002.068 1.528.157 3.056.197 4.585.029 1.115-.718 2.08-1.771 2.39-1.68.496-3.295-.794-3.214-2.57.103-2.257.21-4.514.314-6.772.01-.208.001-.417.001-.625h.02-.001Zm1.097-.133h-.005c-.112 2.546-.232 5.093-.332 7.64-.034.846.598 1.488 1.407 1.484.81-.004 1.43-.65 1.4-1.493-.052-1.47-.122-2.94-.188-4.41-.154-3.427-.309-6.854-.466-10.28-.068-1.49.47-2.74 1.51-3.785a6.35 6.35 0 0 0 1.35-1.963c.914-2.106 1.04-4.278.502-6.495-.325-1.34-.894-2.557-1.936-3.502-1.287-1.167-2.902-1.222-4.218-.095a5.965 5.965 0 0 0-1.142 1.338c-.847 1.346-1.198 2.852-1.228 4.43-.049 2.461.527 4.689 2.341 6.502.967.967 1.382 2.197 1.317 3.58-.111 2.35-.209 4.7-.312 7.05v-.001ZM19.694 17.88l-.001 15.72c0 1.093-.617 1.969-1.59 2.284a2.308 2.308 0 0 1-3.035-2.241c.016-1.066.07-2.131.12-3.197.08-1.76.166-3.52.26-5.279.01-.213-.046-.332-.243-.434-.402-.205-.812-.408-1.172-.674-1.204-.894-1.692-2.116-1.51-3.592.42-3.403.952-6.79 1.807-10.114.576-2.235 1.27-4.43 2.418-6.45.514-.902 1.115-1.735 1.925-2.4.221-.182.446-.305.727-.17.272.132.295.385.295.653-.002 5.297-.002 10.595-.002 15.893v.001ZM18.62 3.206l-.149-.064c-.433.76-.91 1.497-1.29 2.282-.986 2.044-1.584 4.221-2.095 6.422-.675 2.902-1.131 5.842-1.489 8.798-.138 1.146.288 2.043 1.261 2.662.38.242.78.456 1.189.649.386.182.539.438.512.875-.103 1.665-.178 3.333-.257 5-.059 1.262-.12 2.524-.157 3.787-.027.904.823 1.52 1.655 1.223.543-.194.822-.664.822-1.388V3.207h-.002Z" fill="#9D15A0" stroke="#9D15A0" stroke-width=".2"/></svg>