<svg width="35" height="35" fill="none" xmlns="http://www.w3.org/2000/svg"><mask id="a" fill="#fff"><path d="M13.603 16.523v-.396c-.001-3.513.008-7.025-.009-10.539-.007-1.361.657-2.326 1.651-3.11 1.242-.979 2.677-1.547 4.19-1.89 4.01-.907 7.977-.833 11.848.702 1.154.457 2.205 1.101 2.992 2.113.471.606.715 1.29.714 2.075-.005 7.541-.024 15.083.01 22.624.008 1.446-.558 2.498-1.626 3.344-1.301 1.03-2.808 1.61-4.394 1.956-3.904.854-7.763.773-11.538-.702-.114-.044-.306-.06-.386.007-1.283 1.079-2.798 1.618-4.394 1.93-2.905.57-5.793.495-8.633-.41-1.04-.332-2.017-.8-2.85-1.538C.4 32.002-.01 31.171 0 30.082c.031-3.119.017-6.238.004-9.358-.004-.883.339-1.596.936-2.196.988-.994 2.22-1.54 3.53-1.908 2.926-.822 5.868-.824 8.818-.139.07.017.14.039.21.054.023.005.048-.005.104-.013Zm10.446-6.857c1.839-.004 3.44-.17 5.008-.58 1.394-.362 2.75-.84 3.859-1.82.355-.312.673-.714.886-1.138.42-.838.128-1.771-.715-2.56-.683-.64-1.486-1.088-2.35-1.402-4.07-1.48-8.173-1.5-12.288-.217-1.122.35-2.178.86-3.032 1.713-1.085 1.083-1.08 2.29 0 3.378.627.631 1.385 1.056 2.19 1.394 2.133.898 4.375 1.201 6.442 1.233v-.001Zm9.907-1.978c-1.203 1.159-2.607 1.804-4.113 2.237-3.245.934-6.527.992-9.819.323-1.964-.398-3.822-1.08-5.335-2.504-.01-.01-.04.004-.082.01 0 1.014.036 2.033-.01 3.048-.046.964.345 1.678 1.039 2.268.768.653 1.655 1.094 2.597 1.403 3.827 1.256 7.683 1.286 11.545.193 1.2-.338 2.336-.84 3.287-1.695.432-.389.848-.841.874-1.437.055-1.258.016-2.52.016-3.848l.001.002ZM9.191 17.011c-1.627.017-3.154.175-4.639.64-1.029.323-2.017.737-2.818 1.504-.967.927-.98 1.96.021 2.848a6.924 6.924 0 0 0 1.572 1.022c1.442.696 2.993.968 4.575 1.07 2.18.141 4.326-.04 6.398-.8.842-.309 1.639-.713 2.282-1.371.854-.874.89-1.838 0-2.665a6.933 6.933 0 0 0-1.736-1.157c-1.813-.856-3.762-1.064-5.655-1.092v.001Zm5.428-.245c.823.509 1.61.95 2.348 1.468.563.395.985.958 1.148 1.647.085.36.265.489.576.584 1.563.479 3.154.766 4.786.811 2.497.07 4.946-.19 7.295-1.118.96-.379 1.862-.861 2.57-1.652.393-.439.644-.939.64-1.554-.005-1.093 0-2.184-.002-3.277 0-.04-.024-.082-.045-.149-.849.818-1.818 1.377-2.876 1.77-3.648 1.358-7.383 1.468-11.155.704-1.917-.388-3.727-1.062-5.211-2.435-.011-.01-.04.004-.072.008v3.192h-.002Zm3.607 10.464c0 .312.017.619-.003.923-.076 1.208.247 2.453-.353 3.617 1.598.623 3.222.999 4.9 1.097 2.714.159 5.382-.08 7.947-1.074.95-.368 1.843-.844 2.559-1.606.467-.498.73-1.075.713-1.787-.022-.981-.005-1.964-.007-2.946 0-.098-.016-.198-.026-.3-.387.299-.728.593-1.1.84-.371.245-.76.474-1.165.654-3.425 1.52-7 1.733-10.644 1.202-.934-.137-1.851-.404-2.82-.62Zm.019-5.79c-.006.042-.017.09-.017.137 0 1.425.006 2.85-.008 4.273-.002.26.147.296.32.352 1.462.478 2.958.774 4.49.85 2.619.133 5.19-.12 7.662-1.073.94-.363 1.823-.831 2.541-1.57.496-.508.773-1.104.756-1.843-.021-.97-.005-1.94-.006-2.91 0-.09-.012-.182-.013-.198-.73.456-1.425.997-2.201 1.355-3.504 1.61-7.181 1.778-10.92 1.213-.874-.131-1.732-.386-2.603-.586h-.001Zm-1.031 6.369c-.702.393-1.37.834-2.088 1.155-1.47.657-3.034.923-4.627 1.028-2.237.149-4.446-.017-6.595-.718-1.033-.336-1.999-.816-2.89-1.605 0 .876.026 1.668-.008 2.459-.03.712.247 1.258.74 1.72.64.602 1.396 1.004 2.211 1.28 3.282 1.109 6.589 1.124 9.9.147 1.022-.302 2.004-.736 2.738-1.555.278-.31.554-.739.59-1.135.087-.936.029-1.884.029-2.777Zm-16.2-5.034c0 .886.014 1.732-.005 2.578-.013.61.22 1.092.635 1.505.552.55 1.218.921 1.932 1.186 3.366 1.245 6.775 1.28 10.205.314.943-.266 1.836-.66 2.602-1.304.559-.47.889-1.042.847-1.816-.03-.574-.006-1.153-.006-1.73v-.787a7.972 7.972 0 0 1-3.58 1.84c-1.144.264-2.313.495-3.48.554-3.247.164-6.385-.225-9.15-2.338v-.002Z"/></mask><path d="M13.603 16.523v-.396c-.001-3.513.008-7.025-.009-10.539-.007-1.361.657-2.326 1.651-3.11 1.242-.979 2.677-1.547 4.19-1.89 4.01-.907 7.977-.833 11.848.702 1.154.457 2.205 1.101 2.992 2.113.471.606.715 1.29.714 2.075-.005 7.541-.024 15.083.01 22.624.008 1.446-.558 2.498-1.626 3.344-1.301 1.03-2.808 1.61-4.394 1.956-3.904.854-7.763.773-11.538-.702-.114-.044-.306-.06-.386.007-1.283 1.079-2.798 1.618-4.394 1.93-2.905.57-5.793.495-8.633-.41-1.04-.332-2.017-.8-2.85-1.538C.4 32.002-.01 31.171 0 30.082c.031-3.119.017-6.238.004-9.358-.004-.883.339-1.596.936-2.196.988-.994 2.22-1.54 3.53-1.908 2.926-.822 5.868-.824 8.818-.139.07.017.14.039.21.054.023.005.048-.005.104-.013Zm10.446-6.857c1.839-.004 3.44-.17 5.008-.58 1.394-.362 2.75-.84 3.859-1.82.355-.312.673-.714.886-1.138.42-.838.128-1.771-.715-2.56-.683-.64-1.486-1.088-2.35-1.402-4.07-1.48-8.173-1.5-12.288-.217-1.122.35-2.178.86-3.032 1.713-1.085 1.083-1.08 2.29 0 3.378.627.631 1.385 1.056 2.19 1.394 2.133.898 4.375 1.201 6.442 1.233v-.001Zm9.907-1.978c-1.203 1.159-2.607 1.804-4.113 2.237-3.245.934-6.527.992-9.819.323-1.964-.398-3.822-1.08-5.335-2.504-.01-.01-.04.004-.082.01 0 1.014.036 2.033-.01 3.048-.046.964.345 1.678 1.039 2.268.768.653 1.655 1.094 2.597 1.403 3.827 1.256 7.683 1.286 11.545.193 1.2-.338 2.336-.84 3.287-1.695.432-.389.848-.841.874-1.437.055-1.258.016-2.52.016-3.848l.001.002ZM9.191 17.011c-1.627.017-3.154.175-4.639.64-1.029.323-2.017.737-2.818 1.504-.967.927-.98 1.96.021 2.848a6.924 6.924 0 0 0 1.572 1.022c1.442.696 2.993.968 4.575 1.07 2.18.141 4.326-.04 6.398-.8.842-.309 1.639-.713 2.282-1.371.854-.874.89-1.838 0-2.665a6.933 6.933 0 0 0-1.736-1.157c-1.813-.856-3.762-1.064-5.655-1.092v.001Zm5.428-.245c.823.509 1.61.95 2.348 1.468.563.395.985.958 1.148 1.647.085.36.265.489.576.584 1.563.479 3.154.766 4.786.811 2.497.07 4.946-.19 7.295-1.118.96-.379 1.862-.861 2.57-1.652.393-.439.644-.939.64-1.554-.005-1.093 0-2.184-.002-3.277 0-.04-.024-.082-.045-.149-.849.818-1.818 1.377-2.876 1.77-3.648 1.358-7.383 1.468-11.155.704-1.917-.388-3.727-1.062-5.211-2.435-.011-.01-.04.004-.072.008v3.192h-.002Zm3.607 10.464c0 .312.017.619-.003.923-.076 1.208.247 2.453-.353 3.617 1.598.623 3.222.999 4.9 1.097 2.714.159 5.382-.08 7.947-1.074.95-.368 1.843-.844 2.559-1.606.467-.498.73-1.075.713-1.787-.022-.981-.005-1.964-.007-2.946 0-.098-.016-.198-.026-.3-.387.299-.728.593-1.1.84-.371.245-.76.474-1.165.654-3.425 1.52-7 1.733-10.644 1.202-.934-.137-1.851-.404-2.82-.62Zm.019-5.79c-.006.042-.017.09-.017.137 0 1.425.006 2.85-.008 4.273-.002.26.147.296.32.352 1.462.478 2.958.774 4.49.85 2.619.133 5.19-.12 7.662-1.073.94-.363 1.823-.831 2.541-1.57.496-.508.773-1.104.756-1.843-.021-.97-.005-1.94-.006-2.91 0-.09-.012-.182-.013-.198-.73.456-1.425.997-2.201 1.355-3.504 1.61-7.181 1.778-10.92 1.213-.874-.131-1.732-.386-2.603-.586h-.001Zm-1.031 6.369c-.702.393-1.37.834-2.088 1.155-1.47.657-3.034.923-4.627 1.028-2.237.149-4.446-.017-6.595-.718-1.033-.336-1.999-.816-2.89-1.605 0 .876.026 1.668-.008 2.459-.03.712.247 1.258.74 1.72.64.602 1.396 1.004 2.211 1.28 3.282 1.109 6.589 1.124 9.9.147 1.022-.302 2.004-.736 2.738-1.555.278-.31.554-.739.59-1.135.087-.936.029-1.884.029-2.777Zm-16.2-5.034c0 .886.014 1.732-.005 2.578-.013.61.22 1.092.635 1.505.552.55 1.218.921 1.932 1.186 3.366 1.245 6.775 1.28 10.205.314.943-.266 1.836-.66 2.602-1.304.559-.47.889-1.042.847-1.816-.03-.574-.006-1.153-.006-1.73v-.787a7.972 7.972 0 0 1-3.58 1.84c-1.144.264-2.313.495-3.48.554-3.247.164-6.385-.225-9.15-2.338v-.002Z" fill="currentColor" stroke="#9D15A0" stroke-width=".3" mask="url(#a)"/></svg>