<svg width="37" height="35" fill="none" xmlns="http://www.w3.org/2000/svg"><path d="M9.766 11.067c-2.353 1.579-5.05 1.215-6.833-.319a5.52 5.52 0 0 1-1.49-6.36 5.52 5.52 0 0 1 5.258-3.382c2.729.078 5.105 2.157 5.393 5.147h.364c3.836 0 7.672-.004 11.509.008.276 0 .405-.086.521-.333.567-1.213 1.17-2.41 1.736-3.623.383-.821 1.002-1.208 1.906-1.204 2.425.01 4.851.003 7.277.005.104 0 .238-.025.306.028.123.097.286.242.287.368 0 .128-.151.289-.278.376-.09.063-.247.033-.374.033-2.414.001-4.828.01-7.241-.005-.561-.004-.916.214-1.152.721-.51 1.098-1.05 2.183-1.575 3.274-.049.102-.09.207-.152.353H35.223c.094 0 .195-.023.279.005.165.055.413.103.458.22.055.142-.009.395-.114.525-.796.99-1.616 1.962-2.428 2.94-3.518 4.231-7.037 8.462-10.548 12.7a.951.951 0 0 0-.207.555c-.015 1.913-.01 3.826-.009 5.739 0 .769.258 1.132.98 1.378 1.6.541 3.202 1.073 4.798 1.62.75.256 1.183.803 1.333 1.572.102.528-.061.721-.591.721H13.012c-.536 0-.675-.155-.594-.68.127-.827.605-1.37 1.39-1.638 1.566-.53 3.134-1.053 4.7-1.578.759-.254 1.006-.59 1.006-1.39.002-1.925.005-3.85-.007-5.773a.85.85 0 0 0-.176-.5c-3.115-3.764-6.239-7.519-9.362-11.276-.06-.07-.124-.137-.203-.224v-.003Zm.47-.716c.197.244.338.422.483.597 3.054 3.675 6.111 7.348 9.16 11.027.165.2.33.29.59.277.42-.023.84-.02 1.258 0 .245.011.405-.07.562-.26 2.594-3.132 5.197-6.258 7.796-9.386.28-.336.556-.676.835-1.014-.19-.01-.339.046-.489.093-3.434 1.081-6.866.998-10.27-.105-2.165-.7-4.365-1.16-6.64-1.223-1.066-.03-2.135-.005-3.288-.005h.002Zm13.68-3.392H7.408c.472.57.903 1.098 1.342 1.62.284.338.52.8.885.96.367.162.87.026 1.311.01 2.292-.088 4.573.012 6.811.543 1.278.304 2.533.705 3.795 1.074.234.068.351.02.458-.206.592-1.252 1.2-2.498 1.802-3.745.034-.071.06-.146.103-.256h.001Zm10.835 0c-.09-.01-.132-.017-.174-.017-3.171 0-6.342.003-9.513-.008-.233 0-.297.127-.374.287-.615 1.28-1.233 2.56-1.85 3.838l-.163.351c.52.06.992.134 1.466.168 2.063.15 4.1.03 6.072-.659 1.186-.414 2.243-1.005 3-2.062.405-.568.886-1.082 1.332-1.62.063-.076.117-.16.204-.278Zm-5.847 26.34c-.17-.419-.462-.63-.841-.758-1.567-.525-3.133-1.054-4.7-1.583-1.026-.347-1.494-1-1.495-2.093-.002-1.808 0-3.615 0-5.423v-.383h-1.543v5.727c0 1.182-.474 1.837-1.596 2.211-1.544.516-3.09 1.034-4.633 1.552-.377.126-.679.334-.807.75h15.616-.001ZM2.86 9.513l2.544-2.541h-3.56c.04.93.453 1.93 1.016 2.54Zm.043-5.993a4.522 4.522 0 0 0-1.077 2.603h3.675c-.87-.87-1.724-1.727-2.598-2.603Zm7.308.05L7.648 6.127h3.586c.015-.825-.487-2.03-1.023-2.556ZM6.12 7.644l-2.569 2.563c.605.574 1.738 1.045 2.57 1.043V7.644Zm-2.529-4.79c.872.87 1.726 1.723 2.52 2.518V1.834c-.96.072-1.959.491-2.52 1.02ZM6.966 5.43l2.588-2.548A4.614 4.614 0 0 0 6.966 1.83v3.6Zm-.005 5.84c.85-.09 1.592-.349 2.292-.839L6.96 7.675v3.595Z" fill="#9D15A0" stroke="#9D15A0" stroke-width=".4"/></svg>