<svg width="592" height="264" fill="#9d15a0" xmlns="http://www.w3.org/2000/svg"><path d="M504.56 38.11C448.82 13.53 374.75 0 295.98 0 217.22 0 143.14 13.53 87.41 38.11 31.04 62.97 0 96.39 0 132.2c0 35.82 31.04 69.23 87.41 94.09 55.73 24.58 129.81 38.12 208.57 38.12 78.77 0 152.84-13.54 208.58-38.12 56.36-24.86 87.41-58.27 87.41-94.09 0-35.81-31.05-69.23-87.41-94.09zm-16.01 185.16c-51.46 23.8-119.85 36.9-192.57 36.9-72.71 0-141.1-13.1-192.56-36.9-52.04-24.06-80.7-56.4-80.7-91.07s28.66-67.01 80.7-91.07C154.88 17.34 223.27 4.24 295.98 4.24c72.72 0 141.11 13.1 192.57 36.89 52.03 24.06 80.69 56.4 80.69 91.07s-28.66 67.01-80.69 91.07z"/><path d="M157.561 96.713c.169-.689.297-1.392.517-2.064.388-1.183 1.016-2.168 2.313-2.555 1.242-.37 2.322-.084 3.178.842.894.968.433 2.025-.003 3.021-.415.947-1.03 1.829-1.292 2.811-.15.562.042 1.448.431 1.844.286.291 1.275.24 1.717-.035 1.454-.901 2.934-1.835 4.167-3.005 4.915-4.666 8.887-10.126 12.842-15.594.303-.42.595-.848 1.035-1.478-1.496-.121-2.825-.329-4.151-.311-1.914.027-3.872.002-5.729.39-2.915.61-4.065 2.318-3.996 5.275.012.514.187 1.141-.593 1.19-.874.055-.755-.658-.767-1.197-.092-4.072 2.126-6.699 6.202-6.936 2.994-.174 6.012-.005 9.015.123.761.033 1.152-.156 1.553-.751 8.717-12.948 16.638-26.35 23.181-40.542.128-.277.512-.578.808-.613a97.977 97.977 0 0 1 4.9-.45c1.097-.076 1.647.474 1.598 1.59-.12 2.728-.166 5.461-.374 8.182a996.237 996.237 0 0 1-1.348 15.712c-.501 5.433-1.072 10.86-1.578 16.293-.584 6.272-1.134 12.547-1.686 18.822-.035.394.048.799.073 1.199.156 2.583 1.161 2.966 3.409 1.773 1.363-.723 2.37-2.188 3.402-3.432.573-.692.836-1.633 1.305-2.423.192-.324.558-.544.845-.811.273.527.599 1.036.79 1.591.065.188-.176.519-.336.741-1.858 2.579-4.098 4.727-7.032 6.047-2.538 1.142-5.185.442-6.848-1.803-1.821-2.458-2.365-5.333-2.433-8.287-.061-2.646.099-5.298.158-7.947.01-.434.001-.868.001-1.386-3.1-.335-6.159-.674-9.221-.994-2.513-.263-5.034-.465-7.541-.775-.857-.106-1.299.212-1.756.871-3.71 5.35-7.56 10.605-12.283 15.113-1.898 1.811-4.019 3.484-6.286 4.79-3.441 1.982-6.46.689-7.885-3.006-.082-.213-.199-.412-.299-.618-.003-.403-.003-.805-.003-1.207zm48.783-53.118c-6.114 12.32-12.75 24.207-20.411 35.725l16.774 1.696 3.637-37.421zM325.491 138.506c-.26-1.713-.68-3.419-.751-5.139-.221-5.359 2.284-9.376 6.493-12.45 4.131-3.017 8.884-4.497 13.805-5.607 1.693-.382 3.315-.504 4.96.055 1.036.352 1.71.892 1.527 2.196-.815 5.796-1.566 11.6-2.34 17.402-.053.393-.115.785-.172 1.178l.388.332c.22-.371.381-.797.669-1.105 5.085-5.435 10.442-10.577 16.475-14.964 3.12-2.268 6.359-4.373 10.217-5.166 1.947-.4 3.911-.344 5.769.54 1.197.57 1.926 1.451 1.789 2.839-.173 1.746-.205 3.535-.642 5.216-.486 1.871-2.166 2.639-3.681 2.084-2.023-.741-2.123-2.328-.911-4.307.362-.592 1.045-.982 1.554-1.492.393-.394.829-.782 1.093-1.257.545-.979.294-1.591-.802-1.899-1.631-.457-3.245-.327-4.821.335-4.443 1.867-8.341 4.605-12.085 7.578-5.457 4.334-10.384 9.23-15.07 14.375-.211.232-.41.476-.567.659 1.851 0 3.739-.276 5.515.054 4.565.849 7.554 3.718 8.621 8.191 1.244 5.214 2.093 10.521 3.186 15.773.856 4.116 1.801 8.215 3.696 12.016.018.036.044.067.063.103 1.853 3.476 5.274 3.768 7.631.595.252-.339.13-1.037.034-1.54-.448-2.331.984-4.159 3.273-4.118 2.284.042 3.421 2.148 2.331 4.166a5.631 5.631 0 0 0-.649 2.352c-.047 1.088.722 1.689 1.733 1.301 1.131-.434 2.395-.938 3.174-1.799 2.445-2.698 5.012-5.373 6.943-8.429 3.933-6.226 7.522-12.672 11.144-19.089.558-.988.533-2.305.848-3.803 2.044-.078 4.228-.208 6.413-.224 1.026-.007 1.201.86 1.147 1.651-.183 2.721-.368 5.445-.661 8.155-.678 6.258-1.449 12.507-2.108 18.767-.106 1.011.056 2.089.29 3.09.372 1.588 1.25 2.087 2.848 1.804 1.667-.296 2.919-1.283 3.994-2.513.706-.808 1.346-1.675 2.069-2.582.599.504.891 1.057.421 1.668-1.836 2.385-3.862 4.525-7.07 4.979-2.905.411-5.382-.867-6.884-3.542-1.419-2.527-1.87-5.305-1.837-8.119.056-4.777.315-9.552.487-14.328.008-.22.001-.441.001-1.025-1.494 2.77-2.771 5.237-4.138 7.653-2.908 5.142-6.062 10.124-10.11 14.465-1.117 1.198-2.347 2.325-3.667 3.29-2.902 2.119-6.338 2.847-9.026-.852-1.57.816-3.026 1.975-4.661 2.346-4.56 1.035-8.72-.945-11.209-4.952-1.938-3.12-2.761-6.614-3.544-10.147-1.306-5.896-2.671-11.781-4.156-17.634-.365-1.439-1.163-2.817-1.98-4.081-1.193-1.845-2.311-2.15-4.401-1.642-1.391 5.245-2.654 10.454-4.165 15.591-1.768 6.011-4.031 11.836-7.742 16.969-1.836 2.539-4.016 4.716-7.115 5.679-.832.259-1.722.413-2.592.45-1.47.062-2.498-.812-3.047-2.428-.805-2.371-.533-4.787-.083-7.147 1.567-8.223 5.902-14.977 11.423-21.074.162-.179.31-.38.501-.52 2.714-1.969 3.667-4.814 4.297-7.967 1.506-7.538 3.198-15.039 4.811-22.555.04-.187.027-.385.05-.774-.857.209-1.62.367-2.366.581-4.023 1.153-7.938 2.547-11.248 5.233-3.551 2.881-5.131 6.572-4.555 11.143.095.755.247 1.51.258 2.267.006.394-.24.791-.372 1.187l-.713-.038zm12.003 11.752c-.285.203-.398.256-.474.341-.776.865-1.576 1.71-2.313 2.607-4.552 5.538-8.155 11.587-9.57 18.707-.343 1.727-.25 3.568-.139 5.343.035.555.701 1.336 1.24 1.51.449.145 1.34-.295 1.678-.745.881-1.173 1.715-2.428 2.305-3.766 3.365-7.639 5.186-15.753 7.273-23.997zM323.724 69.13c.605-2.019.89-2.266 2.688-2.26 1.162.003 2.323.129 3.485.151.95.018 1.16.53 1.02 1.341-.448 2.605-.845 5.221-1.354 7.814-1.033 5.265-2.126 10.518-3.189 15.777-.021.102.018.216.032.355l4.62-4.419c1.08.726 1.109.964.188 1.902-1.07 1.089-2.089 2.233-3.215 3.261-1.702 1.554-2.499 3.444-2.929 5.712-1.655 8.734-3.342 17.467-5.297 26.137-1.487 6.598-4.412 12.539-9.532 17.183a14.702 14.702 0 0 1-2.216 1.644c-1.518.926-2.857.62-3.807-.894-1.399-2.231-1.622-4.748-1.563-7.297.182-7.973 2.933-15.114 7.204-21.724 1.565-2.423 3.208-4.813 5.014-7.057 1.476-1.834 2.392-3.71 2.668-6.113.442-3.853 1.303-7.657 1.982-11.483.042-.234.039-.476.076-.978-.37.415-.596.654-.806.906-3.379 4.062-7.074 7.788-11.535 10.673a17.031 17.031 0 0 1-3.097 1.57c-2.857 1.104-5.27.07-6.53-2.707-.131-.29-.244-.588-.381-.92-1.067.914-2.041 1.906-3.164 2.682-4.239 2.932-9.976 1.083-11.531-3.832-.665-2.101-.785-4.375-1.159-6.609-.221.248-.571.641-.923 1.032-3.294 3.648-6.783 7.076-11.107 9.512-1.358.765-2.776 1.486-4.429 1.233-2.624-.4-4.245-2.384-4.673-5.489-.689-5.005.723-9.545 3.123-13.809 3.698-6.569 8.789-11.721 15.809-14.744 1.014-.437 2.132-.685 3.228-.867 1.8-.299 3.333.235 4.317 1.698.534-.566.998-1.511 1.591-1.6 1.676-.252 3.508-.605 5.015.474.475.34.768 1.376.66 2.012-.416 2.442-.966 4.866-1.58 7.267-1.219 4.769-2.555 9.507-3.76 14.279-.61 2.418-.402 4.864.287 7.247.551 1.905 1.579 2.345 3.372 1.499 1.88-.886 3.147-2.448 4.328-4.085.104-.144.139-.372.131-.558-.278-6.434 2.292-11.876 6.023-16.849 3.472-4.627 7.733-8.349 13.16-10.575a13.137 13.137 0 0 1 1.948-.6c2.289-.542 4.413-.532 5.808 2.108zM303.43 92.206c0 .602-.038 1.207.006 1.806.226 3.065 2.788 4.411 5.384 2.787.875-.548 1.758-1.189 2.402-1.98 2.934-3.603 5.793-7.268 8.653-10.93.407-.521.862-1.118.972-1.737.668-3.762 1.27-7.537 1.831-11.317.175-1.181-.417-2.043-1.617-2.081-1.362-.043-2.825.047-4.087.509-3.612 1.322-6.316 3.912-8.61 6.91-3.613 4.721-4.632 10.279-4.934 16.033zm-36.939.445c.132.681.218 1.691.531 2.625.652 1.951 2.769 2.812 4.581 1.826.972-.529 1.948-1.195 2.666-2.021 2.547-2.933 5.013-5.939 7.44-8.973.53-.663.877-1.524 1.127-2.349a98.745 98.745 0 0 0 1.699-6.25 91.957 91.957 0 0 0 1.321-6.695c.203-1.299-.269-1.984-1.565-2.08-1.238-.092-2.575.021-3.749.407-3.17 1.043-5.594 3.216-7.806 5.638-4.544 4.976-5.62 11.171-6.245 17.872zm50.233 14.012c-.241.194-.349.248-.41.335-3.295 4.643-6.579 9.303-8.691 14.636-2.313 5.841-3.614 11.874-2.994 18.207.163 1.663.818 2.798 1.771 2.84 1.327.058 2.012-.98 2.462-1.979.932-2.074 1.965-4.162 2.472-6.356 1.578-6.82 2.967-13.685 4.349-20.549.462-2.297.684-4.642 1.041-7.134zM132.714 152.489c-2.159-1.629-3.993-3.529-5.164-5.962-2.922-6.07-2.069-11.816 1.596-17.283 4.414-6.584 10.514-10.651 18.285-12.228.377-.077.713-.386 1.053-.609.614-.403 1.195-1.131 1.83-1.178 1.859-.138 3.74-.052 5.605.059.358.021.684.56 1.126.949 2.925.719 6.2 1.217 9.249 2.335 7.9 2.897 12.362 8.882 13.706 17.015 2.415 14.615-2.476 26.799-13.24 36.643-5.641 5.159-12.518 7.68-20.185 8.271-4.793.37-9.092-.877-13.335-2.837-1.955-.903-4.035-1.533-6.029-2.356-.698-.288-1.083-.095-1.546.416-2.517 2.78-5.249 5.313-8.601 7.077-2.27 1.195-4.671 1.891-7.27 1.752-2.896-.155-4.726-3.09-3.304-5.607 2.279-4.034 5.807-6.193 10.502-6.293 1.313-.028 2.857.401 3.875-.152 1.029-.56 1.601-2.04 2.263-3.182 3.152-5.44 6.267-10.901 9.391-16.356.075-.131.115-.281.193-.474zm-5.093 21.166c3.677 1.402 7.368 2.803 11.054 4.217 2.436.935 4.979 1.507 7.537 1.006 3.009-.589 6.065-1.241 8.896-2.375 10.028-4.016 16.666-11.114 18.09-22.072.997-7.668.474-15.385-1.261-22.964-.779-3.402-2.09-6.582-4.558-9.131-3.015-3.113-6.905-4.169-11.149-4.516-3.898 12.408-9.547 24.037-15.516 35.587.313.118.49.219.678.25 3.732.62 7.441.345 11.09-.514 1.076-.254 1.658-.053 2.138.962-4.44 1.713-9.012 2.16-13.691 1.568-.898-.114-1.391-.014-1.904.85-2.288 3.856-4.617 7.692-7.072 11.443-1.329 2.03-2.94 3.878-4.332 5.689zm20.352-54.975-.435-.343c-7.597 1.841-12.661 6.51-15.215 13.925-1.987 5.77-1.115 11.113 2.388 16.023l.422.085 12.84-29.69zm-27.858 55.172c-1.483 0-2.565-.017-3.645.003-3.667.067-7.477 3.13-8.323 6.675-.385 1.614.588 2.743 2.216 2.462.73-.126 1.501-.373 2.11-.78 3.117-2.086 5.191-5.131 7.642-8.36zM283.104 175.725c2.035.252 3.193 1.418 3.785 2.94 1.051 2.703 1.859 5.501 2.762 8.239l8.274-7.072c.88.764.827 1.307.106 1.901-2.539 2.094-5.045 4.227-7.595 6.308-.552.451-.788.892-.716 1.62.531 5.344.385 10.678-.704 15.937-2.223 10.736-7.649 19.366-17.077 25.235-1.314.818-2.766 1.444-4.214 2.005-1.386.537-2.558.219-3.197-1.085-.649-1.325-1.237-2.848-1.244-4.288-.025-5.443 1.789-10.436 4.146-15.276 2.843-5.838 7.2-10.488 11.619-15.1 1-1.044 1.957-2.15 3.072-3.059.923-.752 1.212-1.586 1.107-2.704-.333-3.547-.578-7.103-.98-10.641-.099-.873-.57-1.751-1.04-2.523-.483-.792-1.089-1.098-2.03-.29-3.055 2.621-7.014 2.764-10.04.438-1.817-1.397-2.645-3.397-2.996-5.576-.247-1.528-.282-3.089-.426-4.807-.401.45-.753.85-1.111 1.246-3.102 3.439-6.37 6.708-10.399 9.058-1.319.769-2.827 1.47-4.314 1.641-2.884.331-5.008-2.04-5.48-5.498-.665-4.875.665-9.317 2.965-13.489 3.7-6.713 8.856-11.958 15.988-15.056a11.851 11.851 0 0 1 2.399-.747c2.046-.405 3.936-.212 5.371 1.958.159-2.088 1.503-2.171 2.924-2.127.722.023 1.453-.014 2.164.085 1.485.207 2.213.992 1.961 2.471-.423 2.481-.989 4.942-1.611 7.382-1.216 4.769-2.555 9.506-3.756 14.278-.609 2.417-.398 4.864.293 7.245.538 1.854 1.55 2.337 3.269 1.521.915-.435 2.09-.758 1.984-2.214-.016-.218.366-.496.606-.697 2.484-2.077 5.034-4.078 7.453-6.227 3.793-3.37 7.254-7.047 9.882-11.435 1.398-2.335 2.355-4.812 2.526-7.552a4.575 4.575 0 0 0-.073-1.192c-.311-1.511-.9-2.02-2.343-1.554-2.42.782-4.874 1.585-7.119 2.754-2.69 1.401-5.176 3.195-7.749 4.821-.135.085-.251.256-.389.271-.433.047-.871.039-1.308.052.141-.356.176-.863.438-1.046 2.886-2.013 5.678-4.217 8.762-5.872 2.354-1.263 5.034-2.137 7.671-2.606 4.117-.732 6.77 1.279 6.724 5.764-.02 1.895-.336 3.844-.869 5.666-1.78 6.078-5.701 10.63-10.839 14.12-2.37 1.61-5.015 2.813-7.536 4.199-.276.154-.556.295-1.096.578zm-32.462-4.892c.125.652.211 1.619.504 2.519.679 2.085 2.822 2.935 4.732 1.851.93-.528 1.868-1.167 2.559-1.967a300.779 300.779 0 0 0 7.433-8.978c.53-.663.875-1.525 1.124-2.35a97.306 97.306 0 0 0 1.656-6.138c.523-2.254.996-4.524 1.358-6.809.203-1.281-.285-1.96-1.589-2.065-1.2-.096-2.499.003-3.637.376-3.212 1.052-5.673 3.238-7.911 5.693-4.538 4.981-5.606 11.178-6.229 17.868zm32.095 24.533c-1.973 2.109-3.965 4.2-5.916 6.33-5.345 5.834-9.211 12.488-11.032 20.237-.587 2.495-1.132 5.018-.636 7.613.347 1.815 1.582 2.416 3.002 1.271 1.199-.967 2.339-2.108 3.197-3.379 4.769-7.063 7.979-14.857 10.393-22.988.862-2.907 1.274-5.913.992-9.084zM386.178 99.368c.542-.8 1.233-1.537 1.602-2.409 1.747-4.123 3.424-8.276 5.086-12.434.579-1.447.974-2.969 1.573-4.407 1.348-3.24 1.951-6.582 1.644-10.085-.042-.477-.003-.964.024-1.445.05-.885.444-1.429 1.417-1.391 1.322.051 2.659-.011 3.965.159 1.655.215 2.246 1.007 2.23 2.716-.054 5.663-.222 11.327-.156 16.989.046 3.886.31 7.777.668 11.648.216 2.326.903 2.554 3.014 1.405 2.024-1.102 3.186-2.99 4.379-4.903.83.144 1.245.466.839 1.372-1.436 3.206-5.397 6.824-10.367 5.442-2.528-.703-4.02-2.522-4.634-4.926-.652-2.548-1.058-5.168-1.422-7.778-.246-1.764-.235-3.563-.351-5.549-.931 2.439-1.65 4.769-2.693 6.943-1.398 2.913-2.811 5.869-4.643 8.513-3.101 4.475-7.045 4.024-9.523-.844-1.243-2.442-1.833-5.038-1.824-7.762.006-2.048.127-4.095.155-6.143.029-2.044.006-4.09.006-6.071-.279.593-.622 1.319-.961 2.047-2.767 5.93-5.74 11.744-9.972 16.797a22.876 22.876 0 0 1-3.262 3.19c-3.759 2.994-6.724 2.625-9.633-1.113-1.091.552-2.147 1.22-3.294 1.643-5.353 1.975-12.975.144-15.108-7.299-2.574-8.984-.74-16.977 5.947-23.656 1.765-1.763 3.944-2.825 6.505-3.055 2.501-.225 4.512 1.301 4.78 3.795.258 2.399-.635 4.487-1.871 6.445-2.101 3.329-4.967 5.863-8.382 7.776-.727.407-.997.864-.897 1.707.431 3.647 1.315 7.162 2.952 10.46a9.404 9.404 0 0 0 1.274 1.887c.543.638 1.21 1 2.126.613A94.018 94.018 0 0 1 351.605 98c.833-.306 1.101-.797 1.056-1.722-.106-2.204 1.357-3.573 3.503-3.454 2.365.131 3.384 2.075 2.086 4.04-.577.873-.974 1.744-.592 2.802.301.833.852 1.196 1.756 1.017 1.589-.315 2.706-1.35 3.743-2.47 3.359-3.628 5.757-7.906 7.953-12.274 2.281-4.537 4.356-9.181 6.42-13.822.441-.991.508-2.168.633-3.273.119-1.06.561-1.578 1.675-1.549 1.482.038 2.966-.006 4.448-.022 1.073-.012 1.509.339 1.445 1.573-.407 7.817-.76 15.638-1.022 23.461-.062 1.868.261 3.754.477 5.623.054.468.382.905.584 1.356.136.026.272.054.408.082zM340.59 84.126c2.67-1.811 4.941-3.609 6.817-5.887 1.498-1.819 2.692-3.789 3.18-6.121.285-1.364-.043-2.627-1.161-3.456-1.069-.793-2.361-.603-3.391.086-.941.629-1.868 1.433-2.483 2.368-2.532 3.848-2.846 8.246-2.962 13.01zM447.857 170.422l4.273-4.502c1.226.85 1.23 1 .331 1.938-1.529 1.595-3.096 3.159-4.52 4.844a5.898 5.898 0 0 0-1.209 2.51c-1.9 9.174-3.642 18.382-5.619 27.539-1.376 6.375-4.106 12.134-8.836 16.779-.854.838-1.819 1.584-2.811 2.256-1.601 1.085-3.031.754-4.059-.924-1.356-2.215-1.512-4.707-1.43-7.207.303-9.171 3.709-17.21 9.069-24.514 1.495-2.037 3.115-3.988 4.515-6.087.587-.88.898-2.019 1.08-3.083.905-5.286 1.726-10.586 2.604-16.053-.563 1.217-1.052 2.317-1.577 3.398-1.717 3.536-3.46 7.059-6.069 10.057-3.4 3.905-7.053 3.43-9.331-1.23-1.051-2.148-1.793-4.417-1.681-6.821.351-7.576.8-15.147 1.196-22.721.056-1.059.528-1.59 1.618-1.554 1.601.054 3.203.067 4.803.126.865.032 1.126.527 1.067 1.368-.301 4.285-.704 8.57-.803 12.86-.118 5.129.012 10.264.099 15.396.012.684.404 1.361.62 2.041l.451.051c.485-.609 1.099-1.155 1.434-1.838 1.852-3.769 3.759-7.519 5.414-11.375 2.16-5.034 4.15-10.143 6.123-15.255 1.457-3.777 1.537-3.888 5.717-3.369 2.082.258 2.127.267 1.729 2.345-1.401 7.314-2.835 14.622-4.255 21.932-.067.346-.122.694-.182 1.041l.239.052zm-9.882 14.749-.381-.092c-.625.874-1.243 1.752-1.875 2.62-5.484 7.525-9.165 15.769-9.851 25.158-.148 2.023.003 4.078.148 6.108.064.902.612 1.855 1.59 1.839.655-.01 1.555-.547 1.899-1.118.88-1.459 1.658-3.017 2.214-4.626 2.335-6.756 3.623-13.767 4.847-20.785.528-3.025.943-6.069 1.409-9.104zM212.146 173.793c3.07-3.106 6.255-6.11 9.151-9.37 1.066-1.2 1.404-3.027 2.159-4.526 2.471-4.909 5.586-9.337 10.409-12.177 1.891-1.113 4.077-1.866 6.225-2.366 2.99-.695 5.001 1.099 5.092 4.166.09 3.02-.771 5.694-2.926 7.881a4.499 4.499 0 0 1-.74.609c-1.276.835-2.435.789-3.11-.107-.773-1.025-.51-2.903.605-3.667.686-.47 1.489-.769 2.238-1.149 1.711-.868 2.489-2.359 2.227-4.253-.133-.963-.742-1.664-1.635-1.638-1.407.04-2.912.115-4.187.638-3.025 1.24-5.162 3.637-7.006 6.251-4.129 5.852-5.591 12.324-4.284 19.388.101.546.295 1.082.5 1.601 1.316 3.333 4.089 4.291 7.009 2.21 1.442-1.028 2.658-2.421 3.808-3.79.639-.761 1.054-1.003 1.76-.234-2.606 5.003-8.057 7.869-13.586 7.141-3.017-.397-5.449-2.897-5.766-6.203-.182-1.891-.033-3.813-.033-5.754-.534.563-1.129 1.241-1.776 1.864-2.572 2.478-5.167 4.931-7.735 7.413-.335.324-.517.805-.85 1.13-.542.53-1.095 1.306-1.743 1.421-1.713.303-3.48.307-5.505.45l6.55-21.971-.166-.103c-1.3 1.621-2.537 3.298-3.915 4.849-2.371 2.669-4.766 5.322-7.271 7.863-1.991 2.02-4.111 3.923-6.266 5.77-1.944 1.666-4.232 2.725-6.759 3.224-3.016.595-4.802-.5-5.541-3.481-.517-2.086-.44-4.144.703-6.046.646-1.075 1.545-1.822 2.839-2.009.996-.144 1.935-.158 2.496.889.492.917.259 2.344-.658 3.058-.748.583-1.649.969-2.479 1.447-1.189.686-1.582 1.566-1.17 2.816.358 1.086 1.069 1.771 2.31 1.71 2.181-.107 4.04-1.05 5.648-2.411 5.068-4.289 8.242-9.627 8.907-16.348.275-2.775.438-5.526-.34-8.241-1.18-4.113-3.606-5.314-7.555-3.582-1.555.682-2.948 1.737-4.603 2.736l-1.006-.57c2.853-2.707 5.934-4.571 9.789-4.827 1.191-.079 2.423-.048 3.594.164 4.433.806 6.407 3.422 6.259 7.94-.135 4.116-1.221 7.967-2.902 11.761.121-.1.248-.195.362-.303a5.51 5.51 0 0 0 .418-.433c2.174-2.577 4.314-5.184 6.525-7.729 2.456-2.825 3.364-6.321 4.337-9.783.266-.945.722-1.488 1.679-1.526 1.477-.06 2.961-.161 4.432-.068 1.142.072 1.444.702 1.092 2.148-.634 2.604-1.242 5.221-2.047 7.774-1.791 5.685-3.698 11.333-5.553 16.998-.121.368-.2.75-.299 1.125l.289.23zM481.97 147.136c-.105-2.895-.351-5.741-.286-8.581.271-11.736 6.94-20.918 19.524-23.268 5.311-.992 10.619-.783 15.952-.32 1.865.162 3.75.131 5.625.12.406-.002.823-.27 1.212-.463.649-.324.885-.8.414-1.455-.483-.671-.414-1.409.211-1.801.587-.368 1.441-.649 2.063-.498.378.092.732 1.066.76 1.659.064 1.348-.842 2.178-1.922 2.821-2.165 1.288-4.606 1.264-6.994 1.407-8.554.511-16.734 2.396-24.149 6.833-5.195 3.109-9.231 7.296-10.329 13.508-.448 2.536-.289 5.186-.335 7.786-.074 4.251.406 8.579-.233 12.739-1.253 8.159-4.996 15.174-11.484 20.504-4.139 3.401-9.164 2.834-12.128.535-2.41-1.869-3.296-4.549-3.759-7.42-2.024-12.54 8.198-23.02 18.124-25.426 3.353-.812 5.064-.491 7.734 1.32zm-19.004 26.18c.085.667.156 1.834.394 2.965.435 2.065 1.73 2.954 3.679 2.24 1.54-.564 3.1-1.372 4.325-2.444 5.787-5.065 9.266-11.47 10.485-19.065.428-2.669.52-5.352-.625-7.913-.826-1.85-2.547-2.729-4.421-2.01a12.883 12.883 0 0 0-3.491 2.031c-3.028 2.479-5.132 5.7-6.887 9.155-2.32 4.57-3.668 9.379-3.459 15.041zM233.748 83.938c3.875-.385 7.117.331 9.72 2.811 1.618 1.542 3.153 3.203 4.517 4.972 1.613 2.091 3.019 4.344 4.482 6.548 1.561 2.352 2.773 2.516 4.87.084.586-.68.953-1.55 1.468-2.412l1.173.47c-1.268 2.509-2.395 5.199-5.323 5.737-3.201.588-6.391.395-8.666-2.7-2.042-2.778-4.242-5.448-6.511-8.045-1.177-1.347-2.601-2.498-4.017-3.604-.66-.516-1.568-.715-2.565-1.144-.388 1.66-.676 3.134-1.082 4.575-.844 3.001-1.74 5.987-2.635 8.973-.439 1.467-1.472 2.11-2.986 2.078-1.316-.027-2.633-.006-4.023-.006.821-4.47 1.614-8.801 2.412-13.131 1.263-6.853 2.552-13.701 3.765-20.563.145-.821.53-1.159 1.21-1.191 1.598-.074 3.202-.117 4.801-.066.963.031 1.434.667 1.307 1.64-.423 3.218-.86 6.434-1.302 9.65-.098.71-.24 1.413-.397 2.327 1.75-2.127 3.311-4.14 4.994-6.045 2.586-2.926 5.326-5.689 9.013-7.262 1.541-.658 3.128-.688 4.722-.29 2.455.613 3.976 2.675 3.921 5.376-.034 1.685-.583 3.235-1.677 4.541-1.233 1.472-3.302 1.539-4.676.189-1.744-1.713-1.627-3.955.247-5.485.746-.609 2.01-1.218 1.367-2.299-.254-.427-1.959-.44-2.686-.05-2.029 1.089-4.026 2.325-5.791 3.796-3.581 2.986-6.545 6.575-9.652 10.526z"/></svg>