<svg width="592" height="264" viewBox="0 0 592 264" fill="#9d15a0" xmlns="http://www.w3.org/2000/svg">
  <path d="M504.56,38.11C448.82,13.53,374.75,0,295.98,0C217.22,0,143.14,13.53,87.41,38.11
    C31.04,62.97,0,96.39,0,132.2c0,35.82,31.04,69.23,87.41,94.09c55.73,24.58,129.81,38.12,208.57,38.12
    c78.77,0,152.84-13.54,208.58-38.12c56.36-24.86,87.41-58.27,87.41-94.09C591.97,96.39,560.92,62.97,504.56,38.11z M488.55,223.27
    c-51.46,23.8-119.85,36.9-192.57,36.9c-72.71,0-141.1-13.1-192.56-36.9c-52.04-24.06-80.7-56.4-80.7-91.07s28.66-67.01,80.7-91.07
    C154.88,17.34,223.27,4.24,295.98,4.24c72.72,0,141.11,13.1,192.57,36.89c52.03,24.06,80.69,56.4,80.69,91.07
    S540.58,199.21,488.55,223.27z"/>

  <path d="M157.561,96.713c0.169-0.689,0.297-1.392,0.517-2.064c0.388-1.183,1.016-2.168,2.313-2.555
    c1.242-0.37,2.322-0.084,3.178,0.842c0.894,0.968,0.433,2.025-0.003,3.021c-0.415,0.947-1.03,1.829-1.292,2.811
    c-0.15,0.562,0.042,1.448,0.431,1.844c0.286,0.291,1.275,0.24,1.717-0.035c1.454-0.901,2.934-1.835,4.167-3.005
    c4.915-4.666,8.887-10.126,12.842-15.594c0.303-0.42,0.595-0.848,1.035-1.478c-1.496-0.121-2.825-0.329-4.151-0.311
    c-1.914,0.027-3.872,0.002-5.729,0.39c-2.915,0.61-4.065,2.318-3.996,5.275c0.012,0.514,0.187,1.141-0.593,1.19
    c-0.874,0.055-0.755-0.658-0.767-1.197c-0.092-4.072,2.126-6.699,6.202-6.936c2.994-0.174,6.012-0.005,9.015,0.123
    c0.761,0.033,1.152-0.156,1.553-0.751c8.717-12.948,16.638-26.35,23.181-40.542c0.128-0.277,0.512-0.578,0.808-0.613
    c1.628-0.196,3.264-0.336,4.9-0.45c1.097-0.076,1.647,0.474,1.598,1.59c-0.12,2.728-0.166,5.461-0.374,8.182
    c-0.399,5.241-0.866,10.477-1.348,15.712c-0.501,5.433-1.072,10.86-1.578,16.293c-0.584,6.272-1.134,12.547-1.686,18.822
    c-0.035,0.394,0.048,0.799,0.073,1.199c0.156,2.583,1.161,2.966,3.409,1.773c1.363-0.723,2.37-2.188,3.402-3.432
    c0.573-0.692,0.836-1.633,1.305-2.423c0.192-0.324,0.558-0.544,0.845-0.811c0.273,0.527,0.599,1.036,0.79,1.591
    c0.065,0.188-0.176,0.519-0.336,0.741c-1.858,2.579-4.098,4.727-7.032,6.047c-2.538,1.142-5.185,0.442-6.848-1.803
    c-1.821-2.458-2.365-5.333-2.433-8.287c-0.061-2.646,0.099-5.298,0.158-7.947c0.01-0.434,0.001-0.868,0.001-1.386
    c-3.1-0.335-6.159-0.674-9.221-0.994c-2.513-0.263-5.034-0.465-7.541-0.775c-0.857-0.106-1.299,0.212-1.756,0.871
    c-3.71,5.35-7.56,10.605-12.283,15.113c-1.898,1.811-4.019,3.484-6.286,4.79c-3.441,1.982-6.46,0.689-7.885-3.006
    c-0.082-0.213-0.199-0.412-0.299-0.618C157.561,97.517,157.561,97.115,157.561,96.713z M206.344,43.595
    c-6.114,12.32-12.75,24.207-20.411,35.725c5.784,0.585,11.333,1.146,16.774,1.696C203.924,68.486,205.126,56.125,206.344,43.595z
    "/>
  <path d="M325.491,138.506c-0.26-1.713-0.68-3.419-0.751-5.139c-0.221-5.359,2.284-9.376,6.493-12.45
    c4.131-3.017,8.884-4.497,13.805-5.607c1.693-0.382,3.315-0.504,4.96,0.055c1.036,0.352,1.71,0.892,1.527,2.196
    c-0.815,5.796-1.566,11.6-2.34,17.402c-0.053,0.393-0.115,0.785-0.172,1.178c0.129,0.111,0.259,0.221,0.388,0.332
    c0.22-0.371,0.381-0.797,0.669-1.105c5.085-5.435,10.442-10.577,16.475-14.964c3.12-2.268,6.359-4.373,10.217-5.166
    c1.947-0.4,3.911-0.344,5.769,0.54c1.197,0.57,1.926,1.451,1.789,2.839c-0.173,1.746-0.205,3.535-0.642,5.216
    c-0.486,1.871-2.166,2.639-3.681,2.084c-2.023-0.741-2.123-2.328-0.911-4.307c0.362-0.592,1.045-0.982,1.554-1.492
    c0.393-0.394,0.829-0.782,1.093-1.257c0.545-0.979,0.294-1.591-0.802-1.899c-1.631-0.457-3.245-0.327-4.821,0.335
    c-4.443,1.867-8.341,4.605-12.085,7.578c-5.457,4.334-10.384,9.23-15.07,14.375c-0.211,0.232-0.41,0.476-0.567,0.659
    c1.851,0,3.739-0.276,5.515,0.054c4.565,0.849,7.554,3.718,8.621,8.191c1.244,5.214,2.093,10.521,3.186,15.773
    c0.856,4.116,1.801,8.215,3.696,12.016c0.018,0.036,0.044,0.067,0.063,0.103c1.853,3.476,5.274,3.768,7.631,0.595
    c0.252-0.339,0.13-1.037,0.034-1.54c-0.448-2.331,0.984-4.159,3.273-4.118c2.284,0.042,3.421,2.148,2.331,4.166
    c-0.379,0.702-0.614,1.556-0.649,2.352c-0.047,1.088,0.722,1.689,1.733,1.301c1.131-0.434,2.395-0.938,3.174-1.799
    c2.445-2.698,5.012-5.373,6.943-8.429c3.933-6.226,7.522-12.672,11.144-19.089c0.558-0.988,0.533-2.305,0.848-3.803
    c2.044-0.078,4.228-0.208,6.413-0.224c1.026-0.007,1.201,0.86,1.147,1.651c-0.183,2.721-0.368,5.445-0.661,8.155
    c-0.678,6.258-1.449,12.507-2.108,18.767c-0.106,1.011,0.056,2.089,0.29,3.09c0.372,1.588,1.25,2.087,2.848,1.804
    c1.667-0.296,2.919-1.283,3.994-2.513c0.706-0.808,1.346-1.675,2.069-2.582c0.599,0.504,0.891,1.057,0.421,1.668
    c-1.836,2.385-3.862,4.525-7.07,4.979c-2.905,0.411-5.382-0.867-6.884-3.542c-1.419-2.527-1.87-5.305-1.837-8.119
    c0.056-4.777,0.315-9.552,0.487-14.328c0.008-0.22,0.001-0.441,0.001-1.025c-1.494,2.77-2.771,5.237-4.138,7.653
    c-2.908,5.142-6.062,10.124-10.11,14.465c-1.117,1.198-2.347,2.325-3.667,3.29c-2.902,2.119-6.338,2.847-9.026-0.852
    c-1.57,0.816-3.026,1.975-4.661,2.346c-4.56,1.035-8.72-0.945-11.209-4.952c-1.938-3.12-2.761-6.614-3.544-10.147
    c-1.306-5.896-2.671-11.781-4.156-17.634c-0.365-1.439-1.163-2.817-1.98-4.081c-1.193-1.845-2.311-2.15-4.401-1.642
    c-1.391,5.245-2.654,10.454-4.165,15.591c-1.768,6.011-4.031,11.836-7.742,16.969c-1.836,2.539-4.016,4.716-7.115,5.679
    c-0.832,0.259-1.722,0.413-2.592,0.45c-1.47,0.062-2.498-0.812-3.047-2.428c-0.805-2.371-0.533-4.787-0.083-7.147
    c1.567-8.223,5.902-14.977,11.423-21.074c0.162-0.179,0.31-0.38,0.501-0.52c2.714-1.969,3.667-4.814,4.297-7.967
    c1.506-7.538,3.198-15.039,4.811-22.555c0.04-0.187,0.027-0.385,0.05-0.774c-0.857,0.209-1.62,0.367-2.366,0.581
    c-4.023,1.153-7.938,2.547-11.248,5.233c-3.551,2.881-5.131,6.572-4.555,11.143c0.095,0.755,0.247,1.51,0.258,2.267
    c0.006,0.394-0.24,0.791-0.372,1.187C325.963,138.532,325.727,138.519,325.491,138.506z M337.494,150.258
    c-0.285,0.203-0.398,0.256-0.474,0.341c-0.776,0.865-1.576,1.71-2.313,2.607c-4.552,5.538-8.155,11.587-9.57,18.707
    c-0.343,1.727-0.25,3.568-0.139,5.343c0.035,0.555,0.701,1.336,1.24,1.51c0.449,0.145,1.34-0.295,1.678-0.745
    c0.881-1.173,1.715-2.428,2.305-3.766C333.586,166.616,335.407,158.502,337.494,150.258z"/>
  <path d="M323.724,69.13c0.605-2.019,0.89-2.266,2.688-2.26c1.162,0.003,2.323,0.129,3.485,0.151
    c0.95,0.018,1.16,0.53,1.02,1.341c-0.448,2.605-0.845,5.221-1.354,7.814c-1.033,5.265-2.126,10.518-3.189,15.777
    c-0.021,0.102,0.018,0.216,0.032,0.355c1.554-1.486,3.082-2.947,4.62-4.419c1.08,0.726,1.109,0.964,0.188,1.902
    c-1.07,1.089-2.089,2.233-3.215,3.261c-1.702,1.554-2.499,3.444-2.929,5.712c-1.655,8.734-3.342,17.467-5.297,26.137
    c-1.487,6.598-4.412,12.539-9.532,17.183c-0.679,0.616-1.434,1.167-2.216,1.644c-1.518,0.926-2.857,0.62-3.807-0.894
    c-1.399-2.231-1.622-4.748-1.563-7.297c0.182-7.973,2.933-15.114,7.204-21.724c1.565-2.423,3.208-4.813,5.014-7.057
    c1.476-1.834,2.392-3.71,2.668-6.113c0.442-3.853,1.303-7.657,1.982-11.483c0.042-0.234,0.039-0.476,0.076-0.978
    c-0.37,0.415-0.596,0.654-0.806,0.906c-3.379,4.062-7.074,7.788-11.535,10.673c-0.968,0.626-2.022,1.155-3.097,1.57
    c-2.857,1.104-5.27,0.07-6.53-2.707c-0.131-0.29-0.244-0.588-0.381-0.92c-1.067,0.914-2.041,1.906-3.164,2.682
    c-4.239,2.932-9.976,1.083-11.531-3.832c-0.665-2.101-0.785-4.375-1.159-6.609c-0.221,0.248-0.571,0.641-0.923,1.032
    c-3.294,3.648-6.783,7.076-11.107,9.512c-1.358,0.765-2.776,1.486-4.429,1.233c-2.624-0.4-4.245-2.384-4.673-5.489
    c-0.689-5.005,0.723-9.545,3.123-13.809c3.698-6.569,8.789-11.721,15.809-14.744c1.014-0.437,2.132-0.685,3.228-0.867
    c1.8-0.299,3.333,0.235,4.317,1.698c0.534-0.566,0.998-1.511,1.591-1.6c1.676-0.252,3.508-0.605,5.015,0.474
    c0.475,0.34,0.768,1.376,0.66,2.012c-0.416,2.442-0.966,4.866-1.58,7.267c-1.219,4.769-2.555,9.507-3.76,14.279
    c-0.61,2.418-0.402,4.864,0.287,7.247c0.551,1.905,1.579,2.345,3.372,1.499c1.88-0.886,3.147-2.448,4.328-4.085
    c0.104-0.144,0.139-0.372,0.131-0.558c-0.278-6.434,2.292-11.876,6.023-16.849c3.472-4.627,7.733-8.349,13.16-10.575
    c0.626-0.257,1.288-0.443,1.948-0.6C320.205,66.48,322.329,66.49,323.724,69.13z M303.43,92.206c0,0.602-0.038,1.207,0.006,1.806
    c0.226,3.065,2.788,4.411,5.384,2.787c0.875-0.548,1.758-1.189,2.402-1.98c2.934-3.603,5.793-7.268,8.653-10.93
    c0.407-0.521,0.862-1.118,0.972-1.737c0.668-3.762,1.27-7.537,1.831-11.317c0.175-1.181-0.417-2.043-1.617-2.081
    c-1.362-0.043-2.825,0.047-4.087,0.509c-3.612,1.322-6.316,3.912-8.61,6.91C304.751,80.894,303.732,86.452,303.43,92.206z
      M266.491,92.651c0.132,0.681,0.218,1.691,0.531,2.625c0.652,1.951,2.769,2.812,4.581,1.826c0.972-0.529,1.948-1.195,2.666-2.021
    c2.547-2.933,5.013-5.939,7.44-8.973c0.53-0.663,0.877-1.524,1.127-2.349c0.627-2.065,1.209-4.149,1.699-6.25
    c0.516-2.215,0.971-4.449,1.321-6.695c0.203-1.299-0.269-1.984-1.565-2.08c-1.238-0.092-2.575,0.021-3.749,0.407
    c-3.17,1.043-5.594,3.216-7.806,5.638C268.192,79.755,267.116,85.95,266.491,92.651z M316.724,106.663
    c-0.241,0.194-0.349,0.248-0.41,0.335c-3.295,4.643-6.579,9.303-8.691,14.636c-2.313,5.841-3.614,11.874-2.994,18.207
    c0.163,1.663,0.818,2.798,1.771,2.84c1.327,0.058,2.012-0.98,2.462-1.979c0.932-2.074,1.965-4.162,2.472-6.356
    c1.578-6.82,2.967-13.685,4.349-20.549C316.145,111.5,316.367,109.155,316.724,106.663z"/>
  <path d="M132.714,152.489c-2.159-1.629-3.993-3.529-5.164-5.962
    c-2.922-6.07-2.069-11.816,1.596-17.283c4.414-6.584,10.514-10.651,18.285-12.228c0.377-0.077,0.713-0.386,1.053-0.609
    c0.614-0.403,1.195-1.131,1.83-1.178c1.859-0.138,3.74-0.052,5.605,0.059c0.358,0.021,0.684,0.56,1.126,0.949
    c2.925,0.719,6.2,1.217,9.249,2.335c7.9,2.897,12.362,8.882,13.706,17.015c2.415,14.615-2.476,26.799-13.24,36.643
    c-5.641,5.159-12.518,7.68-20.185,8.271c-4.793,0.37-9.092-0.877-13.335-2.837c-1.955-0.903-4.035-1.533-6.029-2.356
    c-0.698-0.288-1.083-0.095-1.546,0.416c-2.517,2.78-5.249,5.313-8.601,7.077c-2.27,1.195-4.671,1.891-7.27,1.752
    c-2.896-0.155-4.726-3.09-3.304-5.607c2.279-4.034,5.807-6.193,10.502-6.293c1.313-0.028,2.857,0.401,3.875-0.152
    c1.029-0.56,1.601-2.04,2.263-3.182c3.152-5.44,6.267-10.901,9.391-16.356C132.596,152.832,132.636,152.682,132.714,152.489z
      M127.621,173.655c3.677,1.402,7.368,2.803,11.054,4.217c2.436,0.935,4.979,1.507,7.537,1.006
    c3.009-0.589,6.065-1.241,8.896-2.375c10.028-4.016,16.666-11.114,18.09-22.072c0.997-7.668,0.474-15.385-1.261-22.964
    c-0.779-3.402-2.09-6.582-4.558-9.131c-3.015-3.113-6.905-4.169-11.149-4.516c-3.898,12.408-9.547,24.037-15.516,35.587
    c0.313,0.118,0.49,0.219,0.678,0.25c3.732,0.62,7.441,0.345,11.09-0.514c1.076-0.254,1.658-0.053,2.138,0.962
    c-4.44,1.713-9.012,2.16-13.691,1.568c-0.898-0.114-1.391-0.014-1.904,0.85c-2.288,3.856-4.617,7.692-7.072,11.443
    C130.624,169.996,129.013,171.844,127.621,173.655z M147.973,118.68c-0.145-0.114-0.29-0.228-0.435-0.343
    c-7.597,1.841-12.661,6.51-15.215,13.925c-1.987,5.77-1.115,11.113,2.388,16.023c0.141,0.028,0.282,0.057,0.422,0.085
    C139.414,138.473,143.693,128.576,147.973,118.68z M120.115,173.852c-1.483,0-2.565-0.017-3.645,0.003
    c-3.667,0.067-7.477,3.13-8.323,6.675c-0.385,1.614,0.588,2.743,2.216,2.462c0.73-0.126,1.501-0.373,2.11-0.78
    C115.59,180.126,117.664,177.081,120.115,173.852z"/>
  <path d="M283.104,175.725c2.035,0.252,3.193,1.418,3.785,2.94c1.051,2.703,1.859,5.501,2.762,8.239
    c2.595-2.218,5.435-4.646,8.274-7.072c0.88,0.764,0.827,1.307,0.106,1.901c-2.539,2.094-5.045,4.227-7.595,6.308
    c-0.552,0.451-0.788,0.892-0.716,1.62c0.531,5.344,0.385,10.678-0.704,15.937c-2.223,10.736-7.649,19.366-17.077,25.235
    c-1.314,0.818-2.766,1.444-4.214,2.005c-1.386,0.537-2.558,0.219-3.197-1.085c-0.649-1.325-1.237-2.848-1.244-4.288
    c-0.025-5.443,1.789-10.436,4.146-15.276c2.843-5.838,7.2-10.488,11.619-15.1c1-1.044,1.957-2.15,3.072-3.059
    c0.923-0.752,1.212-1.586,1.107-2.704c-0.333-3.547-0.578-7.103-0.98-10.641c-0.099-0.873-0.57-1.751-1.04-2.523
    c-0.483-0.792-1.089-1.098-2.03-0.29c-3.055,2.621-7.014,2.764-10.04,0.438c-1.817-1.397-2.645-3.397-2.996-5.576
    c-0.247-1.528-0.282-3.089-0.426-4.807c-0.401,0.45-0.753,0.85-1.111,1.246c-3.102,3.439-6.37,6.708-10.399,9.058
    c-1.319,0.769-2.827,1.47-4.314,1.641c-2.884,0.331-5.008-2.04-5.48-5.498c-0.665-4.875,0.665-9.317,2.965-13.489
    c3.7-6.713,8.856-11.958,15.988-15.056c0.765-0.332,1.581-0.585,2.399-0.747c2.046-0.405,3.936-0.212,5.371,1.958
    c0.159-2.088,1.503-2.171,2.924-2.127c0.722,0.023,1.453-0.014,2.164,0.085c1.485,0.207,2.213,0.992,1.961,2.471
    c-0.423,2.481-0.989,4.942-1.611,7.382c-1.216,4.769-2.555,9.506-3.756,14.278c-0.609,2.417-0.398,4.864,0.293,7.245
    c0.538,1.854,1.55,2.337,3.269,1.521c0.915-0.435,2.09-0.758,1.984-2.214c-0.016-0.218,0.366-0.496,0.606-0.697
    c2.484-2.077,5.034-4.078,7.453-6.227c3.793-3.37,7.254-7.047,9.882-11.435c1.398-2.335,2.355-4.812,2.526-7.552
    c0.025-0.395,0.006-0.806-0.073-1.192c-0.311-1.511-0.9-2.02-2.343-1.554c-2.42,0.782-4.874,1.585-7.119,2.754
    c-2.69,1.401-5.176,3.195-7.749,4.821c-0.135,0.085-0.251,0.256-0.389,0.271c-0.433,0.047-0.871,0.039-1.308,0.052
    c0.141-0.356,0.176-0.863,0.438-1.046c2.886-2.013,5.678-4.217,8.762-5.872c2.354-1.263,5.034-2.137,7.671-2.606
    c4.117-0.732,6.77,1.279,6.724,5.764c-0.02,1.895-0.336,3.844-0.869,5.666c-1.78,6.078-5.701,10.63-10.839,14.12
    c-2.37,1.61-5.015,2.813-7.536,4.199C283.924,175.301,283.644,175.442,283.104,175.725z M250.642,170.833
    c0.125,0.652,0.211,1.619,0.504,2.519c0.679,2.085,2.822,2.935,4.732,1.851c0.93-0.528,1.868-1.167,2.559-1.967
    c2.541-2.939,5.008-5.943,7.433-8.978c0.53-0.663,0.875-1.525,1.124-2.35c0.613-2.028,1.177-4.075,1.656-6.138
    c0.523-2.254,0.996-4.524,1.358-6.809c0.203-1.281-0.285-1.96-1.589-2.065c-1.2-0.096-2.499,0.003-3.637,0.376
    c-3.212,1.052-5.673,3.238-7.911,5.693C252.333,157.946,251.265,164.143,250.642,170.833z M282.737,195.366
    c-1.973,2.109-3.965,4.2-5.916,6.33c-5.345,5.834-9.211,12.488-11.032,20.237c-0.587,2.495-1.132,5.018-0.636,7.613
    c0.347,1.815,1.582,2.416,3.002,1.271c1.199-0.967,2.339-2.108,3.197-3.379c4.769-7.063,7.979-14.857,10.393-22.988
    C282.607,201.543,283.019,198.537,282.737,195.366z"/>
  <path d="M386.178,99.368c0.542-0.8,1.233-1.537,1.602-2.409c1.747-4.123,3.424-8.276,5.086-12.434
    c0.579-1.447,0.974-2.969,1.573-4.407c1.348-3.24,1.951-6.582,1.644-10.085c-0.042-0.477-0.003-0.964,0.024-1.445
    c0.05-0.885,0.444-1.429,1.417-1.391c1.322,0.051,2.659-0.011,3.965,0.159c1.655,0.215,2.246,1.007,2.23,2.716
    c-0.054,5.663-0.222,11.327-0.156,16.989c0.046,3.886,0.31,7.777,0.668,11.648c0.216,2.326,0.903,2.554,3.014,1.405
    c2.024-1.102,3.186-2.99,4.379-4.903c0.83,0.144,1.245,0.466,0.839,1.372c-1.436,3.206-5.397,6.824-10.367,5.442
    c-2.528-0.703-4.02-2.522-4.634-4.926c-0.652-2.548-1.058-5.168-1.422-7.778c-0.246-1.764-0.235-3.563-0.351-5.549
    c-0.931,2.439-1.65,4.769-2.693,6.943c-1.398,2.913-2.811,5.869-4.643,8.513c-3.101,4.475-7.045,4.024-9.523-0.844
    c-1.243-2.442-1.833-5.038-1.824-7.762c0.006-2.048,0.127-4.095,0.155-6.143c0.029-2.044,0.006-4.09,0.006-6.071
    c-0.279,0.593-0.622,1.319-0.961,2.047c-2.767,5.93-5.74,11.744-9.972,16.797c-0.973,1.161-2.077,2.247-3.262,3.19
    c-3.759,2.994-6.724,2.625-9.633-1.113c-1.091,0.552-2.147,1.22-3.294,1.643c-5.353,1.975-12.975,0.144-15.108-7.299
    c-2.574-8.984-0.74-16.977,5.947-23.656c1.765-1.763,3.944-2.825,6.505-3.055c2.501-0.225,4.512,1.301,4.78,3.795
    c0.258,2.399-0.635,4.487-1.871,6.445c-2.101,3.329-4.967,5.863-8.382,7.776c-0.727,0.407-0.997,0.864-0.897,1.707
    c0.431,3.647,1.315,7.162,2.952,10.46c0.335,0.675,0.784,1.312,1.274,1.887c0.543,0.638,1.21,1,2.126,0.613
    c1.394-0.59,2.813-1.123,4.234-1.645c0.833-0.306,1.101-0.797,1.056-1.722c-0.106-2.204,1.357-3.573,3.503-3.454
    c2.365,0.131,3.384,2.075,2.086,4.04c-0.577,0.873-0.974,1.744-0.592,2.802c0.301,0.833,0.852,1.196,1.756,1.017
    c1.589-0.315,2.706-1.35,3.743-2.47c3.359-3.628,5.757-7.906,7.953-12.274c2.281-4.537,4.356-9.181,6.42-13.822
    c0.441-0.991,0.508-2.168,0.633-3.273c0.119-1.06,0.561-1.578,1.675-1.549c1.482,0.038,2.966-0.006,4.448-0.022
    c1.073-0.012,1.509,0.339,1.445,1.573c-0.407,7.817-0.76,15.638-1.022,23.461c-0.062,1.868,0.261,3.754,0.477,5.623
    c0.054,0.468,0.382,0.905,0.584,1.356C385.906,99.312,386.042,99.34,386.178,99.368z M340.59,84.126
    c2.67-1.811,4.941-3.609,6.817-5.887c1.498-1.819,2.692-3.789,3.18-6.121c0.285-1.364-0.043-2.627-1.161-3.456
    c-1.069-0.793-2.361-0.603-3.391,0.086c-0.941,0.629-1.868,1.433-2.483,2.368C341.02,74.964,340.706,79.362,340.59,84.126z"/>
  <path d="M447.857,170.422c1.429-1.505,2.858-3.011,4.273-4.502c1.226,0.85,1.23,1,0.331,1.938
    c-1.529,1.595-3.096,3.159-4.52,4.844c-0.583,0.691-1.025,1.622-1.209,2.51c-1.9,9.174-3.642,18.382-5.619,27.539
    c-1.376,6.375-4.106,12.134-8.836,16.779c-0.854,0.838-1.819,1.584-2.811,2.256c-1.601,1.085-3.031,0.754-4.059-0.924
    c-1.356-2.215-1.512-4.707-1.43-7.207c0.303-9.171,3.709-17.21,9.069-24.514c1.495-2.037,3.115-3.988,4.515-6.087
    c0.587-0.88,0.898-2.019,1.08-3.083c0.905-5.286,1.726-10.586,2.604-16.053c-0.563,1.217-1.052,2.317-1.577,3.398
    c-1.717,3.536-3.46,7.059-6.069,10.057c-3.4,3.905-7.053,3.43-9.331-1.23c-1.051-2.148-1.793-4.417-1.681-6.821
    c0.351-7.576,0.8-15.147,1.196-22.721c0.056-1.059,0.528-1.59,1.618-1.554c1.601,0.054,3.203,0.067,4.803,0.126
    c0.865,0.032,1.126,0.527,1.067,1.368c-0.301,4.285-0.704,8.57-0.803,12.86c-0.118,5.129,0.012,10.264,0.099,15.396
    c0.012,0.684,0.404,1.361,0.62,2.041c0.15,0.017,0.3,0.034,0.451,0.051c0.485-0.609,1.099-1.155,1.434-1.838
    c1.852-3.769,3.759-7.519,5.414-11.375c2.16-5.034,4.15-10.143,6.123-15.255c1.457-3.777,1.537-3.888,5.717-3.369
    c2.082,0.258,2.127,0.267,1.729,2.345c-1.401,7.314-2.835,14.622-4.255,21.932c-0.067,0.346-0.122,0.694-0.182,1.041
    C447.697,170.387,447.777,170.405,447.857,170.422z M437.975,185.171c-0.127-0.031-0.254-0.061-0.381-0.092
    c-0.625,0.874-1.243,1.752-1.875,2.62c-5.484,7.525-9.165,15.769-9.851,25.158c-0.148,2.023,0.003,4.078,0.148,6.108
    c0.064,0.902,0.612,1.855,1.59,1.839c0.655-0.01,1.555-0.547,1.899-1.118c0.88-1.459,1.658-3.017,2.214-4.626
    c2.335-6.756,3.623-13.767,4.847-20.785C437.094,191.25,437.509,188.206,437.975,185.171z"/>
  <path d="M212.146,173.793c3.07-3.106,6.255-6.11,9.151-9.37c1.066-1.2,1.404-3.027,2.159-4.526
    c2.471-4.909,5.586-9.337,10.409-12.177c1.891-1.113,4.077-1.866,6.225-2.366c2.99-0.695,5.001,1.099,5.092,4.166
    c0.09,3.02-0.771,5.694-2.926,7.881c-0.223,0.227-0.474,0.435-0.74,0.609c-1.276,0.835-2.435,0.789-3.11-0.107
    c-0.773-1.025-0.51-2.903,0.605-3.667c0.686-0.47,1.489-0.769,2.238-1.149c1.711-0.868,2.489-2.359,2.227-4.253
    c-0.133-0.963-0.742-1.664-1.635-1.638c-1.407,0.04-2.912,0.115-4.187,0.638c-3.025,1.24-5.162,3.637-7.006,6.251
    c-4.129,5.852-5.591,12.324-4.284,19.388c0.101,0.546,0.295,1.082,0.5,1.601c1.316,3.333,4.089,4.291,7.009,2.21
    c1.442-1.028,2.658-2.421,3.808-3.79c0.639-0.761,1.054-1.003,1.76-0.234c-2.606,5.003-8.057,7.869-13.586,7.141
    c-3.017-0.397-5.449-2.897-5.766-6.203c-0.182-1.891-0.033-3.813-0.033-5.754c-0.534,0.563-1.129,1.241-1.776,1.864
    c-2.572,2.478-5.167,4.931-7.735,7.413c-0.335,0.324-0.517,0.805-0.85,1.13c-0.542,0.53-1.095,1.306-1.743,1.421
    c-1.713,0.303-3.48,0.307-5.505,0.45c2.25-7.548,4.4-14.76,6.55-21.971c-0.055-0.034-0.11-0.069-0.166-0.103
    c-1.3,1.621-2.537,3.298-3.915,4.849c-2.371,2.669-4.766,5.322-7.271,7.863c-1.991,2.02-4.111,3.923-6.266,5.77
    c-1.944,1.666-4.232,2.725-6.759,3.224c-3.016,0.595-4.802-0.5-5.541-3.481c-0.517-2.086-0.44-4.144,0.703-6.046
    c0.646-1.075,1.545-1.822,2.839-2.009c0.996-0.144,1.935-0.158,2.496,0.889c0.492,0.917,0.259,2.344-0.658,3.058
    c-0.748,0.583-1.649,0.969-2.479,1.447c-1.189,0.686-1.582,1.566-1.17,2.816c0.358,1.086,1.069,1.771,2.31,1.71
    c2.181-0.107,4.04-1.05,5.648-2.411c5.068-4.289,8.242-9.627,8.907-16.348c0.275-2.775,0.438-5.526-0.34-8.241
    c-1.18-4.113-3.606-5.314-7.555-3.582c-1.555,0.682-2.948,1.737-4.603,2.736c-0.117-0.066-0.481-0.273-1.006-0.57
    c2.853-2.707,5.934-4.571,9.789-4.827c1.191-0.079,2.423-0.048,3.594,0.164c4.433,0.806,6.407,3.422,6.259,7.94
    c-0.135,4.116-1.221,7.967-2.902,11.761c0.121-0.1,0.248-0.195,0.362-0.303c0.145-0.138,0.289-0.28,0.418-0.433
    c2.174-2.577,4.314-5.184,6.525-7.729c2.456-2.825,3.364-6.321,4.337-9.783c0.266-0.945,0.722-1.488,1.679-1.526
    c1.477-0.06,2.961-0.161,4.432-0.068c1.142,0.072,1.444,0.702,1.092,2.148c-0.634,2.604-1.242,5.221-2.047,7.774
    c-1.791,5.685-3.698,11.333-5.553,16.998c-0.121,0.368-0.2,0.75-0.299,1.125C211.954,173.641,212.05,173.717,212.146,173.793z"/>
  <path d="M481.97,147.136c-0.105-2.895-0.351-5.741-0.286-8.581
    c0.271-11.736,6.94-20.918,19.524-23.268c5.311-0.992,10.619-0.783,15.952-0.32c1.865,0.162,3.75,0.131,5.625,0.12
    c0.406-0.002,0.823-0.27,1.212-0.463c0.649-0.324,0.885-0.8,0.414-1.455c-0.483-0.671-0.414-1.409,0.211-1.801
    c0.587-0.368,1.441-0.649,2.063-0.498c0.378,0.092,0.732,1.066,0.76,1.659c0.064,1.348-0.842,2.178-1.922,2.821
    c-2.165,1.288-4.606,1.264-6.994,1.407c-8.554,0.511-16.734,2.396-24.149,6.833c-5.195,3.109-9.231,7.296-10.329,13.508
    c-0.448,2.536-0.289,5.186-0.335,7.786c-0.074,4.251,0.406,8.579-0.233,12.739c-1.253,8.159-4.996,15.174-11.484,20.504
    c-4.139,3.401-9.164,2.834-12.128,0.535c-2.41-1.869-3.296-4.549-3.759-7.42c-2.024-12.54,8.198-23.02,18.124-25.426
    C477.589,145.004,479.3,145.325,481.97,147.136z M462.966,173.316c0.085,0.667,0.156,1.834,0.394,2.965
    c0.435,2.065,1.73,2.954,3.679,2.24c1.54-0.564,3.1-1.372,4.325-2.444c5.787-5.065,9.266-11.47,10.485-19.065
    c0.428-2.669,0.52-5.352-0.625-7.913c-0.826-1.85-2.547-2.729-4.421-2.01c-1.244,0.477-2.459,1.186-3.491,2.031
    c-3.028,2.479-5.132,5.7-6.887,9.155C464.105,162.845,462.757,167.654,462.966,173.316z"/>
  <path d="M233.748,83.938c3.875-0.385,7.117,0.331,9.72,2.811c1.618,1.542,3.153,3.203,4.517,4.972
    c1.613,2.091,3.019,4.344,4.482,6.548c1.561,2.352,2.773,2.516,4.87,0.084c0.586-0.68,0.953-1.55,1.468-2.412
    c0.325,0.13,0.677,0.271,1.173,0.47c-1.268,2.509-2.395,5.199-5.323,5.737c-3.201,0.588-6.391,0.395-8.666-2.7
    c-2.042-2.778-4.242-5.448-6.511-8.045c-1.177-1.347-2.601-2.498-4.017-3.604c-0.66-0.516-1.568-0.715-2.565-1.144
    c-0.388,1.66-0.676,3.134-1.082,4.575c-0.844,3.001-1.74,5.987-2.635,8.973c-0.439,1.467-1.472,2.11-2.986,2.078
    c-1.316-0.027-2.633-0.006-4.023-0.006c0.821-4.47,1.614-8.801,2.412-13.131c1.263-6.853,2.552-13.701,3.765-20.563
    c0.145-0.821,0.53-1.159,1.21-1.191c1.598-0.074,3.202-0.117,4.801-0.066c0.963,0.031,1.434,0.667,1.307,1.64
    c-0.423,3.218-0.86,6.434-1.302,9.65c-0.098,0.71-0.24,1.413-0.397,2.327c1.75-2.127,3.311-4.14,4.994-6.045
    c2.586-2.926,5.326-5.689,9.013-7.262c1.541-0.658,3.128-0.688,4.722-0.29c2.455,0.613,3.976,2.675,3.921,5.376
    c-0.034,1.685-0.583,3.235-1.677,4.541c-1.233,1.472-3.302,1.539-4.676,0.189c-1.744-1.713-1.627-3.955,0.247-5.485
    c0.746-0.609,2.01-1.218,1.367-2.299c-0.254-0.427-1.959-0.44-2.686-0.05c-2.029,1.089-4.026,2.325-5.791,3.796
    C239.819,76.398,236.855,79.987,233.748,83.938z"/>
</svg>
